<svg viewBox="0 0 58 29">
  <path d="M33.176 19V9.2H37.18C38.3373 9.2 39.252 9.51267 39.924 10.138C40.596 10.7633 40.932 11.5893 40.932 12.616C40.932 13.708 40.5587 14.5573 39.812 15.164C39.0653 15.7613 38.118 16.06 36.97 16.06H35.332V19H33.176ZM35.332 14.142H37.04C37.572 14.142 37.9873 14.002 38.286 13.722C38.594 13.442 38.748 13.078 38.748 12.63C38.748 12.154 38.594 11.79 38.286 11.538C37.978 11.2767 37.5487 11.146 36.998 11.146H35.332V14.142ZM44.2948 19.14C43.5575 19.14 42.9415 18.9347 42.4468 18.524C41.9615 18.1133 41.7188 17.544 41.7188 16.816C41.7188 16.0227 41.9895 15.4253 42.5308 15.024C43.0815 14.6227 43.8188 14.422 44.7428 14.422C45.3682 14.422 45.9795 14.5247 46.5768 14.73V14.604C46.5768 13.6893 46.0402 13.232 44.9668 13.232C44.3228 13.232 43.6322 13.3673 42.8948 13.638L42.3628 12.014C43.2775 11.6127 44.2482 11.412 45.2748 11.412C46.4042 11.412 47.2488 11.692 47.8088 12.252C48.3502 12.7933 48.6208 13.5913 48.6208 14.646V19H46.5628V18.188C45.9935 18.8227 45.2375 19.14 44.2948 19.14ZM44.9388 17.67C45.4335 17.67 45.8348 17.5487 46.1428 17.306C46.4508 17.054 46.6048 16.7367 46.6048 16.354V15.976C46.2035 15.7893 45.7508 15.696 45.2468 15.696C44.7802 15.696 44.4162 15.7893 44.1548 15.976C43.9028 16.1533 43.7768 16.4147 43.7768 16.76C43.7768 17.04 43.8842 17.264 44.0988 17.432C44.3135 17.5907 44.5935 17.67 44.9388 17.67ZM51.9706 21.282C51.2986 21.282 50.6686 21.1093 50.0806 20.764L50.7946 19.224C51.1212 19.42 51.4246 19.518 51.7046 19.518C52.0406 19.518 52.2879 19.3547 52.4466 19.028L49.5066 11.496H51.7606L53.4686 16.606L55.1066 11.496H57.3186L54.4346 19.182C54.1452 19.9567 53.8186 20.498 53.4546 20.806C53.0906 21.1233 52.5959 21.282 51.9706 21.282Z" fill="white"/>
  <path d="M17.3682 0.0317011C16.0045 0.187783 14.0746 1.37998 13.1164 2.65521C12.6312 3.30079 12.2379 4.03238 12.0077 4.80615C11.8442 5.35543 11.6395 6.28926 11.8633 6.85282C11.9068 6.9624 11.9906 6.97901 12.5803 6.98233C14.868 6.99794 16.8492 5.02001 17.606 3.01054C17.8674 2.31648 17.9846 1.67222 18.0182 0.755656L18.0383 0.167858L17.9511 0.0815144C17.854 -0.0147915 17.8004 -0.0181122 17.3682 0.0317011Z" fill="black"/>
  <path d="M17.0585 6.92225C15.7756 7.02088 14.5128 7.45725 13.324 7.91885C12.5467 8.22105 12.5467 8.22105 12.3926 8.24762C12.1245 8.29079 11.4679 8.1015 10.3391 7.64986C8.98549 7.10855 7.63658 6.82993 6.19253 7.13313C3.91923 7.61034 2.17497 9.09578 1.16179 11.1368C0.793233 11.874 0.521844 12.5947 0.320815 13.3618C-0.708451 17.2937 0.871634 22.0184 3.1714 25.2556C3.36807 25.5325 3.5681 25.8068 3.76846 26.0808C4.35479 26.8811 4.65298 27.2464 5.08519 27.6815C5.53751 28.1398 5.90271 28.4054 6.41868 28.6578C7.00167 28.9401 7.2563 29.0032 7.79238 28.9999C8.47923 28.9999 9.03206 28.8604 10.0838 28.422C11.7738 27.718 13.4138 27.7469 15.0964 28.4154C15.9943 28.7741 16.6276 28.9335 17.291 28.9733C18.2559 29.0331 19.1874 28.608 20.1824 27.6616C21.1976 26.6885 22.1458 25.3569 23.1041 23.5599C23.4612 22.8884 23.6559 22.1595 23.9638 21.4761C24.1404 21.0842 23.6284 20.8906 23.3486 20.7508C22.5345 20.3357 21.7337 19.625 21.1943 18.8247C19.4782 16.2656 19.9154 11.9322 22.836 10.3398C22.9466 10.2767 23.0873 10.1804 23.1476 10.1206C23.3319 9.94128 23.3051 9.87154 22.8427 9.33355C21.7166 8.02313 20.086 7.17232 18.3672 6.95081C17.9303 6.89436 17.493 6.88905 17.0585 6.92225Z" fill="black"/>
</svg>
