<svg viewBox="0 0 17 10">
  <path stroke="transparent" d="M8.5 0C5.252 0 2.306 1.754.133 4.602a.657.657 0 0 0 0 .793C2.306 8.246 5.252 10 8.5 10c3.248 0 6.194-1.754 8.367-4.602a.657.657 0 0 0 0-.793C14.693 1.754 11.748 0 8.5 0zm.233 8.52c-2.156.135-3.937-1.619-3.801-3.75.111-1.757 1.554-3.181 3.335-3.29 2.156-.135 3.937 1.619 3.801 3.75-.115 1.754-1.558 3.178-3.335 3.29zm-.108-1.626c-1.161.072-2.121-.871-2.045-2.018.06-.947.838-1.712 1.798-1.774 1.162-.072 2.122.872 2.045 2.018a1.92 1.92 0 0 1-1.798 1.774z" />
</svg>
