<svg viewBox="0 0 58 24">
  <path d="M33.176 17V7.2H37.18C38.3373 7.2 39.252 7.51267 39.924 8.138C40.596 8.76333 40.932 9.58933 40.932 10.616C40.932 11.708 40.5587 12.5573 39.812 13.164C39.0653 13.7613 38.118 14.06 36.97 14.06H35.332V17H33.176ZM35.332 12.142H37.04C37.572 12.142 37.9873 12.002 38.286 11.722C38.594 11.442 38.748 11.078 38.748 10.63C38.748 10.154 38.594 9.79 38.286 9.538C37.978 9.27667 37.5487 9.146 36.998 9.146H35.332V12.142ZM44.2948 17.14C43.5575 17.14 42.9415 16.9347 42.4468 16.524C41.9615 16.1133 41.7188 15.544 41.7188 14.816C41.7188 14.0227 41.9895 13.4253 42.5308 13.024C43.0815 12.6227 43.8188 12.422 44.7428 12.422C45.3682 12.422 45.9795 12.5247 46.5768 12.73V12.604C46.5768 11.6893 46.0402 11.232 44.9668 11.232C44.3228 11.232 43.6322 11.3673 42.8948 11.638L42.3628 10.014C43.2775 9.61267 44.2482 9.412 45.2748 9.412C46.4042 9.412 47.2488 9.692 47.8088 10.252C48.3502 10.7933 48.6208 11.5913 48.6208 12.646V17H46.5628V16.188C45.9935 16.8227 45.2375 17.14 44.2948 17.14ZM44.9388 15.67C45.4335 15.67 45.8348 15.5487 46.1428 15.306C46.4508 15.054 46.6048 14.7367 46.6048 14.354V13.976C46.2035 13.7893 45.7508 13.696 45.2468 13.696C44.7802 13.696 44.4162 13.7893 44.1548 13.976C43.9028 14.1533 43.7768 14.4147 43.7768 14.76C43.7768 15.04 43.8842 15.264 44.0988 15.432C44.3135 15.5907 44.5935 15.67 44.9388 15.67ZM51.9706 19.282C51.2986 19.282 50.6686 19.1093 50.0806 18.764L50.7946 17.224C51.1212 17.42 51.4246 17.518 51.7046 17.518C52.0406 17.518 52.2879 17.3547 52.4466 17.028L49.5066 9.496H51.7606L53.4686 14.606L55.1066 9.496H57.3186L54.4346 17.182C54.1452 17.9567 53.8186 18.498 53.4546 18.806C53.0906 19.1233 52.5959 19.282 51.9706 19.282Z" fill="white"/>
  <path d="M24 12.3808C24 11.5843 23.9311 10.7836 23.7842 10H12V14.5119H18.7483C18.4682 15.9671 17.5685 17.2544 16.251 18.0724V21H20.277C22.6412 18.9593 24 15.9456 24 12.3808Z" fill="#4285F4"/>
  <path d="M11.9084 24C15.2007 24 17.9771 22.9045 20 21.0136L16.0663 17.9227C14.9719 18.6773 13.559 19.1045 11.9129 19.1045C8.72828 19.1045 6.02809 16.9273 5.05925 14H1V17.1864C3.07224 21.3636 7.29297 24 11.9084 24Z" fill="#34A853"/>
  <path d="M5 14.8449C4.52241 13.3236 4.52241 11.6764 5 10.1551V7H1.21282C-0.404273 10.4611 -0.404273 14.5389 1.21282 18L5 14.8449Z" fill="#FBBC04"/>
  <path d="M11.8648 4.89366C13.5982 4.8664 15.2735 5.52968 16.5288 6.7472L20 3.21728C17.802 1.11841 14.8848 -0.0355109 11.8648 0.000833182C7.26781 0.000833182 3.06395 2.63578 1 6.81535L5.03856 10C5.99906 7.06976 8.69292 4.89366 11.8648 4.89366Z" fill="#EA4335"/>
</svg>
