<svg viewBox="0 0 24 24">
  <path d="M11.991 7.947a4.043 4.043 0 0 0-4.044 4.044c0 2.235 1.81 4.062 4.044 4.062a4.043 4.043 0 0 0 4.045-4.044c.017-2.253-1.81-4.062-4.045-4.062z"/>
  <path d="M17.366 0H6.616A6.616 6.616 0 0 0 0 6.616v10.75a6.616 6.616 0 0 0 6.616 6.616h10.75a6.616 6.616 0 0 0 6.616-6.616V6.616A6.616 6.616 0 0 0 17.366 0zM11.99 18.182a6.177 6.177 0 0 1-6.173-6.173 6.177 6.177 0 0 1 6.173-6.173 6.177 6.177 0 0 1 6.173 6.173c.018 3.406-2.75 6.173-6.173 6.173zM19.548 6.67a1.563 1.563 0 0 1-2.2 0 1.563 1.563 0 0 1 0-2.2 1.563 1.563 0 0 1 2.2 0c.284.284.46.692.46 1.1a1.671 1.671 0 0 1-.46 1.1z"/>
</svg>
