<svg viewBox="0 0 36 28">
  <path d="M6.49434 27.6536V25.81C6.49434 25.1117 6.06138 24.6508 5.33512 24.6508C4.97199 24.6508 4.56696 24.7765 4.28763 25.1675C4.07813 24.8323 3.77087 24.6508 3.30997 24.6508C3.00271 24.6508 2.69544 24.7485 2.45801 25.0837V24.7206H1.81555V27.6536H2.45801V26.0335C2.45801 25.5167 2.73734 25.2653 3.15634 25.2653C3.57534 25.2653 3.7988 25.5446 3.7988 26.0335V27.6536H4.44126V26.0335C4.44126 25.5167 4.74853 25.2653 5.13959 25.2653C5.57255 25.2653 5.78205 25.5446 5.78205 26.0335V27.6536H6.49434ZM16.0335 24.7066H14.986V23.8128H14.3435V24.7066H13.7569V25.2932H14.3435V26.648C14.3435 27.3184 14.6229 27.7234 15.3491 27.7234C15.6285 27.7234 15.9357 27.6256 16.1452 27.5139L15.9637 26.9552C15.7821 27.0809 15.5586 27.1089 15.405 27.1089C15.0977 27.1089 14.972 26.9273 14.972 26.6201V25.3072H16.0195V24.7066H16.0335ZM21.4944 24.6368C21.1313 24.6368 20.8799 24.8184 20.7262 25.0698V24.7066H20.0838V27.6536H20.7262V25.9916C20.7262 25.5027 20.9357 25.2234 21.3408 25.2234C21.4665 25.2234 21.6201 25.2513 21.7458 25.2793L21.9274 24.6647C21.8017 24.6368 21.6201 24.6368 21.4944 24.6368ZM13.2402 24.9441C12.9329 24.7346 12.5 24.6368 12.0391 24.6368C11.2988 24.6368 10.81 24.9999 10.81 25.5865C10.81 26.0754 11.1731 26.3547 11.8156 26.4385L12.1229 26.4664C12.4581 26.5223 12.6396 26.6201 12.6396 26.7737C12.6396 26.9832 12.3882 27.1368 11.9692 27.1368C11.5502 27.1368 11.2011 26.9832 10.9916 26.8296L10.6843 27.3184C11.0195 27.5698 11.4804 27.6815 11.9413 27.6815C12.7933 27.6815 13.296 27.2765 13.296 26.7318C13.296 26.215 12.891 25.9357 12.2905 25.8379L11.9832 25.81C11.7039 25.7821 11.4944 25.7122 11.4944 25.5307C11.4944 25.3212 11.7039 25.1955 12.053 25.1955C12.4162 25.1955 12.7933 25.3491 12.9748 25.4469L13.2402 24.9441ZM30.3492 24.6368C29.9861 24.6368 29.7347 24.8184 29.581 25.0698V24.7066H28.9386V27.6536H29.581V25.9916C29.581 25.5027 29.7905 25.2234 30.1956 25.2234C30.3213 25.2234 30.4749 25.2513 30.6006 25.2793L30.7822 24.6647C30.6565 24.6368 30.4749 24.6368 30.3492 24.6368ZM22.1369 26.1731C22.1369 27.067 22.7514 27.7094 23.7011 27.7094C24.1341 27.7094 24.4414 27.6117 24.7486 27.3742L24.4414 26.8575C24.19 27.039 23.9525 27.1368 23.6732 27.1368C23.1564 27.1368 22.7793 26.7737 22.7793 26.1871C22.7793 25.6284 23.1425 25.2653 23.6732 25.2374C23.9525 25.2374 24.19 25.3351 24.4414 25.5167L24.7486 24.9999C24.4414 24.7485 24.1341 24.6647 23.7011 24.6647C22.7514 24.6368 22.1369 25.2932 22.1369 26.1731ZM28.0866 26.1731V24.7066H27.4442V25.0698C27.2347 24.7904 26.9274 24.6368 26.5224 24.6368C25.6983 24.6368 25.0559 25.2793 25.0559 26.1731C25.0559 27.067 25.6983 27.7094 26.5224 27.7094C26.9553 27.7094 27.2626 27.5558 27.4442 27.2765V27.6396H28.0866V26.1731ZM25.7263 26.1731C25.7263 25.6564 26.0615 25.2234 26.6201 25.2234C27.1369 25.2234 27.514 25.6284 27.514 26.1731C27.514 26.6899 27.1509 27.1228 26.6201 27.1228C26.0615 27.0949 25.7263 26.7039 25.7263 26.1731ZM18.0307 24.6368C17.1787 24.6368 16.5642 25.2513 16.5642 26.1731C16.5642 27.0949 17.1787 27.7094 18.0726 27.7094C18.5056 27.7094 18.9246 27.5837 19.2737 27.3044L18.9665 26.8435C18.7151 27.0251 18.4078 27.1508 18.1145 27.1508C17.7095 27.1508 17.3184 26.9692 17.2206 26.4525H19.3994V26.2011C19.4134 25.2513 18.8547 24.6368 18.0307 24.6368ZM18.0307 25.1955C18.4357 25.1955 18.7011 25.4469 18.7709 25.8938H17.2346C17.2905 25.5027 17.5698 25.1955 18.0307 25.1955ZM34.0084 26.1731V23.5334H33.366V25.0698C33.1565 24.7904 32.8492 24.6368 32.4442 24.6368C31.6202 24.6368 30.9777 25.2793 30.9777 26.1731C30.9777 27.067 31.6202 27.7094 32.4442 27.7094C32.8771 27.7094 33.1844 27.5558 33.366 27.2765V27.6396H34.0084V26.1731ZM31.6341 26.1731C31.6341 25.6564 31.9693 25.2234 32.528 25.2234C33.0447 25.2234 33.4218 25.6284 33.4218 26.1731C33.4218 26.6899 33.0587 27.1228 32.528 27.1228C31.9833 27.0949 31.6341 26.7039 31.6341 26.1731ZM10.1117 26.1731V24.7066H9.46922V25.0698C9.25972 24.7904 8.95246 24.6368 8.54743 24.6368C7.7234 24.6368 7.08094 25.2793 7.08094 26.1731C7.08094 27.067 7.7234 27.7094 8.54743 27.7094C8.98039 27.7094 9.28765 27.5558 9.46922 27.2765V27.6396H10.1117V26.1731ZM7.7234 26.1731C7.7234 25.6564 8.0586 25.2234 8.61726 25.2234C9.13402 25.2234 9.51112 25.6284 9.51112 26.1731C9.51112 26.6899 9.14799 27.1228 8.61726 27.1228C8.0586 27.0949 7.7234 26.7039 7.7234 26.1731Z" fill="white"/>
  <path d="M22.6962 2.36035H13.0314V19.7208H22.6962V2.36035Z" fill="#FF5F00"/>
  <path d="M13.6453 11.0336C13.6453 7.514 15.3073 4.38549 17.8492 2.36035C15.9777 0.879892 13.6174 0 11.0336 0C4.93019 0 0 4.93019 0 11.0336C0 17.1369 4.93019 22.0671 11.0336 22.0671C13.6034 22.0671 15.9638 21.1733 17.8353 19.7068C15.2934 17.7096 13.6453 14.5531 13.6453 11.0336Z" fill="#EB001B"/>
  <path d="M35.7124 11.0336C35.7124 17.1369 30.7822 22.0671 24.6788 22.0671C22.1089 22.0671 19.7486 21.1733 17.8771 19.7068C20.4469 17.6816 22.081 14.5531 22.081 11.0336C22.081 7.514 20.419 4.37153 17.8771 2.36035C19.7486 0.879892 22.1089 0 24.6788 0C30.7822 0 35.7124 4.95812 35.7124 11.0336Z" fill="#F79E1B"/>
</svg>
