<svg viewBox="0 0 24 24">
  <path d="M19.77 0H7.22C5.99 0 4.99.954 4.99 2.129v15.616a3.398 3.398 0 0 0-2.117 1.001A3.032 3.032 0 0 0 2 20.866C2 22.591 3.485 24 5.309 24H18.69c.873 0 1.696-.323 2.319-.903a3.067 3.067 0 0 0 .99-2.194V2.129C22 .954 21 0 19.77 0zm-3.858 22.55H5.309c-.985 0-1.79-.753-1.79-1.684 0-.931.805-1.685 1.79-1.685h10.573a3.014 3.014 0 0 0 .03 3.368zm2.411-3.378a.735.735 0 0 0 .638-.716c0-.398-.343-.725-.76-.725H6.51V2.129c0-.375.318-.679.71-.679h12.55c.392 0 .71.304.71.679v18.746c-.02.922-.818 1.675-1.789 1.675-.985 0-1.789-.768-1.789-1.708 0-.805.598-1.506 1.421-1.67z" stroke="transparent" />
  <path d="M10 15.01l7.7-6.6 M12.44 8.42L15.27 6" stroke-width="1.7" stroke-linecap="round" stroke-linejoin="round" stroke="transparent" />
  <path d="M12 3a2 2 0 0 1-2-2h8a2 2 0 0 1-2 2h-4z" stroke="transparent" />
</svg>
