<svg viewBox="0 0 24 24">
  <path d="M10 1.8L9.4 3H6.6L6 1.8V0H4v2a1 1 0 0 0 .1.4l1 2A1 1 0 0 0 6 5h1v6a1 1 0 1 0 0 2 1 1 0 0 0-.7.3l-1 1a1 1 0 0 0-.3.7v8a1 1 0 0 0 1 1h4a1 1 0 0 0 1-1v-8a1 1 0 0 0-.3-.7l-1-1A1 1 0 0 0 9 13a1 1 0 0 0 0-2V5h1a1 1 0 0 0 .9-.6l1-2A.998.998 0 0 0 12 2V0h-2v1.8zM9 22H7v-6.6l.4-.4h1.2l.4.4V22z" stroke="transparent" />
  <path d="M19 0h-4a1 1 0 0 0-1 1v8a1 1 0 0 0 .3.7l1 1a1 1 0 0 0 .7.3 1 1 0 1 0 0 2v11h2V13a1 1 0 1 0 0-2 1 1 0 0 0 .7-.3l1-1A1 1 0 0 0 20 9V1a1 1 0 0 0-1-1zm-1 8.6s-.21.286-.4.4c-.402.241-.798.241-1.2 0-.19-.114-.4-.4-.4-.4V2h2v6.6z" stroke="transparent" />
</svg>
