<svg viewBox="0 0 24 24">
  <rect x="1" y="1" width="22" height="22" rx="2" stroke-width="2" fill="transparent" />
  <path d="M11 7c2.1 0 3.9 1.7 4 3.8V16c0 .6-.4 1-1 1-.5 0-.9-.4-1-.9v-5c0-1.1-.9-2-2-2.1H7.2c-.1 0-.2.1-.2.2V16c0 .6-.4 1-1 1-.5 0-.9-.4-1-.9V8.2C5 7.5 5.5 7 6.2 7H11z" fill="transparent" />
  <path d="M18 7c.6 0 1 .4 1 1v8c0 .6-.4 1-1 1s-1-.4-1-1V8c0-.6.4-1 1-1z" fill="transparent" />
  <path d="M10 11c.6 0 1 .4 1 1v4c0 .6-.4 1-1 1s-1-.4-1-1v-4c0-.6.4-1 1-1z" fill="transparent" />
</svg>
