<svg viewBox="0 0 24 24">
  <path d="M12 7.286c-3.23 0-5.86 2.67-5.86 5.952s2.63 5.953 5.86 5.953c3.23 0 5.86-2.67 5.86-5.953 0-3.282-2.63-5.952-5.86-5.952zm0 10c-2.197 0-3.984-1.816-3.984-4.048S9.803 9.191 12 9.191s3.984 1.815 3.984 4.047c0 2.232-1.787 4.048-3.984 4.048z" stroke="transparent" />
  <path d="M21.188 4.429h-3.45a.29.29 0 0 1-.258-.159l-.954-2.037A2.152 2.152 0 0 0 14.58 1H9.486A2.152 2.152 0 0 0 7.54 2.233L6.586 4.27a.29.29 0 0 1-.258.159H2.812C1.262 4.429 0 5.71 0 7.286v12.857C0 21.718 1.262 23 2.813 23h18.375C22.738 23 24 21.718 24 20.143V7.286c0-1.576-1.262-2.857-2.813-2.857zm.937 15.714c0 .525-.42.952-.938.952H2.813a.946.946 0 0 1-.937-.952V7.286c0-.525.42-.953.938-.953h3.515c.826 0 1.569-.466 1.938-1.216l.008-.017.954-2.037a.29.29 0 0 1 .258-.158h5.094c.11 0 .208.06.258.158l.955 2.037.008.017a2.151 2.151 0 0 0 1.938 1.216h3.448c.517 0 .938.428.938.953v12.857z" stroke="transparent" />
  <path d="M18.375 9.238a1 1 0 1 0 2 0 1 1 0 0 0-2 0z" stroke="transparent" />
</svg>
