<svg viewBox="0 0 27 24">
  <path d="M24.2 2.042h-1.694V.702a.705.705 0 0 0-1.407 0v1.34h-6.892V.702a.705.705 0 0 0-1.407 0v1.34H5.837V.702a.704.704 0 0 0-1.406 0v1.34H2.806C1.26 2.042 0 3.339 0 4.882v16.312A2.803 2.803 0 0 0 2.806 24h21.388A2.801 2.801 0 0 0 27 21.2V4.884c.007-1.544-1.252-2.841-2.8-2.841zm1.4 19.152c0 .771-.619 1.396-1.392 1.403H2.806c-.773 0-1.4-.625-1.4-1.396V4.883c0-.779.627-1.438 1.4-1.438h1.625v1.017a.704.704 0 0 0 1.406 0V3.445H12.8v1.017a.704.704 0 0 0 1.407 0V3.445h6.892v1.017a.704.704 0 0 0 1.407 0V3.445H24.2c.78 0 1.4.666 1.4 1.438v16.31z"/>
  <path d="M11.74 8h-1.316c-.414 0-.752.36-.752.8 0 .44.338.8.752.8h1.316c.414 0 .752-.36.752-.8 0-.44-.338-.8-.752-.8z"/>
  <path d="M16.576 8H15.26c-.414 0-.753.36-.753.8 0 .44.339.8.753.8h1.316c.414 0 .752-.36.752-.8 0-.44-.33-.8-.752-.8z"/>
  <path d="M21.815 8h-1.317c-.413 0-.752.36-.752.8 0 .44.339.8.753.8h1.316c.414 0 .752-.36.752-.8 0-.44-.338-.8-.752-.8z"/>
  <path d="M11.74 12.8h-1.316c-.414 0-.752.36-.752.8 0 .44.338.8.752.8h1.316c.414 0 .752-.36.752-.8 0-.44-.338-.8-.752-.8z"/>
  <path d="M6.912 12.8H5.588c-.414 0-.752.36-.752.8 0 .44.338.8.752.8h1.316c.414 0 .753-.36.753-.8 0-.44-.331-.8-.745-.8z"/>
  <path d="M16.576 12.8H15.26c-.414 0-.753.36-.753.8 0 .44.339.8.753.8h1.316c.414 0 .752-.36.752-.8 0-.44-.33-.8-.752-.8z"/>
  <path d="M21.815 12.8h-1.317c-.413 0-.752.36-.752.8 0 .44.339.8.753.8h1.316c.414 0 .752-.36.752-.8 0-.44-.338-.8-.752-.8z"/>
  <path d="M11.74 17.6h-1.316c-.414 0-.752.36-.752.8 0 .44.338.8.752.8h1.316c.414 0 .752-.36.752-.8 0-.44-.338-.8-.752-.8z"/>
  <path d="M6.912 17.6H5.588c-.414 0-.752.36-.752.8 0 .44.338.8.752.8h1.316c.414 0 .753-.36.753-.8 0-.44-.331-.8-.745-.8z"/>
  <path d="M16.576 17.6H15.26c-.414 0-.753.36-.753.8 0 .44.339.8.753.8h1.316c.414 0 .752-.36.752-.8 0-.44-.33-.8-.752-.8z"/>
</svg>
