<svg viewBox="0 0 23 24">
  <path d="M6.118 24a.973.973 0 0 1-.978-.973c0-.432-.04-1.253-.077-1.977-.02-.424-.04-.81-.051-1.113-1.49-.53-2.66-1.423-3.479-2.659-.726-1.095-1.167-2.37-1.348-3.896-.33-2.785-.22-5.243.34-7.513.602-2.444 2.106-4.115 4.47-4.966C6.73.28 8.596 0 11.045 0a48.4 48.4 0 0 1 1.914.043c1.505.06 2.746.24 3.904.566 1.39.392 2.838.88 3.918 2.137.68.79 1.166 1.762 1.487 2.97.526 1.978.657 4.159.413 6.863-.099 1.09-.23 2.248-.663 3.377-.822 2.144-2.44 3.534-4.806 4.13-1.984.498-4.06.752-6.168.752-.307 0-.618-.006-.928-.016a1.922 1.922 0 0 0-.043.045.963.963 0 0 1-.046.048c-.994.948-2.48 2.188-3.04 2.655l-.213.178a.982.982 0 0 1-.657.252zm4.928-22.055c-2.212 0-3.873.243-5.386.788-1.734.624-2.792 1.801-3.235 3.599-.503 2.04-.6 4.272-.297 6.822.144 1.219.484 2.218 1.038 3.053.624.941 1.51 1.585 2.708 1.967.894.285 1.083.887 1.084 1.341 0 .255.029.83.06 1.439l.001.037a45.844 45.844 0 0 0 1.63-1.457c.205-.224.659-.688 1.449-.66.316.012.634.018.946.018 1.947 0 3.861-.233 5.689-.693 1.76-.443 2.86-1.376 3.457-2.936.344-.898.453-1.864.543-2.858.226-2.506.116-4.416-.356-6.193-.244-.918-.598-1.639-1.083-2.203-.725-.845-1.816-1.205-2.963-1.529-1.006-.283-2.102-.44-3.45-.493a46.435 46.435 0 0 0-1.835-.042z"/>
  <path d="M16.491 14.537c-.085.754-.501 1.175-.917 1.578-.469.454-1.027.724-1.696.458a19.561 19.561 0 0 1-1.51-.684 14.219 14.219 0 0 1-4.086-3.078c-1.39-1.499-2.478-3.19-3.117-5.144-.168-.511-.08-.967.325-1.317a9.489 9.489 0 0 1 1.185-.886.77.77 0 0 1 .941.074c.765.678 1.39 1.47 1.796 2.41.137.32.107.656-.207.903-.154.12-.299.253-.45.377-.415.342-.48.58-.313 1.086.378 1.15 1.19 1.947 2.17 2.59.332.216.718.356 1.092.497.319.12.585-.012.79-.27.107-.136.21-.273.32-.406.313-.378.862-.503 1.27-.231.718.477 1.424.975 2.105 1.502.171.132.231.407.302.54z"/>
  <path d="M17.52 11.291a.488.488 0 0 1-.489-.486c0-3.37-2.756-6.11-6.144-6.11a.488.488 0 0 1-.49-.487c0-.269.22-.486.49-.486 3.927 0 7.122 3.177 7.122 7.083a.488.488 0 0 1-.489.486z"/>
  <path d="M15.711 11.292a.488.488 0 0 1-.49-.487c0-2.377-1.944-4.311-4.334-4.311a.488.488 0 0 1-.49-.487c0-.268.22-.486.49-.486 2.93 0 5.313 2.37 5.313 5.284a.488.488 0 0 1-.489.487z"/>
  <path d="M13.902 11.292a.488.488 0 0 1-.49-.487 2.522 2.522 0 0 0-2.525-2.512.488.488 0 0 1-.49-.486c0-.269.22-.487.49-.487 1.932 0 3.504 1.564 3.504 3.485a.488.488 0 0 1-.489.487z"/>
</svg>
