<svg viewBox="0 0 66 20">
  <path d="M23.5225 19L26.99 0H32.5225L29.0549 19H23.5225Z" fill="#005098"/>
  <path d="M48.5225 0.814816C47.4708 0.407409 45.8182 0 43.715 0C38.4192 0 34.7009 2.62963 34.7009 6.37037C34.6633 9.14815 37.3675 10.7037 39.3957 11.6296C41.4614 12.5926 42.175 13.1852 42.175 14.037C42.175 15.3333 40.5225 15.9259 38.9826 15.9259C36.8417 15.9259 35.715 15.6296 33.9497 14.9259L33.2736 14.6296L32.5225 18.963C33.7619 19.5185 36.0905 19.963 38.4943 20C44.1281 20 47.7713 17.4074 47.8088 13.4074C47.8464 11.2222 46.4192 9.51852 43.3394 8.14815C41.4614 7.25926 40.3347 6.66667 40.3347 5.74074C40.3347 4.92593 41.3112 4.07407 43.3769 4.07407C45.1422 4.03704 46.3816 4.40741 47.3581 4.81481L47.8464 5.03704L48.5225 0.814816Z" fill="#005098"/>
  <path d="M61.2754 0H57.1774C55.9107 0 54.9421 0.328216 54.3832 1.56814L46.5225 19H52.0734C52.0734 19 52.9676 16.666 53.1911 16.1555C53.7872 16.1555 59.1891 16.1555 59.9715 16.1555C60.1205 16.8119 60.6048 19 60.6048 19H65.5225L61.2754 0ZM54.7558 12.2534C55.2029 11.1593 56.8793 6.92898 56.8793 6.92898C56.8421 6.96545 57.3264 5.83493 57.5872 5.10557L57.9597 6.74664C57.9597 6.74664 58.9656 11.3052 59.1891 12.2534H54.7558Z" fill="#005098"/>
  <path d="M19.8073 0L14.5464 12.9827L13.9786 10.357C12.9946 7.29367 9.92884 3.97505 6.52246 2.33397L11.3292 19H17.0444L25.5225 0H19.8073Z" fill="#005098"/>
  <path d="M9.20165 0H0.597605L0.522461 0.426056C7.24789 2.09155 11.6814 6.15845 13.5225 11L11.6438 1.70423C11.3057 0.426057 10.3664 0.0387324 9.20165 0Z" fill="#F7A600"/>
</svg>
