<svg viewBox="0 0 19 24">
  <path d="M18.064 4.063c-4.423 0-7.81-3.69-7.867-3.752a.936.936 0 0 0-1.393 0C8.77.347 5.374 4.062.936 4.062A.937.937 0 0 0 0 5.001c0 8.24 1.66 15.368 9.098 18.908.254.121.55.121.804 0C17.358 20.361 19 13.208 19 5.001a.937.937 0 0 0-.936-.938zM9.5 22.017c-6.097-3.124-7.529-9.209-7.622-16.123 3.587-.335 6.38-2.5 7.622-3.64 1.242 1.14 4.035 3.305 7.622 3.64-.093 6.916-1.526 13-7.622 16.123zm-.961-9.104l3.81-3.815a.935.935 0 0 1 1.323 0 .939.939 0 0 1 0 1.325L9.2 14.902a.935.935 0 0 1-1.324 0l-2.549-2.553a.939.939 0 0 1 0-1.326.935.935 0 0 1 1.324 0l1.887 1.89z" stroke="transparent"/>
</svg>
