<?xml version="1.0" standalone="no"?>
<!DOCTYPE svg PUBLIC "-//W3C//DTD SVG 20010904//EN"
 "http://www.w3.org/TR/2001/REC-SVG-20010904/DTD/svg10.dtd">
<svg version="1.0" xmlns="http://www.w3.org/2000/svg"
 width="750.000000pt" height="750.000000pt" viewBox="0 0 750.000000 750.000000"
 preserveAspectRatio="xMidYMid meet">
<metadata>
Created by potrace 1.11, written by Peter Selinger 2001-2013
</metadata>
<g transform="translate(0.000000,750.000000) scale(0.100000,-0.100000)"
fill="#000000" stroke="none">
<path d="M2230 7395 c-348 -71 -608 -332 -685 -685 -12 -55 -14 -500 -12
-2975 1 -1600 6 -2923 10 -2940 24 -91 52 -167 82 -227 114 -226 321 -388 572
-450 l88 -21 1470 -2 c1531 -1 1541 -1 1669 41 64 20 177 77 236 117 68 47
170 155 221 233 77 119 118 230 136 374 14 108 9 5764 -5 5835 -35 178 -103
311 -223 440 -131 139 -275 220 -469 260 -95 20 -2993 20 -3090 0z m3045 -344
c176 -42 315 -172 382 -358 17 -45 18 -213 18 -2928 -1 -1584 -4 -2894 -8
-2911 -23 -101 -68 -183 -142 -258 -67 -67 -139 -109 -235 -135 -75 -21 -83
-21 -1530 -18 -800 1 -1468 6 -1485 10 -48 12 -187 84 -220 115 -89 82 -148
186 -168 297 -10 54 -16 436 -8 475 1 3 159 5 352 5 l351 -1 40 -59 c46 -69
56 -79 118 -121 203 -138 493 -60 600 161 93 191 23 419 -162 528 -180 105
-419 57 -542 -112 l-37 -49 -359 0 c-198 0 -360 3 -361 7 -4 28 -3 234 1 240
3 5 56 11 117 14 73 4 125 12 147 22 19 9 63 49 98 88 34 40 65 74 68 77 4 3
69 75 145 160 150 168 196 217 265 290 l45 48 242 -1 c225 0 243 -1 248 -18 9
-28 96 -112 147 -142 67 -39 141 -56 228 -52 87 4 126 16 195 60 68 43 96 71
133 129 99 156 86 355 -34 494 -128 150 -358 187 -530 86 -54 -32 -128 -111
-155 -166 l-21 -43 -281 1 c-342 2 -326 6 -447 -126 -47 -51 -89 -98 -95 -104
-5 -6 -46 -51 -90 -101 -44 -49 -82 -92 -85 -95 -9 -9 -176 -195 -205 -228
-27 -31 -33 -33 -84 -30 l-56 3 0 345 c-1 329 2 368 29 396 10 10 98 106 236
259 30 34 87 96 125 139 73 82 89 99 169 187 l49 53 155 1 155 0 34 -53 c197
-309 657 -237 753 116 11 44 15 149 6 187 -38 160 -139 270 -295 320 -41 13
-74 16 -137 12 -137 -8 -252 -75 -325 -187 l-30 -47 -220 -1 c-274 -2 -248 8
-404 -166 -44 -50 -87 -97 -95 -106 -8 -9 -51 -56 -95 -105 -81 -90 -105 -115
-108 -115 -6 0 0 871 6 876 4 4 219 8 479 8 419 1 476 3 503 18 17 9 118 76
226 150 382 261 609 413 645 434 33 20 51 22 165 21 126 -1 128 -1 139 -26 35
-76 133 -159 226 -192 154 -52 321 -14 432 100 37 38 95 127 93 143 0 2 6 23
13 48 19 65 13 183 -14 250 -74 188 -260 290 -465 258 -96 -16 -210 -91 -266
-177 -18 -28 -35 -51 -38 -52 -3 -1 -82 -2 -176 -3 -93 -1 -181 -6 -195 -10
-14 -5 -65 -37 -115 -71 -49 -34 -180 -123 -290 -197 -110 -74 -271 -183 -358
-241 l-157 -107 -424 0 c-395 0 -424 1 -428 18 -3 14 -2 691 1 715 1 4 104 7
231 7 l230 0 19 -39 c30 -57 113 -143 168 -173 169 -92 377 -59 503 79 61 66
84 110 103 190 57 250 -120 490 -375 507 -78 5 -141 -8 -214 -44 -57 -28 -145
-107 -171 -154 -10 -18 -25 -19 -243 -20 -127 -1 -237 2 -243 6 -13 8 -17 657
-4 753 29 227 216 415 442 443 105 13 2893 6 2950 -7z m-2512 -1312 c64 -29
67 -134 5 -155 -40 -13 -51 -13 -79 1 -56 29 -56 120 0 150 32 17 43 18 74 4z
m1677 -444 c76 -40 60 -143 -26 -160 -25 -5 -37 -1 -62 24 -44 40 -44 89 -1
125 35 30 49 32 89 11z m-1205 -1380 c57 -56 18 -150 -61 -147 -45 2 -72 24
-80 67 -16 85 82 140 141 80z m450 -1039 c17 -41 9 -82 -23 -106 -73 -58 -170
27 -127 110 30 59 125 56 150 -4z m-660 -1321 c49 -48 22 -122 -46 -131 -77
-11 -121 76 -68 132 31 33 82 32 114 -1z"/>
<path d="M3224 6800 c-103 -23 -161 -151 -111 -246 46 -89 147 -119 233 -69
114 67 108 244 -11 302 -31 16 -77 21 -111 13z"/>
<path d="M3658 6799 c-141 -38 -178 -224 -60 -308 42 -29 73 -32 374 -33 296
-1 315 2 362 45 81 76 70 211 -24 273 l-42 28 -292 1 c-160 1 -303 -2 -318 -6z"/>
</g>
</svg>
