<svg viewBox="0 0 60 58">
  <path opacity="0.3" d="M19.3555 21.2667C19.3555 26.1484 22.6821 30.4017 27.424 31.5859L30.0006 36.7334L32.5773 31.5859C38.2869 30.16 41.7587 24.3963 40.3313 18.6929C38.9039 12.9896 33.1337 9.52168 27.424 10.9475C22.6821 12.1317 19.3555 16.385 19.3555 21.2667ZM24.1337 17.8834L27.2063 14.8142L29.9402 17.545L28.9119 18.5721C28.3434 19.14 28.3434 20.0584 28.9119 20.6263L30.7627 22.475C31.3313 23.0429 32.2506 23.0429 32.8192 22.475L33.8474 21.4479L36.5813 24.1788L33.5087 27.26C32.5652 28.2025 31.0289 28.2025 30.0853 27.26L24.1337 21.315C23.1781 20.3604 23.1781 18.8379 24.1337 17.8834Z" fill="#BC191D"/>
  <path d="M12.5781 44.4667H14.0297C15.3604 44.4667 16.4491 43.3913 16.4491 42.05V31.4167C16.4491 30.0875 15.3725 29 14.0297 29H12.5781V44.4667Z" fill="#BC191D" fill-opacity="0.3"/>
  <path opacity="0.3" d="M6.77344 22.2334H12.5799V26.1001H6.77344V22.2334Z" fill="#BC191D"/>
  <path d="M47.4178 44.4667V29H45.9662C44.6356 29 43.5469 30.0754 43.5469 31.4167V42.05C43.5469 43.3792 44.6235 44.4667 45.9662 44.4667H47.4178Z" fill="#BC191D" fill-opacity="0.3"/>
  <path d="M47.418 22.2334H53.2244V26.1001H47.418V22.2334Z" fill="#BC191D" fill-opacity="0.3"/>
  <path d="M26.1289 53.1667H33.8708V57.0334H26.1289V53.1667Z" fill="#BC191D" fill-opacity="0.3"/>
  <path d="M54.1935 25.1333V22.2333C54.1935 21.7017 53.7581 21.2667 53.2258 21.2667H52.2339C51.7258 9.44917 41.9516 0 30 0C18.0484 0 8.27419 9.44917 7.76613 21.2667H6.77419C6.24194 21.2667 5.80645 21.7017 5.80645 22.2333V25.1333C2.60081 25.1333 0 27.7312 0 30.9333V42.5333C0 45.7354 2.60081 48.3333 5.80645 48.3333H6.77419V50.2667C6.77419 53.4688 9.375 56.0667 12.5806 56.0667H25.1613V57.0333C25.1613 57.565 25.5968 58 26.129 58H33.871C34.4032 58 34.8387 57.565 34.8387 57.0333V53.1667C34.8387 52.635 34.4032 52.2 33.871 52.2H26.129C25.5968 52.2 25.1613 52.635 25.1613 53.1667V54.1333H12.5806C10.4395 54.1333 8.70968 52.4054 8.70968 50.2667V48.3333H12.5806C13.1129 48.3333 13.5484 47.8983 13.5484 47.3667V45.4333H14.0323C15.9073 45.4333 17.4194 43.9229 17.4194 42.05V31.4167C17.4194 29.5437 15.9073 28.0333 14.0323 28.0333H13.5484V22.2333C13.5484 13.1708 20.9274 5.8 30 5.8C39.0726 5.8 46.4516 13.1708 46.4516 22.2333V28.0333H45.9677C44.0927 28.0333 42.5806 29.5437 42.5806 31.4167V42.05C42.5806 43.9229 44.0927 45.4333 45.9677 45.4333H46.4516V47.3667C46.4516 47.8983 46.8871 48.3333 47.4194 48.3333H54.1935C57.3992 48.3333 60 45.7354 60 42.5333V30.9333C60 27.7312 57.3992 25.1333 54.1935 25.1333ZM27.0968 54.1333H32.9032V56.0667H27.0968V54.1333ZM46.4516 43.5H45.9677C45.1694 43.5 44.5161 42.8475 44.5161 42.05V31.4167C44.5161 30.6192 45.1694 29.9667 45.9677 29.9667H46.4516V43.5ZM52.2581 23.2V25.1333H48.3871V23.2H52.2581ZM11.6129 46.4H5.80645C3.66532 46.4 1.93548 44.6721 1.93548 42.5333V30.9333C1.93548 28.7946 3.66532 27.0667 5.80645 27.0667H11.6129V46.4ZM11.6129 25.1333H7.74194V23.2H11.6129V25.1333ZM14.0323 29.9667C14.8306 29.9667 15.4839 30.6192 15.4839 31.4167V42.05C15.4839 42.8475 14.8306 43.5 14.0323 43.5H13.5484V29.9667H14.0323ZM30 3.86667C20.1895 3.86667 12.1452 11.5879 11.6371 21.2667H9.70161C10.2097 10.5246 19.125 1.93333 30 1.93333C40.875 1.93333 49.7903 10.5246 50.2984 21.2667H48.3629C47.8548 11.5879 39.8105 3.86667 30 3.86667ZM58.0645 42.5333C58.0645 44.6721 56.3347 46.4 54.1935 46.4H48.3871V27.0667H54.1935C56.3347 27.0667 58.0645 28.7946 58.0645 30.9333V42.5333Z" fill="#BC191D"/>
  <path d="M33.1557 20.7592L32.1275 21.7862C31.934 21.9796 31.6315 21.9796 31.438 21.7862L29.5993 19.9375C29.4057 19.7442 29.4057 19.4421 29.5993 19.2488L30.6275 18.2217C31.0025 17.8471 31.0025 17.2308 30.6275 16.8563L27.8936 14.1254C27.5186 13.7508 26.9017 13.7508 26.5267 14.1254L23.442 17.2067C22.1235 18.5238 22.1235 20.6746 23.442 21.9917L29.3936 27.9367C30.7122 29.2537 32.8654 29.2537 34.184 27.9367L37.2686 24.8554C37.6436 24.4808 37.6436 23.8646 37.2686 23.49L34.5348 20.7592C34.1477 20.3846 33.5428 20.3846 33.1557 20.7592ZM32.817 26.5712C32.2485 27.1392 31.3291 27.1392 30.7606 26.5712L24.809 20.6262C24.2404 20.0583 24.2404 19.14 24.809 18.5721L27.2041 16.1796L28.5711 17.545L28.2324 17.8833C27.2888 18.8258 27.2888 20.3604 28.2324 21.3029L30.0832 23.1517C31.0267 24.0942 32.563 24.0942 33.5065 23.1517L33.8453 22.8133L35.2122 24.1787L32.817 26.5712Z" fill="#BC191D"/>
  <path d="M29.9996 9.66675C23.5883 9.66675 18.3867 14.8626 18.3867 21.2667C18.3867 26.4263 21.798 30.9576 26.7577 32.4076L29.1407 37.1684C29.3827 37.6518 29.9633 37.8451 30.4351 37.6034C30.6166 37.5068 30.7738 37.3617 30.8706 37.1684L33.2537 32.4076C39.4109 30.6192 42.9553 24.1788 41.1528 18.0284C39.7012 13.0742 35.1649 9.66675 29.9996 9.66675ZM32.3464 30.6434C32.0682 30.7159 31.8383 30.8972 31.7174 31.1509L29.9996 34.5705L28.294 31.1509C28.173 30.8972 27.9311 30.7159 27.6649 30.6434C22.4754 29.3505 19.3303 24.1063 20.6246 18.9226C21.919 13.7388 27.169 10.5972 32.3585 11.8901C37.548 13.183 40.6932 18.4272 39.3988 23.6109C38.5278 27.0788 35.8182 29.7855 32.3464 30.6434Z" fill="#BC191D"/>
</svg>
