<svg viewBox="0 0 50 65">
  <g opacity="0.3">
    <path d="M25.0013 57.6611C19.2483 57.6611 14.5846 52.9673 14.5846 47.1772C14.5846 41.3871 19.2483 36.6934 25.0013 36.6934C30.7543 36.6934 35.418 41.3871 35.418 47.1772C35.418 52.9673 30.7543 57.6611 25.0013 57.6611Z" fill="#BC191D"/>
    <path d="M12.4746 6.26392C19.3887 -0.694746 30.5996 -0.694746 37.5267 6.26392C40.847 9.60566 42.709 14.1399 42.709 18.8708V30.403H37.5007V18.8708C37.5007 11.9252 31.9017 6.29013 25.0007 6.29013C18.0996 6.29013 12.5137 11.9252 12.5006 18.8708V30.403H7.29232V18.8708C7.29232 14.1399 9.15429 9.60566 12.4746 6.26392Z" fill="#BC191D"/>
  </g>
  <path d="M25.0007 35.6453C31.3288 35.6453 36.459 40.8086 36.459 47.1775C36.459 53.5465 31.3288 58.7098 25.0007 58.7098C18.6725 58.7098 13.5423 53.5465 13.5423 47.1775C13.5553 40.8086 18.6725 35.6584 25.0007 35.6453ZM25.0007 56.613C30.1829 56.613 34.3757 52.3932 34.3757 47.1775C34.3757 41.9618 30.1829 37.742 25.0007 37.742C19.8184 37.742 15.6256 41.9618 15.6256 47.1775C15.6256 52.3801 19.8314 56.613 25.0007 56.613Z" fill="#BC191D"/>
  <path d="M45.8333 34.5968C45.258 34.5968 44.7917 34.1274 44.7917 33.5484C44.7917 32.9694 45.258 32.5 45.8333 32.5C46.4086 32.5 46.875 32.9694 46.875 33.5484C46.875 34.1274 46.4086 34.5968 45.8333 34.5968Z" fill="#BC191D"/>
  <path d="M45.8333 61.8548C45.258 61.8548 44.7917 61.3855 44.7917 60.8064C44.7917 60.2274 45.258 59.7581 45.8333 59.7581C46.4086 59.7581 46.875 60.2274 46.875 60.8064C46.875 61.3855 46.4086 61.8548 45.8333 61.8548Z" fill="#BC191D"/>
  <path d="M4.16732 61.8548C3.59202 61.8548 3.12565 61.3855 3.12565 60.8064C3.12565 60.2274 3.59202 59.7581 4.16732 59.7581C4.74261 59.7581 5.20898 60.2274 5.20898 60.8064C5.20898 61.3855 4.74261 61.8548 4.16732 61.8548Z" fill="#BC191D"/>
  <path d="M3.64584 29.3548H6.25V18.871C6.25 8.45262 14.6354 0 25 0C35.3385 0 43.75 8.46572 43.75 18.871V29.3548H46.3542C48.3724 29.3548 50 30.9929 50 33.0242V61.3306C50 63.3619 48.3724 65 46.3542 65H3.64584C1.62761 65 0 63.3619 0 61.3306V33.0242C0 30.9929 1.62761 29.3548 3.64584 29.3548ZM41.6667 18.871C41.6667 9.60585 34.2057 2.09677 25 2.09677C15.7943 2.09677 8.33334 9.60585 8.33334 18.871V29.3548H11.4583V18.871C11.4583 11.3488 17.526 5.24194 25 5.24194C32.474 5.24194 38.5417 11.3488 38.5417 18.871V29.3548H41.6667V18.871ZM13.5417 18.871V29.3548H36.4583V18.871C36.4583 12.502 31.3281 7.33871 25 7.33871C18.6719 7.33871 13.5417 12.502 13.5417 18.871ZM2.08334 61.3306C2.08334 62.1956 2.78646 62.9032 3.64584 62.9032H46.3542C47.2135 62.9032 47.9167 62.1956 47.9167 61.3306V33.0242C47.9167 32.1593 47.2135 31.4516 46.3542 31.4516H3.64584C2.78646 31.4516 2.08334 32.1593 2.08334 33.0242V61.3306Z" fill="#BC191D"/>
  <path d="M4.16732 34.5968C3.59202 34.5968 3.12565 34.1274 3.12565 33.5484C3.12565 32.9694 3.59202 32.5 4.16732 32.5C4.74261 32.5 5.20898 32.9694 5.20898 33.5484C5.20898 34.1274 4.74261 34.5968 4.16732 34.5968Z" fill="#BC191D"/>
  <path d="M24.2754 55V53.2301C22.6691 53.0315 21.244 52.4766 20 51.5654L21.413 49.5678C22.4517 50.3271 23.436 50.8002 24.3659 50.9871V48.2009C23.0133 47.8505 22.0229 47.3949 21.3949 46.8341C20.779 46.2617 20.471 45.4673 20.471 44.4509C20.471 43.493 20.8152 42.7103 21.5036 42.1028C22.192 41.4953 23.1159 41.1332 24.2754 41.0164V40H26.1594V41.0514C27.3792 41.215 28.5024 41.6472 29.529 42.3481L28.3152 44.3984C27.5423 43.896 26.7935 43.5514 26.0688 43.3645V46.0105C27.4577 46.3727 28.4601 46.8516 29.0761 47.4474C29.692 48.0315 30 48.8201 30 49.8131C30 50.771 29.6498 51.5537 28.9493 52.1612C28.2609 52.7687 27.3309 53.1367 26.1594 53.2652V55H24.2754ZM24.3659 45.5724V43.2068C23.5326 43.3119 23.1159 43.6857 23.1159 44.3283C23.1159 44.6086 23.2005 44.8481 23.3696 45.0467C23.5507 45.2336 23.8829 45.4089 24.3659 45.5724ZM26.0688 51.0748C26.9263 50.9463 27.3551 50.5607 27.3551 49.9182C27.3551 49.6145 27.2585 49.3692 27.0652 49.1822C26.8841 48.9836 26.5519 48.7967 26.0688 48.6215V51.0748Z" fill="#BC191D"/>
</svg>
