<svg viewBox="0 0 60 60">
  <g clip-path="url(#clip0)">
    <path d="M23.4921 24.8276L15.3266 10.6914L10.127 13.697L16.5491 24.8276H23.4921Z" fill="#BC191D" fill-opacity="0.3"/>
    <path d="M5.00745 58.8908H36.0354L36.1753 58.8106L36.0354 58.8908H49.0894C51.3025 58.8908 53.0969 57.0965 53.0969 54.8834V52.8796H1V54.8834C1 57.0965 2.79435 58.8908 5.00745 58.8908Z" fill="#BC191D" fill-opacity="0.3"/>
    <path d="M53.0969 49.0424V46.8684H1V52.8796H53.0969V49.0424Z" fill="white"/>
    <path d="M49.0894 24.8276H5.00745C2.79435 24.8276 1 26.622 1 28.8351V46.8686H53.0969V28.8351C53.0969 26.622 51.3025 24.8276 49.0894 24.8276Z" fill="#BC191D" fill-opacity="0.3"/>
    <path d="M18.0341 29.8372C16.7211 29.8381 15.4614 30.3562 14.5276 31.2788C12.564 29.3436 9.40526 29.3587 7.46072 31.3131C5.5157 33.2674 5.5157 36.4256 7.46072 38.3799C9.40526 40.3342 12.564 40.3494 14.5276 38.4142C16.1399 40.0036 18.6177 40.3137 20.5725 39.1709C22.5268 38.0282 23.4719 35.7168 22.8776 33.532C22.2837 31.3473 20.2981 29.8328 18.0341 29.8372ZM11.0211 37.8521C9.36123 37.8521 8.01546 36.5063 8.01546 34.8465C8.01546 33.1867 9.36123 31.8409 11.0211 31.8409C12.6809 31.8409 14.0266 33.1867 14.0266 34.8465C14.0266 36.5063 12.6809 37.8521 11.0211 37.8521ZM18.0341 37.8521C17.1061 37.8457 16.2339 37.4064 15.6767 36.6638C16.1483 35.4981 16.1483 34.1949 15.6767 33.0291C16.2339 32.287 17.1061 31.8473 18.0341 31.8409C19.6939 31.8409 21.0397 33.1867 21.0397 34.8465C21.0397 36.5063 19.6939 37.8521 18.0341 37.8521Z" fill="#BC191D"/>
    <path d="M59.3365 40.8075L54.1007 31.7403V28.835C54.0923 26.257 52.1248 24.108 49.557 23.8727L37.2945 2.63347C35.9018 0.246218 32.8438 -0.569753 30.4468 0.805852L7.89653 13.8301C5.49851 15.2106 4.67422 18.2744 6.05521 20.6719L7.88087 23.8257H5.00932C2.24392 23.8291 0.00342435 26.0696 0 28.835V54.8835C0.00342435 57.6489 2.24392 59.8894 5.00932 59.8928H49.0913C51.8567 59.8894 54.0972 57.6489 54.1007 54.8835V49.6198L57.4981 47.6552C59.8878 46.2649 60.7087 43.2075 59.3365 40.8075ZM31.4496 2.54199C32.8874 1.71673 34.7218 2.20641 35.5574 3.63827L47.2158 23.8257H35.1093C35.644 23.723 36.1576 23.5327 36.6302 23.2627C38.379 22.2544 39.352 20.2947 39.0981 18.2925C38.8438 16.2897 37.4124 14.6353 35.4669 14.0957C36.1547 11.4277 34.5579 8.70482 31.8938 8.00234C29.2297 7.29938 26.498 8.87995 25.7799 11.5402C25.0618 14.1999 26.6267 16.9408 29.2825 17.6741C28.9327 19.0067 29.1509 20.4244 29.8852 21.5901C30.619 22.7559 31.8033 23.565 33.1559 23.8257H24.0716L16.699 11.0608L31.4496 2.54199ZM28.016 14.354C27.1878 12.9163 27.6814 11.0789 29.1191 10.2502C30.5564 9.421 32.3938 9.9141 33.2234 11.3513C34.0531 12.7886 33.561 14.626 32.1237 15.4561C31.433 15.8553 30.6121 15.9634 29.8417 15.7565C29.0712 15.5501 28.4142 15.0452 28.016 14.354ZM31.3684 17.8013C32.6291 17.6145 33.7694 16.9501 34.5545 15.9463C35.4708 16.0671 36.277 16.6141 36.7285 17.4207C37.5582 18.8595 37.0651 20.6983 35.6263 21.5285C34.1876 22.3586 32.3488 21.865 31.5186 20.4263C31.0637 19.6221 31.0084 18.6525 31.3684 17.8013ZM17.132 23.8257L11.4994 14.0644L14.9658 12.0607L21.7583 23.8257H17.132ZM7.79037 19.6691C6.96315 18.2318 7.45625 16.3954 8.89252 15.5662L9.75839 15.0653L14.8156 23.8257H10.1957L7.79037 19.6691ZM52.0969 54.8835C52.0969 56.5433 50.7512 57.8891 49.0913 57.8891H5.00932C3.34949 57.8891 2.00373 56.5433 2.00373 54.8835V53.8816H52.0969V54.8835ZM52.0969 51.8779H2.00373V47.8704H52.0969V51.8779ZM52.0969 45.8667H2.00373V28.835C2.00373 27.1752 3.34949 25.8294 5.00932 25.8294H49.0913C50.7512 25.8294 52.0969 27.1752 52.0969 28.835V45.8667ZM56.4952 45.922L54.1007 47.3064V35.7478L57.5993 41.8064C58.4236 43.2486 57.9305 45.0855 56.4952 45.922Z" fill="#BC191D"/>
  </g>
  <defs>
    <clipPath id="clip0">
      <rect width="60" height="60" fill="white"/>
    </clipPath>
  </defs>
</svg>
