<svg viewBox="0 0 80 52">
  <path d="M16.3886 6.1148C15.8403 5.86436 15.1408 6.03654 14.8571 6.5061L14.1387 7.61739C13.8362 8.0713 14.0441 8.65042 14.6114 8.8852C15.1597 9.13564 15.8592 8.96346 16.1429 8.4939L16.8613 7.38261C17.1638 6.9287 16.9559 6.34958 16.3886 6.1148Z" fill="#BC191D"/>
  <path d="M14.49 10.1134C14.0233 9.86606 13.428 10.0361 13.1866 10.4998L8.11801 19.6347C7.86056 20.0829 8.03756 20.6548 8.52028 20.8866C8.98692 21.1339 9.58228 20.9639 9.82364 20.5002L14.8922 11.3654C15.1336 10.9171 14.9566 10.3607 14.49 10.1134Z" fill="#BC191D"/>
  <path d="M79.8888 24.1556L68.9262 0.552326C68.7053 0.0738816 68.1533 -0.133444 67.68 0.0898298L51.6383 7.45787C50.5026 7.93632 49.9506 9.24407 50.4238 10.3923C50.4395 10.4242 50.4553 10.4721 50.4711 10.504L50.9758 11.5725L50.7077 11.6841C49.083 12.019 47.9473 11.9712 46.2595 11.5087L42.0638 10.3126C40.8492 9.96173 39.5558 9.99363 38.3412 10.3764L34.3032 11.6682C33.4829 11.9234 32.7258 12.354 32.0791 12.9121C30.9276 12.5613 29.7131 12.4496 28.53 12.5772L28.9402 11.7958C29.4922 10.7432 29.1294 9.43544 28.1199 8.81347L28.1042 8.79752L13.4821 0.329052C13.0246 0.0579335 12.4568 0.217415 12.1886 0.679911C12.1886 0.695859 12.1728 0.695859 12.1728 0.711807L0.106068 24.0758C-0.130535 24.5383 0.0429738 25.0965 0.484634 25.3517L15.0279 33.5809C15.3591 33.7723 15.7377 33.868 16.1162 33.868C16.3371 33.868 16.5421 33.8361 16.7472 33.7723C17.3308 33.5969 17.8198 33.1982 18.0879 32.6559L18.2299 32.4008L19.6495 33.8521L17.5359 36.8184C16.4317 38.3654 16.7787 40.5184 18.3088 41.6347L18.64 41.874C19.2236 42.3046 19.9177 42.5278 20.6275 42.5278C20.8325 42.5278 21.0534 42.5119 21.2584 42.4641C21.2584 42.4959 21.2584 42.5119 21.2742 42.5438C21.4162 43.4528 21.9051 44.2502 22.6465 44.7925L22.9777 45.0317C23.5614 45.4623 24.2554 45.6856 24.9652 45.6856C25.1703 45.6856 25.3911 45.6696 25.5962 45.6218C25.5962 45.6537 25.5962 45.6696 25.6119 45.7015C25.7539 46.6106 26.2429 47.408 26.9842 47.9502L27.3155 48.1894C27.8991 48.62 28.5931 48.8433 29.3029 48.8433C29.508 48.8433 29.7288 48.8274 29.9339 48.7795C30.0601 49.7205 30.5648 50.5498 31.322 51.1079L31.6532 51.3472C33.1832 52.4635 35.3127 52.1127 36.4168 50.5657L37.3948 49.2101L38.9564 50.47C40.5811 51.8735 43.026 51.6821 44.4298 50.0394C44.9503 49.4174 45.2816 48.6519 45.3447 47.8226C47.3637 48.5243 49.572 47.4399 50.266 45.3985C50.3764 45.0955 50.4395 44.7765 50.4711 44.4576C52.4901 45.1593 54.6984 44.0748 55.3924 42.0335C55.4871 41.7783 55.5502 41.5072 55.5817 41.2201C56.0707 41.4434 56.5912 41.555 57.1275 41.555C57.2222 41.555 57.3168 41.555 57.4272 41.5391C58.4525 41.4593 59.4147 40.9809 60.093 40.1835L60.1403 40.1197C60.8343 39.3223 61.1656 38.2537 61.0394 37.2012C60.929 36.2124 60.44 35.3033 59.6828 34.6654L58.7364 33.8361C59.4305 33.3577 60.0456 32.7835 60.5819 32.1456C60.9763 32.8154 61.7019 33.2301 62.4748 33.2301C62.7745 33.2301 63.0899 33.1663 63.3739 33.0387L63.4054 33.0228L79.4471 25.4314C79.7942 25.2719 80.015 24.9051 79.9992 24.5224C79.9677 24.4108 79.9361 24.2832 79.8888 24.1556ZM16.5264 31.5555C16.3844 31.8426 16.0216 31.9542 15.7535 31.7947H15.7377L2.20395 24.1396L13.3874 2.498L26.9211 10.3604C27.1893 10.5199 27.2839 10.8548 27.142 11.1259L16.5264 31.5555ZM21.8736 39.9761C21.3846 40.6619 20.4382 40.8214 19.7442 40.327L19.4129 40.0878C18.7347 39.5934 18.5769 38.6365 19.0659 37.9348L23.3405 31.9383C23.8295 31.2525 24.7759 31.093 25.47 31.5874L25.8012 31.8266C26.4795 32.321 26.6372 33.2779 26.1482 33.9796L21.8736 39.9761ZM26.2113 43.1339C25.7223 43.8196 24.7759 43.9791 24.0819 43.4847L23.7507 43.2455C23.0724 42.7511 22.9146 41.7942 23.4036 41.0925L26.5741 36.643C27.0631 35.9572 28.0095 35.7977 28.7036 36.2921L29.0348 36.5313C29.7131 37.0257 29.8708 37.9826 29.3818 38.6843L26.2113 43.1339ZM30.5491 46.3076C30.0601 46.9933 29.1137 47.1528 28.4196 46.6584L28.0884 46.4192C27.4101 45.9248 27.2524 44.9679 27.7414 44.2662L29.997 41.0925C30.486 40.4067 31.4324 40.2473 32.1264 40.7416L32.4577 40.9809C33.1359 41.4753 33.2937 42.4322 32.8047 43.1339L30.5491 46.3076ZM36.2433 47.5675L34.8868 49.4653C34.3978 50.1511 33.4514 50.3105 32.7574 49.8161L32.4261 49.5769C31.7479 49.0825 31.5901 48.1256 32.0791 47.4239L33.4356 45.5261C33.9246 44.8403 34.871 44.6808 35.5651 45.1752L35.8963 45.4145C36.5746 45.9088 36.7323 46.8817 36.2433 47.5675ZM57.2064 32.5284L47.9158 23.6771C47.6792 23.4379 47.3006 23.4379 47.064 23.6771C46.9536 23.7888 46.8905 23.9483 46.8905 24.1077C46.9378 24.8892 47.2375 25.6388 47.758 26.2288L58.4841 36.2124C58.8784 36.5632 59.115 37.0576 59.1465 37.5839C59.1623 38.0943 58.9888 38.5886 58.6418 38.9714L58.626 38.9874C58.279 39.402 57.79 39.6412 57.2537 39.6891C56.7332 39.7369 56.2127 39.5615 55.8025 39.2106L50.1083 34.2348C49.714 33.8839 49.1303 33.8999 48.7675 34.2827C48.4205 34.6654 48.4363 35.2714 48.8306 35.6382L48.8464 35.6542L48.8622 35.6701L53.0106 39.2904C53.8466 40.024 53.9255 41.2839 53.2157 42.1291C52.4901 42.9744 51.244 43.0541 50.408 42.3365L46.2595 38.7162C45.8652 38.3654 45.2658 38.3973 44.9188 38.796C44.5718 39.1947 44.6033 39.8007 44.9976 40.1516C45.0134 40.1516 45.0134 40.1675 45.0292 40.1675L47.9 42.6714C48.736 43.389 48.8306 44.6649 48.1208 45.5101C47.411 46.3554 46.1491 46.4511 45.3131 45.7334L45.2973 45.7175L42.4581 43.2455C42.0638 42.8947 41.4801 42.9106 41.1174 43.2934C40.7703 43.6761 40.7861 44.2821 41.1804 44.6489L41.1962 44.6649L42.7736 46.0364C43.6096 46.7701 43.6884 48.03 42.9786 48.8752C42.2688 49.7205 41.0069 49.8002 40.1709 49.0825L38.3097 47.5834C38.6567 46.2119 38.1361 44.7765 37.0005 43.9472L36.6692 43.708C36.1487 43.3253 35.5493 43.1179 34.9026 43.0701C35.2023 41.7304 34.666 40.327 33.5618 39.5136L33.2306 39.2744C32.71 38.8917 32.1106 38.6843 31.4639 38.6365C31.7636 37.2969 31.2431 35.8934 30.1232 35.0801L29.7919 34.8408C29.3029 34.49 28.7509 34.2667 28.1515 34.2189C28.5931 32.7995 28.0884 31.2525 26.8896 30.3754L26.5583 30.1361C25.0283 29.0198 22.8989 29.3706 21.7947 30.9176L20.7537 32.3848L19.129 30.7422L27.3943 14.8419C28.4669 14.5548 29.5869 14.491 30.691 14.6664C30.5333 14.9376 30.3913 15.2246 30.2651 15.5117L26.9369 24.7297C26.7792 25.1922 27.0158 25.7025 27.4574 25.8939L27.7256 26.0215C29.6815 26.9306 31.9845 26.7551 33.7826 25.5431C35.3284 24.5064 36.338 22.8159 36.5115 20.95C36.5272 20.7905 36.5588 20.6151 36.6061 20.4556C36.7481 19.9612 37.0951 19.0362 37.7734 18.7332C37.9469 18.6535 38.1519 18.6375 38.3412 18.7013L39.887 19.1479C40.5495 19.3392 41.1489 19.6901 41.6379 20.1845L43.9881 22.5289C44.5402 23.0871 45.0923 23.1508 45.4709 22.8478C45.881 22.5289 45.9598 21.9228 45.6444 21.5082C45.6128 21.4763 45.597 21.4444 45.5655 21.4125L42.9786 18.8289C42.2688 18.1112 41.3697 17.5849 40.4075 17.3138L38.5147 16.7716C38.4358 16.7397 38.3412 16.7397 38.2466 16.7397C37.0162 16.7397 35.9594 17.4414 35.2811 18.7173C35.013 19.2117 34.8237 19.7539 34.6975 20.3121C34.6817 20.4078 34.666 20.5194 34.6502 20.6151L34.6344 20.7905C34.5082 22.0823 33.8142 23.2625 32.7258 23.9802C31.6217 24.6978 30.2651 24.8892 29.019 24.4905L32.0318 16.2612C32.5523 15.0013 33.5934 14.0445 34.8868 13.6298L38.9248 12.338C39.7766 12.0669 40.6915 12.0509 41.559 12.2902L45.7548 13.4863C47.7738 14.0604 49.1934 14.1083 51.1967 13.6777L51.7961 13.4384L59.6671 30.3275C59.0519 31.1887 58.2001 31.9861 57.2064 32.5284ZM63.1846 31.0292C62.948 31.1409 62.6956 31.1568 62.459 31.0611C62.2224 30.9814 62.0331 30.79 61.9227 30.5667L52.4901 10.3764C52.3481 10.0574 52.3481 9.69061 52.5216 9.3876C52.6478 9.18027 52.8213 9.02079 53.0422 8.9251L67.617 2.21093L77.7751 24.1237L63.1846 31.0292Z" fill="#BC191D"/>
</svg>
