<svg xmlns="http://www.w3.org/2000/svg" xmlns:xlink="http://www.w3.org/1999/xlink"><defs><clipPath id="clip0"><path fill="#fff" d="M0 0h60v60H0z"/></clipPath></defs><symbol id="icon-service-price" viewBox="0 0 50 65"><g opacity=".3" fill="#BC191D"><path d="M25.001 57.661c-5.753 0-10.416-4.694-10.416-10.484S19.248 36.693 25 36.693s10.417 4.694 10.417 10.484-4.664 10.484-10.417 10.484zM12.475 6.264c6.914-6.959 18.125-6.959 25.052 0a17.882 17.882 0 015.182 12.607v11.532h-5.208V18.871c0-6.946-5.6-12.58-12.5-12.58-6.901 0-12.487 5.634-12.5 12.58v11.532H7.292V18.871c0-4.731 1.862-9.265 5.183-12.607z"/></g><path d="M25 35.645c6.329 0 11.459 5.164 11.459 11.532 0 6.37-5.13 11.533-11.458 11.533-6.329 0-11.459-5.163-11.459-11.532.013-6.37 5.13-11.52 11.459-11.533zm0 20.968c5.183 0 9.376-4.22 9.376-9.435 0-5.216-4.193-9.436-9.375-9.436-5.183 0-9.375 4.22-9.375 9.436 0 5.202 4.205 9.435 9.375 9.435zM45.833 34.597c-.575 0-1.041-.47-1.041-1.049s.466-1.048 1.041-1.048c.576 0 1.042.47 1.042 1.048 0 .58-.466 1.049-1.042 1.049zM45.833 61.855c-.575 0-1.041-.47-1.041-1.049s.466-1.048 1.041-1.048c.576 0 1.042.47 1.042 1.048 0 .58-.466 1.049-1.042 1.049zM4.167 61.855c-.575 0-1.041-.47-1.041-1.049s.466-1.048 1.041-1.048c.576 0 1.042.47 1.042 1.048 0 .58-.466 1.049-1.042 1.049z" fill="#BC191D"/><path d="M3.646 29.355H6.25V18.87C6.25 8.453 14.635 0 25 0c10.339 0 18.75 8.466 18.75 18.871v10.484h2.604A3.652 3.652 0 0150 33.025V61.33A3.652 3.652 0 0146.354 65H3.646A3.652 3.652 0 010 61.33V33.025a3.652 3.652 0 013.646-3.67zm38.02-10.484c0-9.265-7.46-16.774-16.666-16.774S8.333 9.606 8.333 18.87v10.484h3.125V18.87c0-7.522 6.068-13.63 13.542-13.63s13.542 6.108 13.542 13.63v10.484h3.125V18.87zm-28.124 0v10.484h22.916V18.87c0-6.369-5.13-11.532-11.458-11.532S13.542 12.502 13.542 18.87zM2.083 61.331c0 .865.703 1.572 1.563 1.572h42.708c.86 0 1.563-.707 1.563-1.572V33.024c0-.865-.703-1.572-1.563-1.572H3.646c-.86 0-1.563.707-1.563 1.572v28.307z" fill="#BC191D"/><path d="M4.167 34.597c-.575 0-1.041-.47-1.041-1.049S3.592 32.5 4.167 32.5c.576 0 1.042.47 1.042 1.048 0 .58-.466 1.049-1.042 1.049zM24.275 55v-1.77c-1.606-.198-3.031-.753-4.275-1.665l1.413-1.997c1.039.76 2.023 1.232 2.953 1.42V48.2c-1.353-.35-2.343-.806-2.971-1.367-.616-.572-.924-1.367-.924-2.383 0-.958.344-1.74 1.033-2.348.688-.608 1.612-.97 2.771-1.087V40h1.884v1.051a7.719 7.719 0 013.37 1.297l-1.214 2.05c-.773-.502-1.521-.847-2.246-1.034v2.647c1.389.362 2.391.84 3.007 1.436.616.584.924 1.373.924 2.366 0 .958-.35 1.74-1.05 2.348-.69.608-1.62.976-2.79 1.104V55h-1.885zm.09-9.428v-2.365c-.832.105-1.25.479-1.25 1.121 0 .28.086.52.255.719.18.187.513.362.996.525zm1.704 5.503c.857-.129 1.286-.514 1.286-1.157 0-.303-.096-.549-.29-.736-.18-.198-.513-.385-.996-.56v2.453z" fill="#BC191D"/></symbol><symbol id="icon-service-consultation" viewBox="0 0 60 58"><path opacity=".3" d="M19.355 21.267a10.64 10.64 0 008.069 10.319l2.577 5.147 2.576-5.147c5.71-1.426 9.182-7.19 7.754-12.893-1.427-5.703-7.197-9.171-12.907-7.746a10.64 10.64 0 00-8.069 10.32zm4.779-3.384l3.072-3.069 2.734 2.731-1.028 1.027a1.45 1.45 0 000 2.054l1.85 1.849a1.454 1.454 0 002.057 0l1.028-1.027 2.734 2.73-3.072 3.082a2.426 2.426 0 01-3.424 0l-5.951-5.945a2.412 2.412 0 010-3.432z" fill="#BC191D"/><path d="M12.578 44.467h1.452c1.33 0 2.42-1.076 2.42-2.417V31.417A2.417 2.417 0 0014.03 29h-1.452v15.467z" fill="#BC191D" fill-opacity=".3"/><path opacity=".3" d="M6.773 22.233h5.807V26.1H6.773v-3.867z" fill="#BC191D"/><path d="M47.418 44.467V29h-1.452a2.417 2.417 0 00-2.42 2.417V42.05a2.417 2.417 0 002.42 2.417h1.452zM47.418 22.233h5.806V26.1h-5.806v-3.867zM26.129 53.167h7.742v3.866h-7.742v-3.866z" fill="#BC191D" fill-opacity=".3"/><path d="M54.194 25.133v-2.9a.97.97 0 00-.968-.966h-.992C51.726 9.449 41.952 0 30 0 18.048 0 8.274 9.45 7.766 21.267h-.992a.97.97 0 00-.968.966v2.9A5.805 5.805 0 000 30.933v11.6c0 3.202 2.6 5.8 5.806 5.8h.968v1.934c0 3.202 2.601 5.8 5.807 5.8h12.58v.966a.97.97 0 00.968.967h7.742a.97.97 0 00.968-.967v-3.866a.97.97 0 00-.968-.967h-7.742a.97.97 0 00-.968.967v.966h-12.58a3.865 3.865 0 01-3.871-3.866v-1.934h3.87a.97.97 0 00.968-.966v-1.934h.484a3.38 3.38 0 003.387-3.383V31.417a3.38 3.38 0 00-3.387-3.384h-.484v-5.8C13.548 13.171 20.928 5.8 30 5.8c9.073 0 16.452 7.37 16.452 16.433v5.8h-.484a3.38 3.38 0 00-3.387 3.384V42.05a3.38 3.38 0 003.387 3.383h.484v1.934a.97.97 0 00.967.966h6.775a5.805 5.805 0 005.806-5.8v-11.6c0-3.202-2.6-5.8-5.806-5.8zm-27.097 29h5.806v1.934h-5.806v-1.934zM46.452 43.5h-.484a1.455 1.455 0 01-1.452-1.45V31.417c0-.798.653-1.45 1.452-1.45h.484V43.5zm5.806-20.3v1.933h-3.87V23.2h3.87zM11.613 46.4H5.806a3.865 3.865 0 01-3.87-3.867v-11.6a3.865 3.865 0 013.87-3.866h5.807V46.4zm0-21.267H7.742V23.2h3.87v1.933zm2.42 4.834c.798 0 1.45.652 1.45 1.45V42.05c0 .797-.652 1.45-1.45 1.45h-.485V29.967h.484zM30 3.867c-9.81 0-17.855 7.72-18.363 17.4H9.702C10.21 10.525 19.125 1.933 30 1.933c10.875 0 19.79 8.592 20.298 19.334h-1.935c-.508-9.68-8.553-17.4-18.363-17.4zm28.065 38.666a3.865 3.865 0 01-3.871 3.867h-5.807V27.067h5.806a3.865 3.865 0 013.872 3.866v11.6z" fill="#BC191D"/><path d="M33.156 20.76l-1.029 1.026a.482.482 0 01-.689 0l-1.839-1.849a.48.48 0 010-.688l1.029-1.027a.97.97 0 000-1.366l-2.734-2.73a.972.972 0 00-1.367 0l-3.085 3.08a3.389 3.389 0 000 4.786l5.952 5.945a3.398 3.398 0 004.79 0l3.085-3.082a.97.97 0 000-1.365l-2.734-2.73a.987.987 0 00-1.38 0zm-.339 5.811a1.454 1.454 0 01-2.056 0l-5.952-5.945a1.45 1.45 0 010-2.054l2.395-2.392 1.367 1.365-.339.338a2.42 2.42 0 000 3.42l1.851 1.849c.944.942 2.48.942 3.424 0l.338-.339 1.367 1.366-2.395 2.392z" fill="#BC191D"/><path d="M30 9.667c-6.412 0-11.613 5.196-11.613 11.6 0 5.16 3.411 9.69 8.37 11.14l2.384 4.761a.96.96 0 001.294.435c.182-.096.339-.241.436-.435l2.383-4.76c6.157-1.789 9.701-8.23 7.899-14.38A11.622 11.622 0 0030 9.667zm2.346 20.976a.953.953 0 00-.629.508L30 34.57l-1.706-3.42a.981.981 0 00-.63-.508 9.659 9.659 0 01-7.04-11.72c1.295-5.184 6.545-8.326 11.735-7.033a9.659 9.659 0 017.04 11.72 9.664 9.664 0 01-7.053 7.033z" fill="#BC191D"/></symbol><symbol id="icon-service-cooperation" viewBox="0 0 80 52"><path d="M16.389 6.115c-.549-.25-1.248-.078-1.532.391l-.718 1.111c-.303.454-.095 1.033.472 1.268.549.25 1.248.078 1.532-.391l.718-1.111c.303-.454.095-1.033-.472-1.268zM14.49 10.113c-.467-.247-1.062-.077-1.303.387l-5.069 9.135a.892.892 0 00.402 1.252c.467.247 1.062.077 1.304-.387l5.068-9.135c.242-.448.065-1.004-.402-1.252z" fill="#BC191D"/><path d="M79.889 24.156L68.926.552A.93.93 0 0067.68.09L51.638 7.458a2.256 2.256 0 00-1.214 2.934c.016.032.031.08.047.112l.505 1.069-.268.111c-1.625.335-2.76.287-4.448-.175l-4.196-1.196a6.437 6.437 0 00-3.723.063l-4.038 1.292a6.266 6.266 0 00-2.224 1.244 8.929 8.929 0 00-3.549-.335l.41-.781a2.273 2.273 0 00-.82-2.983l-.016-.015L13.482.329a.932.932 0 00-1.293.35c0 .017-.016.017-.016.033L.106 24.076a.965.965 0 00.379 1.276l14.543 8.229a2.179 2.179 0 001.72.191 2.188 2.188 0 001.34-1.116l.142-.255 1.42 1.451-2.114 2.966a3.472 3.472 0 00.773 4.817l.331.239c.584.43 1.278.654 1.988.654.204 0 .425-.016.63-.064 0 .032 0 .048.016.08.142.909.631 1.706 1.372 2.248l.332.24c.583.43 1.277.654 1.987.654.205 0 .426-.016.631-.064 0 .032 0 .048.016.08.142.909.63 1.706 1.372 2.248l.331.24c.584.43 1.278.653 1.988.653.205 0 .426-.016.63-.064.127.941.632 1.77 1.389 2.329l.331.24a3.386 3.386 0 004.764-.782l.978-1.356 1.561 1.26a3.863 3.863 0 005.474-.43c.52-.623.852-1.388.915-2.217 2.019.701 4.227-.383 4.921-2.425a3.86 3.86 0 00.205-.94c2.02.701 4.227-.383 4.921-2.425.095-.255.158-.526.19-.813.489.223 1.01.335 1.545.335.095 0 .19 0 .3-.016a3.89 3.89 0 002.666-1.355l.047-.064a3.78 3.78 0 00.9-2.919 3.885 3.885 0 00-1.357-2.536l-.947-.829a9.354 9.354 0 001.846-1.69 2.206 2.206 0 001.893 1.084c.3 0 .615-.064.899-.191l.031-.016 16.042-7.592a.965.965 0 00.552-.909c-.031-.111-.063-.239-.11-.366zm-63.363 7.4a.557.557 0 01-.772.239h-.016L2.204 24.14 13.387 2.498l13.534 7.862c.268.16.363.495.221.766l-10.616 20.43zm5.348 8.42a1.52 1.52 0 01-2.13.351l-.331-.24a1.56 1.56 0 01-.347-2.152l4.274-5.997a1.52 1.52 0 012.13-.35l.331.239a1.56 1.56 0 01.347 2.153l-4.274 5.996zm4.337 3.158a1.52 1.52 0 01-2.13.35l-.33-.239a1.56 1.56 0 01-.347-2.152l3.17-4.45a1.52 1.52 0 012.13-.35l.33.238a1.56 1.56 0 01.348 2.153l-3.17 4.45zm4.338 3.174a1.52 1.52 0 01-2.13.35l-.33-.239a1.56 1.56 0 01-.348-2.153l2.256-3.173a1.52 1.52 0 012.13-.351l.33.239a1.56 1.56 0 01.348 2.153l-2.256 3.174zm5.694 1.26l-1.356 1.897a1.52 1.52 0 01-2.13.351l-.33-.24a1.56 1.56 0 01-.348-2.152l1.357-1.898a1.52 1.52 0 012.13-.35l.33.238c.679.495.836 1.468.347 2.154zm20.963-15.04l-9.29-8.85a.595.595 0 00-.852 0 .62.62 0 00-.173.43c.047.781.346 1.53.867 2.12l10.726 9.984c.394.351.631.846.663 1.372a1.962 1.962 0 01-.505 1.387l-.016.016a1.996 1.996 0 01-1.372.702 1.961 1.961 0 01-1.451-.478l-5.695-4.976a.955.955 0 00-1.34.048.967.967 0 00.063 1.355l.015.016.016.016 4.149 3.62c.836.734.914 1.994.205 2.84a1.98 1.98 0 01-2.808.206l-4.148-3.62a.941.941 0 00-1.341.08.967.967 0 00.079 1.356c.015 0 .015.015.031.015l2.871 2.504c.836.718.93 1.994.22 2.84a1.98 1.98 0 01-2.807.222l-.016-.015-2.839-2.473a.955.955 0 00-1.34.048.967.967 0 00.062 1.356l.016.016 1.578 1.371c.836.734.914 1.994.205 2.84-.71.845-1.972.924-2.808.207l-1.861-1.5A3.45 3.45 0 0037 43.947l-.33-.239a3.353 3.353 0 00-1.767-.638 3.493 3.493 0 00-1.341-3.556l-.331-.24a3.354 3.354 0 00-1.767-.638c.3-1.34-.22-2.743-1.34-3.556l-.332-.24a3.242 3.242 0 00-1.64-.621 3.481 3.481 0 00-1.262-3.844l-.332-.239a3.386 3.386 0 00-4.763.782l-1.041 1.467-1.625-1.643 8.265-15.9a7.925 7.925 0 013.297-.176 8.47 8.47 0 00-.426.846l-3.328 9.218a.947.947 0 00.52 1.164l.269.128a6.184 6.184 0 006.057-.479 6.235 6.235 0 002.728-4.593c.016-.16.048-.335.095-.494.142-.495.49-1.42 1.167-1.723a.775.775 0 01.568-.032l1.546.447a4.017 4.017 0 011.75 1.037l2.351 2.344c.552.558 1.104.622 1.483.319a.968.968 0 00.173-1.34c-.031-.032-.047-.064-.078-.095l-2.587-2.584a5.884 5.884 0 00-2.572-1.515l-1.892-.542c-.08-.032-.174-.032-.268-.032-1.23 0-2.288.701-2.966 1.977a6.224 6.224 0 00-.584 1.595c-.015.096-.031.207-.047.303l-.016.176a4.32 4.32 0 01-1.908 3.19 4.358 4.358 0 01-3.707.51l3.013-8.23a4.602 4.602 0 012.855-2.631l4.038-1.292a4.627 4.627 0 012.634-.048l4.196 1.196c2.019.574 3.438.622 5.442.192l.6-.24 7.87 16.89a7.504 7.504 0 01-2.46 2.2zm5.979-1.499a.887.887 0 01-.726.032.964.964 0 01-.536-.494l-9.433-20.19a1.092 1.092 0 01.032-.99c.126-.207.3-.366.52-.462l14.575-6.714 10.158 21.913-14.59 6.905z" fill="#BC191D"/></symbol><symbol id="icon-service-pay" viewBox="0 0 60 60"><g clip-path="url(#clip0)"><path d="M23.492 24.828L15.327 10.69l-5.2 3.006 6.422 11.13h6.943zM5.007 58.89h31.028l.14-.08-.14.08H49.09a4.008 4.008 0 004.008-4.007V52.88H1v2.003a4.008 4.008 0 004.007 4.008z" fill="#BC191D" fill-opacity=".3"/><path d="M53.097 49.042v-2.174H1v6.012h52.097v-3.838z" fill="#fff"/><path d="M49.09 24.828H5.006A4.008 4.008 0 001 28.835V46.87h52.097V28.835a4.008 4.008 0 00-4.008-4.007z" fill="#BC191D" fill-opacity=".3"/><path d="M18.034 29.837a4.994 4.994 0 00-3.506 1.442 5.01 5.01 0 100 7.135 5.009 5.009 0 103.506-8.577zm-7.013 8.015a3.006 3.006 0 110-6.011 3.006 3.006 0 010 6.011zm7.013 0a2.973 2.973 0 01-2.357-1.188 4.846 4.846 0 000-3.635 2.974 2.974 0 012.357-1.188 3.006 3.006 0 010 6.011z" fill="#BC191D"/><path d="M59.337 40.807L54.1 31.74v-2.905a5 5 0 00-4.544-4.962L37.294 2.633A5.03 5.03 0 0030.447.806L7.897 13.83a5.01 5.01 0 00-1.842 6.842l1.826 3.154H5.009A5.015 5.015 0 000 28.835v26.048a5.015 5.015 0 005.01 5.01H49.09a5.015 5.015 0 005.01-5.01V49.62l3.397-1.965a5.032 5.032 0 001.839-6.848zM31.45 2.542a3.017 3.017 0 014.107 1.096l11.659 20.188H35.109a4.946 4.946 0 001.521-.563 5.01 5.01 0 00-1.163-9.167 5.009 5.009 0 10-6.184 3.578 4.976 4.976 0 003.873 6.152h-9.084L16.699 11.06l14.75-8.519zm-3.434 11.812a3.005 3.005 0 115.208-3 3.005 3.005 0 01-5.208 3zm3.352 3.447a4.97 4.97 0 003.186-1.855c.917.121 1.723.668 2.174 1.475a3.008 3.008 0 01-5.21 3.005 2.976 2.976 0 01-.15-2.625zm-14.236 6.025l-5.633-9.762 3.467-2.003 6.792 11.765h-4.626zM7.79 19.669a3.006 3.006 0 011.103-4.103l.865-.5 5.058 8.76h-4.62L7.79 19.669zm44.307 35.215a3.006 3.006 0 01-3.006 3.005H5.01a3.006 3.006 0 01-3.005-3.006v-1.001h50.093v1.002zm0-3.006H2.004V47.87h50.093v4.008zm0-6.011H2.004V28.835a3.006 3.006 0 013.005-3.006h44.082a3.006 3.006 0 013.006 3.006v17.032zm4.398.055l-2.394 1.384V35.748l3.498 6.058a3.026 3.026 0 01-1.104 4.116z" fill="#BC191D"/></g></symbol><symbol id="icon-benefit-0" viewBox="0 0 50 50"><path d="M14.516 48.387l4.032-4.839h13.71l3.226 4.84H14.516z" fill="#BC191D" fill-opacity=".3"/><path d="M44.355.806H5.645A5.652 5.652 0 000 6.452c.008 6.447 5.073 11.755 11.513 12.066a13.729 13.729 0 0011 11.084l-1.46 13.14h-2.505a.807.807 0 00-.619.29l-4.032 4.838a.806.806 0 00.62 1.324h20.967a.807.807 0 00.67-1.255l-3.225-4.838a.807.807 0 00-.67-.36H28.95l-1.464-13.14a13.729 13.729 0 0011-11.083C44.927 18.208 49.992 12.9 50 6.452A5.651 5.651 0 0044.355.806zM11.29 16.13v.776A10.498 10.498 0 011.613 6.452a4.037 4.037 0 014.032-4.033h5.645v13.71zm25.807 0c0 6.68-5.416 12.097-12.097 12.097-6.68 0-12.097-5.416-12.097-12.097V2.419h24.194v13.71zM22.675 42.742l1.438-12.903h1.774l1.434 12.903h-4.646zm-6.437 4.839l2.688-3.226h12.903l2.15 3.226H16.238zM38.71 16.905V2.419h5.645a4.037 4.037 0 014.032 4.033 10.498 10.498 0 01-9.677 10.453z" fill="#BC191D"/><circle cx="25" cy="14.286" r="4.714" fill="#BC191D" fill-opacity=".3" stroke="#BC191D" stroke-width="2"/></symbol><symbol id="icon-benefit-1" viewBox="0 0 50 50"><path d="M5.833 21.667v-8.215L25 6.182l19.166 7.27v8.215H5.834zm2.5 24.999v-10h3.334V40H15v-3.334h3.333v10h-10zm0-12.499v-10h3.334V27.5H15v-3.333h3.333v10h-10zm12.5 12.499v-10h3.334V40H27.5v-3.334h3.333v10h-10z" fill-opacity=".3" fill="#BC191D"/><path d="M49.462 9.22L25.294.054a.824.824 0 00-.59 0L.538 9.22A.833.833 0 000 10v39.166c0 .46.373.833.833.833h48.334c.46 0 .833-.373.833-.833V9.999a.833.833 0 00-.538-.779zm-6.129 39.112H6.667V22.5h36.666v25.833zm0-34.306v6.806H6.667v-6.806L25 7.07l18.333 6.955zm5 34.306H45V13.451a.834.834 0 00-.538-.78l-19.167-7.27a.824.824 0 00-.59 0l-19.167 7.27a.834.834 0 00-.538.78v34.881H1.667V10.574L25 1.724l23.333 8.85v37.758z" fill="#BC191D"/><path d="M22.5 11.667h5.833v1.666H22.5v-1.666zm0 3.333h5.833v1.667H22.5V15zM8.333 47.5h10c.46 0 .834-.373.834-.834v-10a.833.833 0 00-.834-.833h-10a.833.833 0 00-.833.834v10c0 .46.373.833.833.833zm4.167-10h1.667v1.666H12.5V37.5zm-3.333 0h1.666V40c0 .46.373.833.834.833H15c.46 0 .833-.373.833-.833v-2.5H17.5v8.333H9.167V37.5z" fill="#BC191D"/><path d="M10.833 43.333h5V45h-5v-1.667zM8.333 35h10c.46 0 .834-.373.834-.833v-10a.833.833 0 00-.834-.834h-10a.833.833 0 00-.833.834v10c0 .46.373.833.833.833zM12.5 25h1.667v1.667H12.5V25zm-3.333 0h1.666v2.5c0 .46.373.833.834.833H15c.46 0 .833-.372.833-.833V25H17.5v8.333H9.167V25z" fill="#BC191D"/><path d="M10.833 30.833h5V32.5h-5v-1.667zm10 16.667h10c.46 0 .834-.373.834-.834v-10a.833.833 0 00-.834-.833h-10a.833.833 0 00-.833.834v10c0 .46.373.833.833.833zM25 37.5h1.667v1.666H25V37.5zm-3.333 0h1.666V40c0 .46.373.833.834.833H27.5c.46 0 .833-.373.833-.833v-2.5H30v8.333h-8.333V37.5z" fill="#BC191D"/><path d="M23.333 43.333h5V45h-5v-1.667z" fill="#BC191D"/></symbol><symbol id="icon-benefit-2" viewBox="0 0 50 50"><path d="M2.42 5.645a1.613 1.613 0 010-3.226h1.612a1.613 1.613 0 010 3.226H2.42z" fill="#78B9EB" fill-opacity=".3"/><path d="M43.548 44.355a3.226 3.226 0 11-6.451 0 3.226 3.226 0 016.451 0zm-24.193 0a3.226 3.226 0 11-6.452 0 3.226 3.226 0 016.452 0zm22.58-27.42c0 6.681-5.416 12.097-12.096 12.097-6.681 0-12.097-5.416-12.097-12.097 0-6.68 5.416-12.096 12.097-12.096 6.68 0 12.096 5.416 12.096 12.096z" fill="#BC191D" fill-opacity=".3"/><path d="M12.903 38.71h29.363a2.41 2.41 0 002.359-1.875l4.548-19.718a.806.806 0 00-.786-.988h-5.686c-.41-6.803-6.048-12.11-12.863-12.11-6.816 0-12.452 5.307-12.863 12.11h-4.072a2.42 2.42 0 00-2.42 2.42V36.29a2.42 2.42 0 002.42 2.42zm-.806-20.162c0-.445.36-.806.806-.806h4.073c.411 6.803 6.048 12.11 12.864 12.11 6.815 0 12.452-5.307 12.863-12.11h4.672l-4.322 18.73a.807.807 0 01-.787.625H12.903a.806.806 0 01-.806-.807V18.548zM29.839 5.645c6.235 0 11.29 5.055 11.29 11.29 0 6.236-5.055 11.29-11.29 11.29-6.236 0-11.29-5.054-11.29-11.29.006-6.232 5.057-11.283 11.29-11.29z" fill="#BC191D"/><path d="M49.194 43.548h-4.92a4.032 4.032 0 00-7.903 0h-16.29a4.025 4.025 0 00-7.855-.154 7.225 7.225 0 01-5.774-7.104V4.032a2.42 2.42 0 00-2.42-2.42H2.42a2.42 2.42 0 000 4.84h1.613a2.39 2.39 0 00.807-.149V36.29a8.828 8.828 0 007.325 8.73 4.025 4.025 0 007.917.141h16.29a4.032 4.032 0 007.903 0h4.92a.807.807 0 000-1.613zM4.032 4.838H2.42a.806.806 0 010-1.612h1.613a.806.806 0 010 1.613zM16.13 46.775a2.42 2.42 0 110-4.839 2.42 2.42 0 010 4.84zm24.194 0a2.42 2.42 0 110-4.839 2.42 2.42 0 010 4.84z" fill="#BC191D"/><path d="M29.834 26.864a.807.807 0 00.806-.806V17.74h8.318a.807.807 0 000-1.613H30.64V7.81a.806.806 0 00-1.613 0v8.317H20.71a.807.807 0 000 1.613h8.317v8.318c0 .445.362.806.807.806z" fill="#BC191D"/></symbol><symbol id="icon-benefit-3" viewBox="0 0 50 50"><path d="M17.742 37.097v-7.258a7.258 7.258 0 1114.516 0v7.258H17.742zm12.097-20.161a4.839 4.839 0 11-9.678 0 4.839 4.839 0 019.678 0z" fill="#BC191D" fill-opacity=".3"/><path d="M27.264 22.103a5.646 5.646 0 10-4.528 0 8.074 8.074 0 00-5.8 7.736v7.258c0 .445.36.806.806.806h14.516a.807.807 0 00.806-.806v-7.258a8.074 8.074 0 00-5.8-7.736zm4.188 14.187H18.548v-6.45a6.451 6.451 0 1112.904 0v6.451zM25 12.903a4.032 4.032 0 110 8.065 4.032 4.032 0 010-8.065z" fill="#BC191D"/><path d="M49.194 24.194h-2.44C46.32 12.81 37.19 3.68 25.807 3.245V.806a.807.807 0 00-1.613 0v2.44C12.81 3.68 3.68 12.81 3.245 24.194H.806a.807.807 0 000 1.613h2.44C3.68 37.19 12.81 46.319 24.194 46.754v2.44a.807.807 0 001.613 0v-2.44c11.383-.435 20.512-9.564 20.947-20.947h2.44a.807.807 0 000-1.613zm-6.452 0a.807.807 0 000 1.613h2.4C44.707 36.3 36.3 44.707 25.805 45.14v-2.4a.807.807 0 00-1.613 0v2.4C13.7 44.708 5.293 36.301 4.86 25.807h2.4a.807.807 0 000-1.613h-2.4C5.292 13.7 13.699 5.291 24.194 4.858v2.4a.807.807 0 001.613 0v-2.4c10.493.433 18.901 8.84 19.334 19.335h-2.4zM2.42 8.065a.806.806 0 00.806-.807V3.226h4.032a.806.806 0 000-1.613H2.42a.806.806 0 00-.806.806v4.84c0 .444.361.806.806.806zm40.322-4.839h4.032v4.032a.806.806 0 001.613 0V2.42a.807.807 0 00-.806-.806h-4.84a.806.806 0 000 1.613zM7.258 46.774H3.226v-4.032a.807.807 0 00-1.613 0v4.839c0 .445.361.806.806.806h4.84a.806.806 0 000-1.613zm40.322-4.839a.807.807 0 00-.806.807v4.032h-4.032a.807.807 0 000 1.613h4.839a.807.807 0 00.806-.806v-4.84a.807.807 0 00-.806-.806z" fill="#BC191D"/></symbol><symbol id="icon-info" viewBox="0 0 14 14"><path d="M7 0C3.14 0 0 3.14 0 7s3.14 7 7 7 7-3.14 7-7-3.14-7-7-7zm0 12.727A5.734 5.734 0 011.273 7 5.734 5.734 0 017 1.273 5.734 5.734 0 0112.727 7 5.734 5.734 0 017 12.727z" stroke="transparent"/><path d="M7 2.97a.85.85 0 000 1.697.85.85 0 000-1.697zm0 2.97a.636.636 0 00-.636.636v3.818a.636.636 0 001.272 0V6.576A.636.636 0 007 5.939z" stroke="transparent"/></symbol><symbol id="icon-news" viewBox="0 0 22 21"><path d="M21.157 4.475h-4.594V.861A.855.855 0 0015.72 0H.843A.854.854 0 000 .86v16.697C0 19.455 1.513 21 3.372 21h15.256C20.487 21 22 19.455 22 17.557V5.337a.856.856 0 00-.843-.862zM14.89 17.86a3.474 3.474 0 00.443 1.424H3.372c-.932 0-1.686-.77-1.686-1.721V1.722h13.191v9.931c0 6.072 0 6.072.013 6.206zm3.738 1.42h-.379c-.931 0-1.686-.77-1.686-1.722V6.197h3.751v11.36c0 .951-.754 1.722-1.686 1.722z" fill="none"/><path d="M13.167 3H3.833C3.375 3 3 3.45 3 4s.375 1 .833 1h9.334c.458 0 .833-.45.833-1s-.375-1-.833-1zm0 3H3.833C3.375 6 3 6.45 3 7s.375 1 .833 1h9.334c.458 0 .833-.45.833-1s-.375-1-.833-1z" fill="none"/><rect x="3" y="10" width="11" height="7" rx="1" stroke-width="4" fill="none"/></symbol><symbol id="icon-service" viewBox="0 0 24 24"><path d="M12 15a3 3 0 100-6 3 3 0 000 6z" stroke-width="1.5" stroke-linecap="round" stroke-linejoin="round" fill="none"/><path d="M19.4 15a1.65 1.65 0 00.33 1.82l.06.06a1.998 1.998 0 010 2.83 1.998 1.998 0 01-2.83 0l-.06-.06a1.65 1.65 0 00-1.82-.33 1.65 1.65 0 00-1 1.51V21a2 2 0 01-4 0v-.09A1.65 1.65 0 009 19.4a1.65 1.65 0 00-1.82.33l-.06.06a1.998 1.998 0 01-2.83 0 2 2 0 010-2.83l.06-.06a1.65 1.65 0 00.33-1.82 1.65 1.65 0 00-1.51-1H3a2 2 0 110-4h.09A1.65 1.65 0 004.6 9a1.65 1.65 0 00-.33-1.82l-.06-.06a2 2 0 112.83-2.83l.06.06a1.65 1.65 0 001.82.33H9a1.65 1.65 0 001-1.51V3a2 2 0 114 0v.09a1.65 1.65 0 001 1.51 1.65 1.65 0 001.82-.33l.06-.06a2 2 0 013.417 1.415 2 2 0 01-.587 1.415l-.06.06a1.65 1.65 0 00-.33 1.82V9a1.65 1.65 0 001.51 1H21a2 2 0 010 4h-.09a1.65 1.65 0 00-1.51 1z" stroke-width="1.5" stroke-linecap="round" stroke-linejoin="round" fill="none"/></symbol><symbol id="icon-delivery" viewBox="0 0 27 18"><path d="M22.5 11.25a3.379 3.379 0 00-3.375 3.375A3.379 3.379 0 0022.5 18a3.379 3.379 0 003.375-3.375A3.379 3.379 0 0022.5 11.25zm0 4.857a1.484 1.484 0 01-1.483-1.482c0-.818.665-1.483 1.483-1.483.817 0 1.482.666 1.482 1.483 0 .817-.665 1.482-1.482 1.482zM17.14 0H.86C.385 0 0 .405 0 .905v13.94c0 .5.385.905.86.905h2.694v-1.81H1.72V1.81h14.56v13.035H18V.905c0-.5-.385-.905-.86-.905z" stroke="transparent"/><path d="M19.125 13.5H7.875v2.25h11.25V13.5z" stroke="transparent"/><path d="M5.625 11.25a3.379 3.379 0 00-3.375 3.375A3.379 3.379 0 005.625 18 3.379 3.379 0 009 14.625a3.379 3.379 0 00-3.375-3.375zm0 4.857a1.484 1.484 0 01-1.482-1.482c0-.818.664-1.483 1.482-1.483s1.482.666 1.482 1.483c0 .817-.665 1.482-1.482 1.482zm20.46-8.232h-9.21v1.73h8.295v4.414h-1.31v1.731h2.226c.505 0 .915-.387.915-.865V8.74c0-.478-.41-.865-.915-.865z" stroke="transparent"/><path d="M22.647 3.849c-.144-.292-.42-.474-.718-.474h-5.054v1.83h4.569L23.314 9l1.436-.882-2.103-4.27z"/></symbol><symbol id="icon-warranty" viewBox="0 0 19 24"><path d="M18.064 4.063c-4.423 0-7.81-3.69-7.867-3.752a.936.936 0 00-1.393 0C8.77.347 5.374 4.062.936 4.062A.937.937 0 000 5.001c0 8.24 1.66 15.368 9.098 18.908.254.121.55.121.804 0C17.358 20.361 19 13.208 19 5.001a.937.937 0 00-.936-.938zM9.5 22.017c-6.097-3.124-7.529-9.209-7.622-16.123 3.587-.335 6.38-2.5 7.622-3.64 1.242 1.14 4.035 3.305 7.622 3.64-.093 6.916-1.526 13-7.622 16.123zm-.961-9.104l3.81-3.815a.935.935 0 011.323 0 .939.939 0 010 1.325L9.2 14.902a.935.935 0 01-1.324 0l-2.549-2.553a.939.939 0 010-1.326.935.935 0 011.324 0l1.887 1.89z" stroke="transparent"/></symbol><symbol id="icon-docs-full" viewBox="0 0 26 32"><path d="M16 1H4a3 3 0 00-3 3v24a3 3 0 003 3h18a3 3 0 003-3V10l-9-9z" stroke-width="2" stroke-linecap="round" stroke-linejoin="round" fill="none"/><path d="M16 1v9h9m-6 7.5H7m12 6H7m3-12H7" stroke-width="2" stroke-linecap="round" stroke-linejoin="round"/></symbol></svg>