<svg xmlns="http://www.w3.org/2000/svg" width="164" height="179" viewBox="0 0 164 179" fill="none">
  <g opacity="0.5">
    <mask id="mask0" mask-type="alpha" maskUnits="userSpaceOnUse" x="0" y="0" width="164" height="179">
      <rect width="164" height="179" rx="10" transform="matrix(-1 8.74228e-08 8.74228e-08 1 164 0)" fill="white"/>
    </mask>
    <g mask="url(#mask0)">
      <path d="M20.5977 128.605L50.2654 128.605L50.2654 140.472L20.5977 140.472L20.5977 128.605Z" fill="#EDEFF2"/>
      <path fill-rule="evenodd" clip-rule="evenodd" d="M44.3318 39.6012C50.8858 39.6012 56.1989 34.2882 56.1989 27.7342C56.1989 21.1801 50.8858 15.8671 44.3318 15.8671C37.7778 15.8671 32.4647 21.1801 32.4647 27.7342C32.4647 34.2882 37.7778 39.6012 44.3318 39.6012ZM44.3318 51.4683C57.4398 51.4683 68.066 40.8422 68.066 27.7341C68.066 14.6261 57.4398 4 44.3318 4C31.2238 4 20.5977 14.6261 20.5977 27.7342C20.5977 40.8422 31.2238 51.4683 44.3318 51.4683Z" fill="#EDEFF2"/>
      <path fill-rule="evenodd" clip-rule="evenodd" d="M139.265 69.2694C145.819 69.2694 151.132 63.9564 151.132 57.4024C151.132 50.8484 145.819 45.5353 139.265 45.5353C132.711 45.5353 127.398 50.8484 127.398 57.4024C127.398 63.9564 132.711 69.2694 139.265 69.2694ZM139.265 81.1365C152.373 81.1365 163 70.5104 163 57.4024C163 44.2944 152.373 33.6682 139.265 33.6682C126.157 33.6682 115.531 44.2944 115.531 57.4024C115.531 70.5104 126.157 81.1365 139.265 81.1365Z" fill="#EDEFF2"/>
      <path fill-rule="evenodd" clip-rule="evenodd" d="M68.0779 146.405C74.6319 146.405 79.945 141.092 79.945 134.537C79.945 127.983 74.6319 122.67 68.0779 122.67C61.5239 122.67 56.2108 127.983 56.2108 134.537C56.2108 141.092 61.5239 146.405 68.0779 146.405ZM68.0779 158.272C81.1859 158.272 91.8121 147.646 91.8121 134.537C91.8121 121.429 81.1859 110.803 68.0779 110.803C54.9699 110.803 44.3438 121.429 44.3438 134.537C44.3438 147.646 54.9699 158.272 68.0779 158.272Z" fill="#EDEFF2"/>
      <path d="M43.1172 89.4701L97.7402 51.4685L105.858 60.9511L50.2726 98.9373L43.1172 89.4701Z" fill="#EDEFF2"/>
      <path d="M-7.52894 168.391C-9.91472 166.782 -10.6008 165.318 -5.65513 159.993L20.2029 128.605L30.797 128.605L34.3196 131.027L-2.91544 173L-7.52894 168.391Z" fill="#EDEFF2"/>
      <path d="M97.7344 51.4683L121.469 51.4683L121.469 63.3353L97.7344 63.3353L97.7344 51.4683Z" fill="#EDEFF2"/>
      <path d="M-9.05469 21.8014L26.5465 21.8014L26.5465 33.6685L-9.05469 33.6685L-9.05469 21.8014Z" fill="#EDEFF2"/>
      <path d="M-9.05469 87.0696L50.2807 87.0696L50.2807 98.9367L-9.05469 98.9367L-9.05469 87.0696Z" fill="#EDEFF2"/>
    </g>
  </g>
</svg>
