<svg xmlns="http://www.w3.org/2000/svg" width="164" height="179" viewBox="0 0 164 179" fill="none">
  <g opacity="0.5">
    <mask id="mask0" mask-type="alpha" maskUnits="userSpaceOnUse" x="0" y="0" width="164" height="179">
      <rect width="164" height="179" rx="10" fill="white"/>
    </mask>
    <g mask="url(#mask0)">
      <path d="M143.402 128.605H113.735V140.472H143.402V128.605Z" fill="#EDEFF2"/>
      <path fill-rule="evenodd" clip-rule="evenodd" d="M119.668 39.6012C113.114 39.6012 107.801 34.2882 107.801 27.7342C107.801 21.1801 113.114 15.8671 119.668 15.8671C126.222 15.8671 131.535 21.1801 131.535 27.7342C131.535 34.2882 126.222 39.6012 119.668 39.6012ZM119.668 51.4683C106.56 51.4683 95.934 40.8422 95.934 27.7342C95.934 14.6261 106.56 4 119.668 4C132.776 4 143.402 14.6261 143.402 27.7342C143.402 40.8422 132.776 51.4683 119.668 51.4683Z" fill="#EDEFF2"/>
      <path fill-rule="evenodd" clip-rule="evenodd" d="M24.7346 69.2694C18.1806 69.2694 12.8675 63.9564 12.8675 57.4024C12.8675 50.8484 18.1806 45.5353 24.7346 45.5353C31.2886 45.5353 36.6017 50.8484 36.6017 57.4024C36.6017 63.9564 31.2886 69.2694 24.7346 69.2694ZM24.7346 81.1365C11.6266 81.1365 1.00044 70.5104 1.00044 57.4024C1.00044 44.2944 11.6266 33.6682 24.7346 33.6682C37.8426 33.6682 48.4688 44.2944 48.4688 57.4024C48.4688 70.5104 37.8426 81.1365 24.7346 81.1365Z" fill="#EDEFF2"/>
      <path fill-rule="evenodd" clip-rule="evenodd" d="M95.9221 146.405C89.3681 146.405 84.055 141.092 84.055 134.537C84.055 127.983 89.3681 122.67 95.9221 122.67C102.476 122.67 107.789 127.983 107.789 134.537C107.789 141.092 102.476 146.405 95.9221 146.405ZM95.9221 158.272C82.8141 158.272 72.1879 147.646 72.1879 134.537C72.1879 121.429 82.8141 110.803 95.9221 110.803C109.03 110.803 119.656 121.429 119.656 134.537C119.656 147.646 109.03 158.272 95.9221 158.272Z" fill="#EDEFF2"/>
      <path d="M120.883 89.4701L66.2598 51.4685L58.1418 60.9511L113.727 98.9373L120.883 89.4701Z" fill="#EDEFF2"/>
      <path d="M171.529 168.391C173.915 166.782 174.601 165.318 169.655 159.993L143.797 128.605H133.203L129.68 131.027L166.915 173L171.529 168.391Z" fill="#EDEFF2"/>
      <path d="M66.2656 51.4683H42.5315V63.3353H66.2656V51.4683Z" fill="#EDEFF2"/>
      <path d="M173.055 21.8014H137.453V33.6685H173.055V21.8014Z" fill="#EDEFF2"/>
      <path d="M173.055 87.0696H113.719V98.9367H173.055V87.0696Z" fill="#EDEFF2"/>
    </g>
  </g>
</svg>
