<svg xmlns="http://www.w3.org/2000/svg" xmlns:xlink="http://www.w3.org/1999/xlink"><symbol id="icon-view-row" viewBox="0 0 20 20"><path d="M0 0h4v4H0zm0 8h4v4H0zm0 8h4v4H0zM8 0h12v4H8zm0 8h12v4H8zm0 8h12v4H8z"/></symbol><symbol id="icon-view-grid" viewBox="0 0 20 20"><path d="M0 0h4v4H0zm0 8h4v4H0zm0 8h4v4H0zM8 0h4v4H8zm0 8h4v4H8zm0 8h4v4H8zm8-16h4v4h-4zm0 8h4v4h-4zm0 8h4v4h-4z"/></symbol><symbol id="icon-sort-popular" viewBox="0 0 16 12"><path d="M0 0h16v1.5H0zm0 5h13v1.5H0zm0 5h10v1.5H0z"/></symbol><symbol id="icon-sort-new" viewBox="0 0 28 12"><path d="M.9 10.93v.1h1.092V3.15l5.053 7.833.03.046h.884V.93H6.867v7.694L1.941.974 1.912.928H.9V10.93zm8.111 0v.1h6.12V9.81h-5.005V6.547h4.427v-1.22h-4.426v-3.18h4.947V.936l.035.12 2.896 9.972.021.072h.916l.02-.073 2.14-7.687 2.129 7.687.02.073h.927l.021-.072 2.897-9.972.037-.128h-1.171l-.02.073-2.219 7.896-2.13-7.923-.02-.074h-.906l-.02.074-2.13 7.923-2.22-7.896-.02-.073H9.011V10.93z" stroke-width=".2"/></symbol><symbol id="icon-sort-increase-price" viewBox="0 0 20 18"><path d="M4.5 1v2m0 12v2M8 5s-.5-2-3.5-2S1 4.957 1 6c0 4.14 7 1.965 7 6 0 1.043-.5 3-3.5 3S1 13 1 13" stroke-width="1.5" stroke-linecap="round" fill="none"/><path d="M12 3h8v1.5h-8zm0 5h5v1.5h-5zm0 5h2v1.5h-2z"/></symbol><symbol id="icon-sort-decrease-price" viewBox="0 0 20 18"><path d="M4.5 1v2m0 12v2M8 5s-.5-2-3.5-2S1 4.957 1 6c0 4.14 7 1.965 7 6 0 1.043-.5 3-3.5 3S1 13 1 13" stroke-width="1.5" stroke-linecap="round" fill="none"/><path d="M12 14.5h8V13h-8zm0-5h5V8h-5zm0-5h2V3h-2z"/></symbol><symbol id="icon-sort-promotions" viewBox="0 0 18 18"><path d="M15.4 9v8H2.6V9M17 5H1v4h16V5zM9 17V5m0 0H5.4a2 2 0 110-4C8.2 1 9 5 9 5zm0 0h3.6a2 2 0 000-4C9.8 1 9 5 9 5z" stroke-width="1.5" stroke-linecap="round" stroke-linejoin="round" fill="none"/></symbol><symbol id="icon-update" viewBox="0 0 26 22"><path d="M1 2v7h6" stroke-width="2" stroke-linecap="round" stroke-linejoin="round"/><path d="M1 9l5-4.985a9.597 9.597 0 014.164-2.61 9.16 9.16 0 014.834-.151A9.512 9.512 0 0119.3 3.599 10.344 10.344 0 0122 7.857M25 20v-7h-6" stroke-width="2" stroke-linecap="round" stroke-linejoin="round" fill="none"/><path d="M25 13l-5 4.985a9.596 9.596 0 01-4.164 2.61 9.158 9.158 0 01-4.834.151A9.511 9.511 0 016.7 18.401 10.343 10.343 0 014 14.143" stroke-width="2" stroke-linecap="round" stroke-linejoin="round" fill="none"/></symbol><symbol id="icon-info" viewBox="0 0 14 14"><path d="M7 0C3.14 0 0 3.14 0 7s3.14 7 7 7 7-3.14 7-7-3.14-7-7-7zm0 12.727A5.734 5.734 0 011.273 7 5.734 5.734 0 017 1.273 5.734 5.734 0 0112.727 7 5.734 5.734 0 017 12.727z"/><path d="M7 2.97a.85.85 0 000 1.697.85.85 0 000-1.697zm0 2.97a.636.636 0 00-.636.636v3.818a.636.636 0 001.272 0V6.576A.636.636 0 007 5.939z"/></symbol></svg>