<svg xmlns="http://www.w3.org/2000/svg" xmlns:xlink="http://www.w3.org/1999/xlink"><symbol id="icon-location" viewBox="0 0 24 24"><path d="M21 10c0 7-9 13-9 13s-9-6-9-13a9 9 0 1118 0z" stroke-width="2" stroke-linecap="round" stroke-linejoin="round" fill="none"/><path d="M12 13a3 3 0 100-6 3 3 0 000 6z" stroke-width="2" stroke-linecap="round" stroke-linejoin="round" fill="none"/></symbol><symbol id="icon-clock" viewBox="0 0 24 24"><path d="M12 22c5.523 0 10-4.477 10-10S17.523 2 12 2 2 6.477 2 12s4.477 10 10 10z" stroke-width="2" stroke-linecap="round" stroke-linejoin="round" fill="none"/><path d="M12 6v6l4 2" stroke-width="2" stroke-linecap="round" stroke-linejoin="round" fill="none"/></symbol><symbol id="icon-new-post" viewBox="0 0 36 36"><path fill-rule="evenodd" clip-rule="evenodd" d="M28.837 10.643c.09-.048.275.048.413.23l6.474 6.385c.366.37.366.97 0 1.249l-6.474 6.476c-.138.187-.275.23-.413.187-.09-.048-.185-.23-.185-.461V11.061c.048-.235.09-.37.185-.418zM17.773 0h.46l.46.187 6.66 6.712c.275.37.184.648-.276.648h-2.755c-.46 0-.873.37-.873.878v4.95c0 .46-.365.878-.963.878H15.62a.874.874 0 01-.873-.878v-4.95a.875.875 0 00-.873-.878h-2.94c-.46 0-.598-.279-.276-.648L17.36.187c-.047 0 .413-.187.413-.187zM7.3 10.504c.137.048.184.23.184.46v13.927c0 .23-.09.37-.185.418-.137.048-.275 0-.46-.14L.275 18.46c-.365-.28-.365-.88 0-1.249l6.564-6.572c.185-.134.37-.182.46-.134zM15.614 21.469h4.866c.598 0 .963.37.963.878v5.276c0 .557.365.97.873.97h2.57c.46 0 .688.278.276.557l-6.475 6.572A.924.924 0 0118 36c-.227 0-.46-.09-.687-.278l-6.475-6.572c-.365-.279-.185-.557.276-.557h2.755c.46 0 .873-.37.873-.97v-5.276c0-.509.413-.878.873-.878z" fill="var(--svg-image-color-empty, #bc191d)"/></symbol><symbol id="icon-car" viewBox="0 0 32 28"><path d="M29.588 10.332l-2.244-7.48A3.976 3.976 0 0023.512 0H8.488a3.976 3.976 0 00-3.832 2.852l-2.244 7.48A4.002 4.002 0 000 14v8a2 2 0 002 2v2a2 2 0 002 2h2a2 2 0 002-2v-2h16v2a2 2 0 002 2h2a2 2 0 002-2v-2a2 2 0 002-2v-8a4.002 4.002 0 00-2.412-3.668zM8.488 4h15.024l1.8 6H6.688l1.8-6zM8 19a2 2 0 110-4 2 2 0 010 4zm16 0a2 2 0 110-4 2 2 0 010 4z" fill="var(--svg-image-color-empty, #bc191d)"/></symbol><symbol id="icon-courier-new-post" viewBox="0 0 32 36"><path d="M31.962 34.667l-2.846-10.433a1.055 1.055 0 00-.405-.582l-6.89-4.915a8.165 8.165 0 002.309-5.679c0-4.252.028-4.485-.097-5.26C23.987 3.345 20.62 0 16.163 0h-.327c-4.456 0-7.823 3.346-7.87 7.797-.124.776-.096 1.009-.096 5.261 0 2.133.844 4.171 2.308 5.679l-6.89 4.916c-.197.14-.34.346-.404.58L.038 34.668A1.055 1.055 0 001.053 36h13.894V24.854L16 24.161l1.053.693V36h13.894c.694 0 1.198-.663 1.015-1.333zm-16.65-31.25h1.375a1.054 1.054 0 010 2.11h-1.374a1.054 1.054 0 010-2.11zm-.364 18.913l-2.316 1.525-3.089-2.076 2.366-1.687c.966.565 2.01.903 3.038 1.035v1.203zM16 19.086c-3.343 0-6.024-2.72-6.024-6.028l-.002-1.903.566.827c.196.288.521.459.868.459h9.184c.347 0 .672-.171.868-.459l.566-.827-.002 1.903c0 3.28-2.65 6.028-6.024 6.028zm1.053 3.244v-1.203a8.08 8.08 0 003.039-1.035l2.365 1.687-3.089 2.076-2.315-1.525z" fill="var(--svg-image-color-empty, #bc191d)"/><path fill-rule="evenodd" clip-rule="evenodd" d="M25.557 28.07c.018-.01.053.01.08.045l1.257 1.241c.07.072.07.189 0 .243l-1.257 1.259c-.027.036-.053.045-.08.036-.017-.009-.036-.044-.036-.09v-2.653c.01-.046.018-.072.036-.081z" fill="none"/><path fill-rule="evenodd" clip-rule="evenodd" d="M23.41 26h.089l.09.036 1.292 1.305c.053.072.035.126-.054.126h-.535a.17.17 0 00-.169.171v.963c0 .09-.07.17-.187.17h-.944a.17.17 0 01-.17-.17v-.963a.17.17 0 00-.169-.17h-.57c-.09 0-.117-.055-.054-.127l1.3-1.305c-.009 0 .08-.036.08-.036z" fill="#fff"/><path fill-rule="evenodd" clip-rule="evenodd" d="M21.377 28.043c.027.009.036.044.036.09v2.707c0 .045-.017.072-.036.081-.026.01-.053 0-.089-.027l-1.274-1.305c-.07-.054-.07-.17 0-.242l1.274-1.278c.036-.026.072-.036.09-.026zM22.99 30.175h.945c.116 0 .187.072.187.17v1.027c0 .108.071.188.17.188h.498c.09 0 .134.054.054.108l-1.257 1.278a.18.18 0 01-.133.054.21.21 0 01-.134-.054l-1.256-1.278c-.07-.054-.036-.108.053-.108h.535c.09 0 .17-.072.17-.188v-1.026c0-.1.08-.171.169-.171z" fill="none"/></symbol><symbol id="icon-courier" viewBox="0 0 32 36"><path d="M31.962 34.667l-2.846-10.433a1.055 1.055 0 00-.405-.582l-6.89-4.915a8.165 8.165 0 002.309-5.679c0-4.252.028-4.485-.097-5.26C23.987 3.345 20.62 0 16.163 0h-.327c-4.456 0-7.823 3.346-7.87 7.797-.124.776-.096 1.009-.096 5.261 0 2.133.844 4.171 2.308 5.679l-6.89 4.916c-.197.14-.34.346-.404.58L.038 34.668A1.055 1.055 0 001.053 36h13.894V24.854L16 24.161l1.053.693V36h13.894c.694 0 1.198-.663 1.015-1.333zm-16.65-31.25h1.375a1.054 1.054 0 010 2.11h-1.374a1.054 1.054 0 010-2.11zm-.364 18.913l-2.316 1.525-3.089-2.076 2.366-1.687c.966.565 2.01.903 3.038 1.035v1.203zM16 19.086c-3.343 0-6.024-2.72-6.024-6.028l-.002-1.903.566.827c.196.288.521.459.868.459h9.184c.347 0 .672-.171.868-.459l.566-.827-.002 1.903c0 3.28-2.65 6.028-6.024 6.028zm1.053 3.244v-1.203a8.08 8.08 0 003.039-1.035l2.365 1.687-3.089 2.076-2.315-1.525z" fill="var(--svg-image-color-empty, #bc191d)"/></symbol><symbol id="icon-ukrpost" viewBox="0 0 26 36"><path d="M24.343 20.673l-12.297-2.719c-3.665-.797-5.931-4.359-5.111-7.921.82-3.563 4.484-5.766 8.149-4.969 3.665.797 5.931 4.36 5.112 7.875a6.693 6.693 0 01-2.99 4.125c-.048.046-.048.093-.048.14 0 .094.048.14.144.14l5.45 1.22c.144.046.24 0 .337-.141a11.383 11.383 0 002.411-6.984C25.452 5.392 20.533.377 14.264.002h-.53c-2.7-.047-5.497.75-7.957 2.39C-.347 6.564-1.842 14.814 2.45 20.766l10.946 15.14a.37.37 0 00.193.094c.097 0 .145-.047.193-.094l10.705-14.858c.049-.047.049-.094.049-.14 0-.095-.049-.188-.193-.235z" fill="var(--svg-image-color-empty, #ffc627)"/></symbol><symbol id="icon-justin" viewBox="0 0 81 36"><path d="M63.622 4.932l-6.161 2.36v3.29l4.176-1.602a3.08 3.08 0 001.985-2.881V4.932zM57.652 27.956h4.91a.206.206 0 00.206-.204V11.308a.206.206 0 00-.205-.204h-4.91a.206.206 0 00-.206.204v16.444c0 .112.093.204.205.204zM51.022 21.198c0-.436 0-3.27-.006-5.73h3.758a.206.206 0 00.205-.204v-3.957a.206.206 0 00-.205-.204h-3.752V7.978a.206.206 0 00-.205-.205h-4.99a.206.206 0 00-.205.205c.007 1.266 0 8.228 0 13.833 0 6.105 5.612 6.145 7.59 6.145h1.622a.206.206 0 00.205-.204v-3.666a.206.206 0 00-.205-.205c-1.754-.033-3.812-.481-3.812-2.683zM4.116 25.714c0 1.082-.582 2.65-3.844 2.677a.206.206 0 00-.206.205v3.665c0 .113.093.205.206.205h1.62c1.98 0 7.591-.073 7.591-6.178 0-5.644-.006-13.616 0-14.987a.206.206 0 00-.205-.204H4.322a.206.206 0 00-.206.204c-.006 1.695 0 13.385 0 14.413zM21.686 21.818c.007 1.404-.84 2.209-2.329 2.209-1.489 0-2.323-.805-2.323-2.216 0-1.009.007-9.112 0-10.503a.206.206 0 00-.205-.204h-4.917a.206.206 0 00-.205.204c.007 1.009 0 6.158 0 11.064 0 6.19 5.77 6.21 7.65 6.21 1.88 0 7.65 0 7.65-6.21V11.308a.206.206 0 00-.205-.204h-4.91a.206.206 0 00-.206.204v10.51zM70.961 17.248c-.007-1.404.84-2.209 2.33-2.209 1.488 0 2.322.805 2.322 2.216 0 1.009-.007 9.112 0 10.503 0 .112.093.204.205.204h4.91a.206.206 0 00.206-.204c-.007-1.009 0-6.158 0-11.064 0-6.19-5.77-6.21-7.65-6.21-1.88 0-7.65 0-7.65 6.21v11.064c0 .112.092.204.205.204h4.91a.206.206 0 00.205-.204l.007-10.51zM39.924 18.165c-.132-.034-3.256-.587-3.401-.614-1.403-.257-2.316-.699-2.316-1.595 0-.594.456-1.583 2.303-1.583 2.005 0 2.256 1.207 2.276 1.78a.205.205 0 00.205.198h4.295a.203.203 0 00.205-.21c-.066-1.998-1.118-5.664-7.385-5.664-4.758 0-7.134 2.367-7.134 5.723 0 2.551 1.688 3.916 3.931 4.457 1.582.382 5.857.422 5.857 2.354 0 .593-.457 1.576-2.303 1.576-2.072 0-2.522-1.28-2.588-1.834a.201.201 0 00-.205-.177h-4.632a.2.2 0 00-.206.21c.067 1.622 1.225 5.842 7.531 5.842 4.997 0 7.478-2.268 7.478-5.723.027-2.545-1.654-4.226-3.91-4.74zM65.422.046l-7.961 3.006v3.29l5.962-2.248a3.084 3.084 0 001.999-2.888V.046z" fill="var(--svg-image-color-empty, #304ffe)"/></symbol><symbol id="icon-google" viewBox="0 0 36 36"><path d="M36 18.571c0-1.195-.103-2.396-.324-3.571H18v6.768h10.122c-.42 2.183-1.77 4.114-3.746 5.34V31.5h6.04C33.962 28.439 36 23.918 36 18.571z" fill="var(--svg-image-color-empty, #4285F4)"/><path d="M17.863 36C22.8 36 26.966 34.357 30 31.52l-5.9-4.636c-1.642 1.132-3.762 1.773-6.23 1.773-4.778 0-8.828-3.266-10.281-7.657H1.5v4.78C4.608 32.044 10.94 36 17.863 36z" fill="var(--svg-image-color-empty, #34A853)"/><path d="M7.5 22.267a11.782 11.782 0 010-7.034V10.5H1.82c-2.426 5.192-2.426 11.308 0 16.5l5.68-4.733z" fill="var(--svg-image-color-empty, #FBBC04)"/><path d="M17.797 7.34a9.82 9.82 0 016.996 2.78L30 4.827A17.368 17.368 0 0017.797 0C10.902.001 4.596 3.954 1.5 10.223L7.558 15c1.44-4.395 5.481-7.66 10.24-7.66z" fill="var(--svg-image-color-empty, #EA4335)"/></symbol><symbol id="icon-apple" viewBox="0 0 36 44"><path d="M26.052.048c-2.045.234-4.94 2.022-6.378 3.935-.727.968-1.317 2.066-1.662 3.226-.246.824-.553 2.225-.217 3.07.065.165.19.19 1.075.194 3.432.024 6.404-2.943 7.54-5.957.391-1.041.567-2.008.617-3.383l.03-.881-.13-.13c-.146-.144-.226-.15-.875-.074zM25.588 11.03c-1.925.148-3.819.8-5.602 1.489-1.166.451-1.166.451-1.397.49-.402.065-1.387-.217-3.08-.892-2.03-.808-4.054-1.224-6.22-.771-3.41.712-6.027 2.93-7.546 5.978-.553 1.101-.96 2.177-1.262 3.323-1.544 5.872.826 12.927 4.276 17.761.295.414.595.824.896 1.233.88 1.195 1.326 1.74 1.975 2.39.678.684 1.226 1.081 2 1.458.874.422 1.256.516 2.06.51 1.03 0 1.86-.208 3.438-.862 2.535-1.051 4.995-1.008 7.519-.01 1.346.536 2.296.774 3.291.833 1.448.09 2.845-.545 4.338-1.959 1.523-1.453 2.945-3.441 4.382-6.125.536-1.003.828-2.091 1.29-3.112.265-.585-.503-.874-.923-1.083-1.221-.62-2.422-1.68-3.232-2.876-2.574-3.822-1.918-10.293 2.463-12.67.166-.095.377-.239.467-.328.277-.268.237-.372-.457-1.175-1.69-1.957-4.135-3.228-6.713-3.559a9.63 9.63 0 00-1.963-.042z" fill="var(--svg-image-color-empty, black)"/></symbol><symbol id="icon-privat" viewBox="0 0 36 36"><path d="M0 35.889h14.068V21.821H0V35.89z" fill="var(--svg-image-color-empty, #222221)"/><path d="M0 0v17.502h3.766c9.748 0 14.732 4.984 14.732 14.732V36H36V0H0zm28.468 7.422v21.046h-2.88C24.369 18.055 17.834 11.52 7.422 10.302v-2.88h21.046z" fill="var(--svg-image-color-empty, #5DB02E)"/></symbol><symbol id="icon-cash-delivery" viewBox="0 0 36 33"><path d="M36 26.619v6.285c-.277.016-.537.064-.798.064-7.08 0-14.161 0-21.242.032-.748 0-.96-.207-.96-.941.033-5.711.016-11.423 0-17.15 0-.606.098-.909.83-.909 7.195.032 14.373.016 21.568.032.162 0 .325.032.553.048v2.09c-.293.016-.586.047-.879.047-1.497 0-2.979-.015-4.476.016-2.914.064-5.193 2.282-5.225 5.058-.033 2.887 2.116 5.152 5.062 5.264 1.547.064 3.093.016 4.64.016.325 0 .602.032.927.048z" fill="var(--svg-image-color-empty, #bc191d)"/><path d="M11.187 20H0V.067C.288.051.575.02.847.02c1.518 0 3.036.032 4.555-.017.767-.032.943.26.927.973-.048 1.653 0 3.29-.016 4.942-.016.551.143.924.655 1.151.24.097.48.243.687.405.8.632 1.566.778 2.43.081.175-.146.686-.097.91.065.72.502 1.295.454 2.094.032 1.214-.632 1.758-1.377 1.598-2.82-.16-1.36-.016-2.754-.048-4.132-.016-.535.16-.697.687-.697 1.678.033 3.356.033 5.034.017.496 0 .64.194.64.664-.017 2.026-.032 4.051 0 6.077.015.6-.32.697-.768.81-2.7.697-5.401 1.426-8.118 2.075-.735.178-.943.486-.943 1.248.048 2.722.016 5.46.016 8.183V20zM8.95 15.706c.32-2.01.32-2.01-1.47-2.026H4.186c0 .632-.032 1.118.016 1.588.016.162.208.421.336.421 1.486.033 2.956.017 4.41.017zM6.2 10.52c0-.648-.463-1.135-1.006-1.102-.575.048-.927.389-.959.988-.032.551.464 1.037 1.023 1.005.575-.032.895-.373.943-.891z" fill="var(--svg-image-color-empty, #bc191d)"/><path d="M33.998 6c0 1.616.015 3.1-.032 4.568 0 .148-.414.385-.637.4-1.272.044-2.545.03-3.818.03-4.916 0-9.847 0-14.763-.015-.239 0-.477-.015-.7-.03A3.684 3.684 0 0114 10.76C20.618 9.188 27.236 7.616 33.998 6zM36 23.957c-2.246 0-4.39.122-6.516-.046-1.429-.106-2.5-1.554-2.484-2.894 0-1.326 1.038-2.727 2.433-2.865 2.042-.183 4.117-.137 6.193-.152.136 0 .374.244.374.38v5.577zm-5.7-1.996c.681-.015 1.226-.487 1.175-.975-.069-.548-.443-.868-1.072-.884-.613-.015-1.09.427-1.038.96.051.564.391.869.936.9zM11.984 2.976c0 .723.015 1.463 0 2.186-.014.79-.383 1.076-.93.622-.737-.622-1.357-.622-2.095 0-.531.454-.93.151-.944-.622C8 3.682 8.015 2.186 8 .707c0-.488.148-.723.59-.706.93.017 1.874.033 2.804.017.443-.017.62.168.605.689-.044.756-.015 1.513-.015 2.27z" fill="var(--svg-image-color-empty, #bc191d)"/></symbol><symbol id="icon-card" viewBox="0 0 36 36"><path d="M0 14.625v13.5c0 1.242 1.01 2.25 2.25 2.25h31.5a2.25 2.25 0 002.25-2.25v-13.5H0zm12.375 9h-6.75a1.125 1.125 0 010-2.25h6.75a1.125 1.125 0 010 2.25zm15.75 2.25a3.355 3.355 0 01-2.25-.875 3.355 3.355 0 01-2.25.875 3.376 3.376 0 010-6.75c.869 0 1.651.337 2.25.875a3.355 3.355 0 012.25-.875 3.376 3.376 0 010 6.75zM33.75 5.625H2.25C1.01 5.625 0 6.635 0 7.875v2.25h36v-2.25c0-1.24-1.008-2.25-2.25-2.25z" fill="var(--svg-image-color-empty, #bc191d)"/></symbol><symbol id="icon-cash-less" viewBox="0 0 36 36"><path d="M28.214 1.954a.79.79 0 01-.604.277.84.84 0 01-.62-.277L25.203 0l-1.786 1.945-.05.05a.836.836 0 01-1.183-.05L20.398 0l-1.786 1.945-.05.05a.836.836 0 01-1.183-.05L15.593 0l-1.786 1.945-.05.05a.836.836 0 01-1.183-.05L10.788 0 9.002 1.954a.84.84 0 01-.62.277.79.79 0 01-.604-.277L6.847.922v34.164l.93-1.04a.79.79 0 01.605-.277c.234 0 .46.101.62.277L10.788 36l1.795-1.946.05-.05a.836.836 0 011.183.05L15.601 36l1.786-1.946.05-.05a.836.836 0 011.183.05L20.407 36l1.786-1.946.05-.05a.836.836 0 011.183.05L25.212 36l1.786-1.954a.839.839 0 01.62-.277c.235 0 .453.101.604.277l.931 1.032V.914l-.94 1.04zm-11.061 4.78v-.529c0-.46.377-.838.839-.838.46 0 .838.377.838.838v.529a2.728 2.728 0 011.895 2.6.841.841 0 01-.838.838.841.841 0 01-.839-.839v-.008a1.052 1.052 0 10-2.105 0c0 .587.47 1.057 1.057 1.057a2.734 2.734 0 01.838 5.333v.537a.84.84 0 01-.838.838.841.841 0 01-.839-.838v-.537a2.736 2.736 0 01-1.895-2.6c0-.46.378-.838.839-.838.461 0 .838.377.838.838 0 .587.478 1.057 1.057 1.057.008 0 .008 0 .008.008a1.057 1.057 0 00-.017-2.113 2.74 2.74 0 01-2.599-1.895 2.734 2.734 0 011.761-3.438zm-2.826 14.96h7.346c.461 0 .839.377.839.838a.841.841 0 01-.84.84h-7.345a.841.841 0 01-.839-.84c0-.46.378-.838.839-.838zM25.17 30.33H10.83a.841.841 0 01-.838-.838c0-.462.377-.839.838-.839h14.34c.461 0 .838.377.838.839a.841.841 0 01-.838.838zm0-3.522H10.83a.841.841 0 01-.838-.838c0-.462.377-.839.838-.839h14.34c.461 0 .838.377.838.839a.841.841 0 01-.838.838z" fill="var(--svg-image-color-empty, #bc191d)"/></symbol><symbol id="icon-debt-pay" viewBox="0 0 36 36"><path d="M11.506 12.765C5.162 12.765 0 17.926 0 24.27c0 6.344 5.162 11.506 11.506 11.506 6.345 0 11.506-5.162 11.506-11.506 0-6.345-5.162-11.506-11.506-11.506zm0 10.451c1.77 0 3.21 1.44 3.21 3.21 0 1.4-.902 2.594-2.155 3.03v.67a1.055 1.055 0 01-2.11 0v-.49h-1.1a1.055 1.055 0 010-2.11h2.155a1.102 1.102 0 000-2.2c-1.77 0-3.21-1.44-3.21-3.21 0-1.4.902-2.594 2.155-3.031v-.669a1.055 1.055 0 112.11 0v.49h1.1a1.055 1.055 0 010 2.11h-2.155c-.607 0-1.1.493-1.1 1.1 0 .606.493 1.1 1.1 1.1zM28.228 8.585h-4.18a3.13 3.13 0 01-3.126-3.126A5.241 5.241 0 0015.687.224a5.241 5.241 0 00-5.236 5.235v3.126H8.03c-.47 0-.882.31-1.013.76l-.679 2.33a13.543 13.543 0 015.168-1.02c1.829 0 3.574.364 5.168 1.02l-.679-2.33a1.055 1.055 0 00-1.012-.76H12.56V5.459a3.13 3.13 0 013.126-3.126 3.13 3.13 0 013.126 3.126 5.241 5.241 0 005.235 5.235h4.18a1.055 1.055 0 000-2.11zM34.945 8.585h-2.09a1.055 1.055 0 000 2.11h2.09a1.055 1.055 0 100-2.11zM31.5 7.422c.27 0 .54-.103.746-.309l1.478-1.478a1.055 1.055 0 10-1.492-1.491l-1.478 1.478a1.055 1.055 0 00.746 1.8zM28.228 1.868c-.582 0-1.054.472-1.054 1.055v2.09a1.055 1.055 0 002.109 0v-2.09c0-.583-.472-1.055-1.055-1.055z" fill="var(--svg-image-color-empty, #bc191d)"/><path d="M24.21 7.113a1.05 1.05 0 001.492 0 1.055 1.055 0 000-1.491l-1.478-1.478a1.055 1.055 0 00-1.491 1.491l1.478 1.478zM24.21 12.165l-1.477 1.478a1.055 1.055 0 001.491 1.492l1.478-1.478a1.055 1.055 0 10-1.491-1.492zM28.228 13.212c-.582 0-1.054.472-1.054 1.055v2.09a1.055 1.055 0 102.109 0v-2.09c0-.583-.472-1.055-1.055-1.055zM32.245 12.165a1.054 1.054 0 10-1.491 1.492l1.478 1.478a1.051 1.051 0 001.492 0 1.055 1.055 0 000-1.492l-1.478-1.478z" fill="var(--svg-image-color-empty, #bc191d)"/></symbol><symbol id="icon-mono" viewBox="0 0 488.2 133.4"><path d="M142.8 131V62.5c0-19.5-10.4-28.7-27.9-28.7-14.5 0-27.1 8.6-32.6 17.3C78.8 40.3 69.9 33.8 56 33.8c-14.5 0-27.1 9-31 14.7V36.2H0V131h25V67.2C28.7 61.9 36 56 44.6 56c10.2 0 14.1 6.3 14.1 15.1V131h25.1V67c3.5-5.1 10.8-11 19.6-11 10.2 0 14.1 6.3 14.1 15.1V131h25.3zm68.6 2.4c-31.2 0-50.1-22.8-50.1-49.9 0-26.9 18.9-49.7 50.1-49.7 31.4 0 50.3 22.8 50.3 49.7 0 27.1-18.9 49.9-50.3 49.9zm0-22.2c15.5 0 24.4-12.8 24.4-27.7 0-14.7-8.8-27.5-24.4-27.5s-24.2 12.8-24.2 27.5c0 14.9 8.7 27.7 24.2 27.7zM369.2 131V64c0-18.5-10-30.3-30.8-30.3-15.5 0-27.1 7.5-33.2 14.7V36.2h-25V131h25V67.2C309.3 61.5 317 56 326.8 56c10.6 0 17.5 4.5 17.5 17.7V131h24.9zm68.7 2.4c-31.2 0-50.1-22.8-50.1-49.9 0-26.9 18.9-49.7 50.1-49.7 31.4 0 50.3 22.8 50.3 49.7 0 27.1-18.8 49.9-50.3 49.9zm0-22.2c15.5 0 24.4-12.8 24.4-27.7 0-14.7-8.8-27.5-24.4-27.5s-24.2 12.8-24.2 27.5c.1 14.9 8.7 27.7 24.2 27.7z" fill="var(--svg-image-color-empty, black)"/></symbol></svg>