<svg xmlns="http://www.w3.org/2000/svg" xmlns:xlink="http://www.w3.org/1999/xlink"><symbol id="icon-info" viewBox="0 0 14 14"><path d="M7 0C3.14 0 0 3.14 0 7s3.14 7 7 7 7-3.14 7-7-3.14-7-7-7zm0 12.727A5.734 5.734 0 011.273 7 5.734 5.734 0 017 1.273 5.734 5.734 0 0112.727 7 5.734 5.734 0 017 12.727z" stroke="transparent"/><path d="M7 2.97a.85.85 0 000 1.697.85.85 0 000-1.697zm0 2.97a.636.636 0 00-.636.636v3.818a.636.636 0 001.272 0V6.576A.636.636 0 007 5.939z" stroke="transparent"/></symbol><symbol id="icon-news" viewBox="0 0 22 21"><path d="M21.157 4.475h-4.594V.861A.855.855 0 0015.72 0H.843A.854.854 0 000 .86v16.697C0 19.455 1.513 21 3.372 21h15.256C20.487 21 22 19.455 22 17.557V5.337a.856.856 0 00-.843-.862zM14.89 17.86a3.474 3.474 0 00.443 1.424H3.372c-.932 0-1.686-.77-1.686-1.721V1.722h13.191v9.931c0 6.072 0 6.072.013 6.206zm3.738 1.42h-.379c-.931 0-1.686-.77-1.686-1.722V6.197h3.751v11.36c0 .951-.754 1.722-1.686 1.722z" fill="none"/><path d="M13.167 3H3.833C3.375 3 3 3.45 3 4s.375 1 .833 1h9.334c.458 0 .833-.45.833-1s-.375-1-.833-1zm0 3H3.833C3.375 6 3 6.45 3 7s.375 1 .833 1h9.334c.458 0 .833-.45.833-1s-.375-1-.833-1z" fill="none"/><rect x="3" y="10" width="11" height="7" rx="1" stroke-width="4" fill="none"/></symbol><symbol id="icon-service" viewBox="0 0 24 24"><path d="M12 15a3 3 0 100-6 3 3 0 000 6z" stroke-width="1.5" stroke-linecap="round" stroke-linejoin="round" fill="none"/><path d="M19.4 15a1.65 1.65 0 00.33 1.82l.06.06a1.998 1.998 0 010 2.83 1.998 1.998 0 01-2.83 0l-.06-.06a1.65 1.65 0 00-1.82-.33 1.65 1.65 0 00-1 1.51V21a2 2 0 01-4 0v-.09A1.65 1.65 0 009 19.4a1.65 1.65 0 00-1.82.33l-.06.06a1.998 1.998 0 01-2.83 0 2 2 0 010-2.83l.06-.06a1.65 1.65 0 00.33-1.82 1.65 1.65 0 00-1.51-1H3a2 2 0 110-4h.09A1.65 1.65 0 004.6 9a1.65 1.65 0 00-.33-1.82l-.06-.06a2 2 0 112.83-2.83l.06.06a1.65 1.65 0 001.82.33H9a1.65 1.65 0 001-1.51V3a2 2 0 114 0v.09a1.65 1.65 0 001 1.51 1.65 1.65 0 001.82-.33l.06-.06a2 2 0 013.417 1.415 2 2 0 01-.587 1.415l-.06.06a1.65 1.65 0 00-.33 1.82V9a1.65 1.65 0 001.51 1H21a2 2 0 010 4h-.09a1.65 1.65 0 00-1.51 1z" stroke-width="1.5" stroke-linecap="round" stroke-linejoin="round" fill="none"/></symbol><symbol id="icon-delivery" viewBox="0 0 27 18"><path d="M22.5 11.25a3.379 3.379 0 00-3.375 3.375A3.379 3.379 0 0022.5 18a3.379 3.379 0 003.375-3.375A3.379 3.379 0 0022.5 11.25zm0 4.857a1.484 1.484 0 01-1.483-1.482c0-.818.665-1.483 1.483-1.483.817 0 1.482.666 1.482 1.483 0 .817-.665 1.482-1.482 1.482zM17.14 0H.86C.385 0 0 .405 0 .905v13.94c0 .5.385.905.86.905h2.694v-1.81H1.72V1.81h14.56v13.035H18V.905c0-.5-.385-.905-.86-.905z" stroke="transparent"/><path d="M19.125 13.5H7.875v2.25h11.25V13.5z" stroke="transparent"/><path d="M5.625 11.25a3.379 3.379 0 00-3.375 3.375A3.379 3.379 0 005.625 18 3.379 3.379 0 009 14.625a3.379 3.379 0 00-3.375-3.375zm0 4.857a1.484 1.484 0 01-1.482-1.482c0-.818.664-1.483 1.482-1.483s1.482.666 1.482 1.483c0 .817-.665 1.482-1.482 1.482zm20.46-8.232h-9.21v1.73h8.295v4.414h-1.31v1.731h2.226c.505 0 .915-.387.915-.865V8.74c0-.478-.41-.865-.915-.865z" stroke="transparent"/><path d="M22.647 3.849c-.144-.292-.42-.474-.718-.474h-5.054v1.83h4.569L23.314 9l1.436-.882-2.103-4.27z"/></symbol><symbol id="icon-warranty" viewBox="0 0 19 24"><path d="M18.064 4.063c-4.423 0-7.81-3.69-7.867-3.752a.936.936 0 00-1.393 0C8.77.347 5.374 4.062.936 4.062A.937.937 0 000 5.001c0 8.24 1.66 15.368 9.098 18.908.254.121.55.121.804 0C17.358 20.361 19 13.208 19 5.001a.937.937 0 00-.936-.938zM9.5 22.017c-6.097-3.124-7.529-9.209-7.622-16.123 3.587-.335 6.38-2.5 7.622-3.64 1.242 1.14 4.035 3.305 7.622 3.64-.093 6.916-1.526 13-7.622 16.123zm-.961-9.104l3.81-3.815a.935.935 0 011.323 0 .939.939 0 010 1.325L9.2 14.902a.935.935 0 01-1.324 0l-2.549-2.553a.939.939 0 010-1.326.935.935 0 011.324 0l1.887 1.89z" stroke="transparent"/></symbol><symbol id="icon-docs-full" viewBox="0 0 26 32"><path d="M16 1H4a3 3 0 00-3 3v24a3 3 0 003 3h18a3 3 0 003-3V10l-9-9z" stroke-width="2" stroke-linecap="round" stroke-linejoin="round" fill="none"/><path d="M16 1v9h9m-6 7.5H7m12 6H7m3-12H7" stroke-width="2" stroke-linecap="round" stroke-linejoin="round"/></symbol></svg>