<svg xmlns="http://www.w3.org/2000/svg" xmlns:xlink="http://www.w3.org/1999/xlink"><symbol id="icon-benefit-0" viewBox="0 0 50 50"><path d="M14.516 48.387l4.032-4.839h13.71l3.226 4.84H14.516z" fill="#BC191D" fill-opacity=".3"/><path d="M44.355.806H5.645A5.652 5.652 0 000 6.452c.008 6.447 5.073 11.755 11.513 12.066a13.729 13.729 0 0011 11.084l-1.46 13.14h-2.505a.807.807 0 00-.619.29l-4.032 4.838a.806.806 0 00.62 1.324h20.967a.807.807 0 00.67-1.255l-3.225-4.838a.807.807 0 00-.67-.36H28.95l-1.464-13.14a13.729 13.729 0 0011-11.083C44.927 18.208 49.992 12.9 50 6.452A5.651 5.651 0 0044.355.806zM11.29 16.13v.776A10.498 10.498 0 011.613 6.452a4.037 4.037 0 014.032-4.033h5.645v13.71zm25.807 0c0 6.68-5.416 12.097-12.097 12.097-6.68 0-12.097-5.416-12.097-12.097V2.419h24.194v13.71zM22.675 42.742l1.438-12.903h1.774l1.434 12.903h-4.646zm-6.437 4.839l2.688-3.226h12.903l2.15 3.226H16.238zM38.71 16.905V2.419h5.645a4.037 4.037 0 014.032 4.033 10.498 10.498 0 01-9.677 10.453z" fill="#BC191D"/><circle cx="25" cy="14.286" r="4.714" fill="#BC191D" fill-opacity=".3" stroke="#BC191D" stroke-width="2"/></symbol><symbol id="icon-benefit-1" viewBox="0 0 50 50"><path d="M5.833 21.667v-8.215L25 6.182l19.166 7.27v8.215H5.834zm2.5 24.999v-10h3.334V40H15v-3.334h3.333v10h-10zm0-12.499v-10h3.334V27.5H15v-3.333h3.333v10h-10zm12.5 12.499v-10h3.334V40H27.5v-3.334h3.333v10h-10z" fill-opacity=".3" fill="#BC191D"/><path d="M49.462 9.22L25.294.054a.824.824 0 00-.59 0L.538 9.22A.833.833 0 000 10v39.166c0 .46.373.833.833.833h48.334c.46 0 .833-.373.833-.833V9.999a.833.833 0 00-.538-.779zm-6.129 39.112H6.667V22.5h36.666v25.833zm0-34.306v6.806H6.667v-6.806L25 7.07l18.333 6.955zm5 34.306H45V13.451a.834.834 0 00-.538-.78l-19.167-7.27a.824.824 0 00-.59 0l-19.167 7.27a.834.834 0 00-.538.78v34.881H1.667V10.574L25 1.724l23.333 8.85v37.758z" fill="#BC191D"/><path d="M22.5 11.667h5.833v1.666H22.5v-1.666zm0 3.333h5.833v1.667H22.5V15zM8.333 47.5h10c.46 0 .834-.373.834-.834v-10a.833.833 0 00-.834-.833h-10a.833.833 0 00-.833.834v10c0 .46.373.833.833.833zm4.167-10h1.667v1.666H12.5V37.5zm-3.333 0h1.666V40c0 .46.373.833.834.833H15c.46 0 .833-.373.833-.833v-2.5H17.5v8.333H9.167V37.5z" fill="#BC191D"/><path d="M10.833 43.333h5V45h-5v-1.667zM8.333 35h10c.46 0 .834-.373.834-.833v-10a.833.833 0 00-.834-.834h-10a.833.833 0 00-.833.834v10c0 .46.373.833.833.833zM12.5 25h1.667v1.667H12.5V25zm-3.333 0h1.666v2.5c0 .46.373.833.834.833H15c.46 0 .833-.372.833-.833V25H17.5v8.333H9.167V25z" fill="#BC191D"/><path d="M10.833 30.833h5V32.5h-5v-1.667zm10 16.667h10c.46 0 .834-.373.834-.834v-10a.833.833 0 00-.834-.833h-10a.833.833 0 00-.833.834v10c0 .46.373.833.833.833zM25 37.5h1.667v1.666H25V37.5zm-3.333 0h1.666V40c0 .46.373.833.834.833H27.5c.46 0 .833-.373.833-.833v-2.5H30v8.333h-8.333V37.5z" fill="#BC191D"/><path d="M23.333 43.333h5V45h-5v-1.667z" fill="#BC191D"/></symbol><symbol id="icon-benefit-2" viewBox="0 0 50 50"><path d="M2.42 5.645a1.613 1.613 0 010-3.226h1.612a1.613 1.613 0 010 3.226H2.42z" fill="#78B9EB" fill-opacity=".3"/><path d="M43.548 44.355a3.226 3.226 0 11-6.451 0 3.226 3.226 0 016.451 0zm-24.193 0a3.226 3.226 0 11-6.452 0 3.226 3.226 0 016.452 0zm22.58-27.42c0 6.681-5.416 12.097-12.096 12.097-6.681 0-12.097-5.416-12.097-12.097 0-6.68 5.416-12.096 12.097-12.096 6.68 0 12.096 5.416 12.096 12.096z" fill="#BC191D" fill-opacity=".3"/><path d="M12.903 38.71h29.363a2.41 2.41 0 002.359-1.875l4.548-19.718a.806.806 0 00-.786-.988h-5.686c-.41-6.803-6.048-12.11-12.863-12.11-6.816 0-12.452 5.307-12.863 12.11h-4.072a2.42 2.42 0 00-2.42 2.42V36.29a2.42 2.42 0 002.42 2.42zm-.806-20.162c0-.445.36-.806.806-.806h4.073c.411 6.803 6.048 12.11 12.864 12.11 6.815 0 12.452-5.307 12.863-12.11h4.672l-4.322 18.73a.807.807 0 01-.787.625H12.903a.806.806 0 01-.806-.807V18.548zM29.839 5.645c6.235 0 11.29 5.055 11.29 11.29 0 6.236-5.055 11.29-11.29 11.29-6.236 0-11.29-5.054-11.29-11.29.006-6.232 5.057-11.283 11.29-11.29z" fill="#BC191D"/><path d="M49.194 43.548h-4.92a4.032 4.032 0 00-7.903 0h-16.29a4.025 4.025 0 00-7.855-.154 7.225 7.225 0 01-5.774-7.104V4.032a2.42 2.42 0 00-2.42-2.42H2.42a2.42 2.42 0 000 4.84h1.613a2.39 2.39 0 00.807-.149V36.29a8.828 8.828 0 007.325 8.73 4.025 4.025 0 007.917.141h16.29a4.032 4.032 0 007.903 0h4.92a.807.807 0 000-1.613zM4.032 4.838H2.42a.806.806 0 010-1.612h1.613a.806.806 0 010 1.613zM16.13 46.775a2.42 2.42 0 110-4.839 2.42 2.42 0 010 4.84zm24.194 0a2.42 2.42 0 110-4.839 2.42 2.42 0 010 4.84z" fill="#BC191D"/><path d="M29.834 26.864a.807.807 0 00.806-.806V17.74h8.318a.807.807 0 000-1.613H30.64V7.81a.806.806 0 00-1.613 0v8.317H20.71a.807.807 0 000 1.613h8.317v8.318c0 .445.362.806.807.806z" fill="#BC191D"/></symbol><symbol id="icon-benefit-3" viewBox="0 0 50 50"><path d="M17.742 37.097v-7.258a7.258 7.258 0 1114.516 0v7.258H17.742zm12.097-20.161a4.839 4.839 0 11-9.678 0 4.839 4.839 0 019.678 0z" fill="#BC191D" fill-opacity=".3"/><path d="M27.264 22.103a5.646 5.646 0 10-4.528 0 8.074 8.074 0 00-5.8 7.736v7.258c0 .445.36.806.806.806h14.516a.807.807 0 00.806-.806v-7.258a8.074 8.074 0 00-5.8-7.736zm4.188 14.187H18.548v-6.45a6.451 6.451 0 1112.904 0v6.451zM25 12.903a4.032 4.032 0 110 8.065 4.032 4.032 0 010-8.065z" fill="#BC191D"/><path d="M49.194 24.194h-2.44C46.32 12.81 37.19 3.68 25.807 3.245V.806a.807.807 0 00-1.613 0v2.44C12.81 3.68 3.68 12.81 3.245 24.194H.806a.807.807 0 000 1.613h2.44C3.68 37.19 12.81 46.319 24.194 46.754v2.44a.807.807 0 001.613 0v-2.44c11.383-.435 20.512-9.564 20.947-20.947h2.44a.807.807 0 000-1.613zm-6.452 0a.807.807 0 000 1.613h2.4C44.707 36.3 36.3 44.707 25.805 45.14v-2.4a.807.807 0 00-1.613 0v2.4C13.7 44.708 5.293 36.301 4.86 25.807h2.4a.807.807 0 000-1.613h-2.4C5.292 13.7 13.699 5.291 24.194 4.858v2.4a.807.807 0 001.613 0v-2.4c10.493.433 18.901 8.84 19.334 19.335h-2.4zM2.42 8.065a.806.806 0 00.806-.807V3.226h4.032a.806.806 0 000-1.613H2.42a.806.806 0 00-.806.806v4.84c0 .444.361.806.806.806zm40.322-4.839h4.032v4.032a.806.806 0 001.613 0V2.42a.807.807 0 00-.806-.806h-4.84a.806.806 0 000 1.613zM7.258 46.774H3.226v-4.032a.807.807 0 00-1.613 0v4.839c0 .445.361.806.806.806h4.84a.806.806 0 000-1.613zm40.322-4.839a.807.807 0 00-.806.807v4.032h-4.032a.807.807 0 000 1.613h4.839a.807.807 0 00.806-.806v-4.84a.807.807 0 00-.806-.806z" fill="#BC191D"/></symbol></svg>