<svg xmlns="http://www.w3.org/2000/svg" xmlns:xlink="http://www.w3.org/1999/xlink"><symbol id="icon-usd" viewBox="0 0 9 18"><path d="M4.5 1v2m0 12v2M8 5s-.5-2-3.5-2S1 4.957 1 6c0 4.14 7 1.965 7 6 0 1.043-.5 3-3.5 3S1 13 1 13" stroke-width="1.5" stroke-linecap="round" fill="transparent"/></symbol><symbol id="icon-download" viewBox="0 0 18 20"><path d="M9 1v13m-5-4l5 5 5-5m3 9H1" stroke-width="1.5" stroke-linecap="round" fill="transparent"/></symbol><symbol id="icon-close" viewBox="0 0 33 33"><path d="M24.75 8.25l-16.5 16.5m0-16.5l16.5 16.5" stroke-width="2" stroke-linecap="round"/></symbol><symbol id="icon-mobile-menu" viewBox="0 0 22 16"><path d="M0 0h16v1.5H0zm0 7h22v1.5H0zm0 7h18v1.5H0z"/></symbol><symbol id="icon-menu" viewBox="0 0 24 24"><path d="M8 6h13M8 12h13M8 18h13M3 6h.01M3 12h.01M3 18h.01" stroke-width="2" stroke-linecap="round"/></symbol><symbol id="icon-search" viewBox="0 0 20 20"><path d="M12.714 12.714L19 19" stroke-width="1.5" stroke-linecap="round"/><path clip-rule="evenodd" d="M7.75 14.5a6.75 6.75 0 100-13.5 6.75 6.75 0 000 13.5z" stroke-width="1.5" fill="transparent"/></symbol><symbol id="icon-heart" viewBox="0 0 22 21"><path d="M11 19l-1.45-1.295C4.4 13.125 1 10.103 1 6.395 1 3.374 3.42 1 6.5 1c1.74 0 3.41.795 4.5 2.05A6.037 6.037 0 0115.5 1C18.58 1 21 3.374 21 6.395c0 3.708-3.4 6.73-8.55 11.32L11 19z" stroke-width="1.5" stroke-linecap="round" fill="transparent"/></symbol><symbol id="icon-user" viewBox="0 0 20 20"><path d="M1 19c0-3.375 4.5-3.375 6.75-5.625C8.875 12.25 5.5 12.25 5.5 6.625 5.5 2.875 7 1 10 1s4.5 1.875 4.5 5.625c0 5.625-3.375 5.625-2.25 6.75C14.5 15.625 19 15.625 19 19" stroke-width="1.5" stroke-linecap="round" fill="transparent"/></symbol><symbol id="icon-cart" viewBox="0 0 22 20"><path d="M21 5l-1.36 8.164a1 1 0 01-.987.836H6.601a1 1 0 01-.988-.848L3.87 1.848A1 1 0 002.88 1H1" stroke-width="1.5" stroke-linecap="round" fill="transparent"/><path clip-rule="evenodd" d="M8 19a1 1 0 100-2 1 1 0 000 2zm10 0a1 1 0 100-2 1 1 0 000 2z" stroke-width="1.5"/><path d="M21 5H5" stroke-width="1.5" stroke-linecap="round"/></symbol><symbol id="icon-check" viewBox="0 0 12 9"><path d="M.138 4.95A.48.48 0 010 4.635a.48.48 0 01.138-.315l.647-.63a.454.454 0 01.646 0l.046.045L4.015 6.39c.093.09.231.09.323 0L10.523.135h.046a.454.454 0 01.646 0l.646.63c.185.18.185.45 0 .63l-7.384 7.47A.424.424 0 014.154 9a.424.424 0 01-.323-.135l-3.6-3.78-.093-.135z"/></symbol><symbol id="icon-nav-display" viewBox="0 0 24 24"><rect x="5" y="1" width="14" height="22" rx="2" stroke-width="2" fill="transparent"/><path d="M8 16.01l7.7-6.6m-5.26.01L13.27 7m-2.83 11.48l2.83-2.43" stroke-width="1.7" stroke-linecap="round" stroke-linejoin="round"/><path d="M12 4a2 2 0 01-2-2h4a2 2 0 01-2 2z" fill="transparent"/></symbol><symbol id="icon-nav-tablet" viewBox="0 0 24 24"><rect x="3" y="1" width="18" height="22" rx="2" stroke-width="2" fill="transparent"/><path d="M12 4a2 2 0 01-2-2h4a2 2 0 01-2 2z" fill="transparent"/><circle cx="12" cy="19" r="1"/></symbol><symbol id="icon-nav-clock" viewBox="0 0 24 24"><rect x="5" y="6" width="14" height="12" rx="2" stroke-width="2" fill="transparent"/><rect x="8" y="1" width="8" height="5" rx="1" stroke-width="2" fill="transparent"/><rect x="8" y="18" width="8" height="5" rx="1" stroke-width="2" fill="transparent"/><rect x="19" y="10" width="3" height="3" rx="1" fill="transparent"/></symbol><symbol id="icon-nav-phone" viewBox="0 0 24 24"><rect x="5" y="1" width="14" height="22" rx="2" stroke-width="2" fill="transparent"/><circle cx="12" cy="19" r="1"/><path d="M10 4a2 2 0 01-2-2h8a2 2 0 01-2 2h-4z" fill="transparent"/></symbol><symbol id="icon-nav-camera" viewBox="0 0 24 24"><path d="M12 7.286c-3.23 0-5.86 2.67-5.86 5.952s2.63 5.953 5.86 5.953c3.23 0 5.86-2.67 5.86-5.953 0-3.282-2.63-5.952-5.86-5.952zm0 10c-2.197 0-3.984-1.816-3.984-4.048S9.803 9.191 12 9.191s3.984 1.815 3.984 4.047c0 2.232-1.787 4.048-3.984 4.048z" stroke="transparent"/><path d="M21.188 4.429h-3.45a.29.29 0 01-.258-.159l-.954-2.037A2.152 2.152 0 0014.58 1H9.486A2.152 2.152 0 007.54 2.233L6.586 4.27a.29.29 0 01-.258.159H2.812C1.262 4.429 0 5.71 0 7.286v12.857C0 21.718 1.262 23 2.813 23h18.375C22.738 23 24 21.718 24 20.143V7.286c0-1.576-1.262-2.857-2.813-2.857zm.937 15.714c0 .525-.42.952-.938.952H2.813a.946.946 0 01-.937-.952V7.286c0-.525.42-.953.938-.953h3.515c.826 0 1.569-.466 1.938-1.216l.008-.017.954-2.037a.29.29 0 01.258-.158h5.094c.11 0 .208.06.258.158l.955 2.037.008.017a2.151 2.151 0 001.938 1.216h3.448c.517 0 .938.428.938.953v12.857z" stroke="transparent"/><path d="M18.375 9.238a1 1 0 102 0 1 1 0 00-2 0z" stroke="transparent"/></symbol><symbol id="icon-nav-tool" viewBox="0 0 24 24"><path d="M10 1.8L9.4 3H6.6L6 1.8V0H4v2a1 1 0 00.1.4l1 2A1 1 0 006 5h1v6a1 1 0 100 2 1 1 0 00-.7.3l-1 1a1 1 0 00-.3.7v8a1 1 0 001 1h4a1 1 0 001-1v-8a1 1 0 00-.3-.7l-1-1A1 1 0 009 13a1 1 0 000-2V5h1a1 1 0 00.9-.6l1-2A.998.998 0 0012 2V0h-2v1.8zM9 22H7v-6.6l.4-.4h1.2l.4.4V22zM19 0h-4a1 1 0 00-1 1v8a1 1 0 00.3.7l1 1a1 1 0 00.7.3 1 1 0 100 2v11h2V13a1 1 0 100-2 1 1 0 00.7-.3l1-1A1 1 0 0020 9V1a1 1 0 00-1-1zm-1 8.6s-.21.286-.4.4c-.402.241-.798.241-1.2 0-.19-.114-.4-.4-.4-.4V2h2v6.6z" stroke="transparent"/></symbol><symbol id="icon-nav-xioami" viewBox="0 0 24 24"><rect x="1" y="1" width="22" height="22" rx="2" stroke-width="2" fill="transparent"/><path d="M11 7c2.1 0 3.9 1.7 4 3.8V16c0 .6-.4 1-1 1-.5 0-.9-.4-1-.9v-5c0-1.1-.9-2-2-2.1H7.2c-.1 0-.2.1-.2.2V16c0 .6-.4 1-1 1-.5 0-.9-.4-1-.9V8.2C5 7.5 5.5 7 6.2 7H11zM18 7c.6 0 1 .4 1 1v8c0 .6-.4 1-1 1s-1-.4-1-1V8c0-.6.4-1 1-1z" fill="transparent"/><path d="M10 11c.6 0 1 .4 1 1v4c0 .6-.4 1-1 1s-1-.4-1-1v-4c0-.6.4-1 1-1z" fill="transparent"/></symbol><symbol id="icon-nav-battery" viewBox="0 0 24 24"><rect x="6" y="3" width="12" height="20" rx="2" stroke-width="2" fill="transparent"/><rect x="9" width="6" height="3" rx="1" fill="transparent"/><path d="M13.867 6L8 14.031h3.719L10.133 20 16 11.969h-3.719L13.867 6z" fill="transparent"/></symbol><symbol id="icon-nav-accessory" viewBox="0 0 24 24"><path d="M19.77 0H7.22C5.99 0 4.99.954 4.99 2.129v15.616a3.398 3.398 0 00-2.117 1.001A3.032 3.032 0 002 20.866C2 22.591 3.485 24 5.309 24H18.69c.873 0 1.696-.323 2.319-.903a3.067 3.067 0 00.99-2.194V2.129C22 .954 21 0 19.77 0zm-3.858 22.55H5.309c-.985 0-1.79-.753-1.79-1.684 0-.931.805-1.685 1.79-1.685h10.573a3.014 3.014 0 00.03 3.368zm2.411-3.378a.735.735 0 00.638-.716c0-.398-.343-.725-.76-.725H6.51V2.129c0-.375.318-.679.71-.679h12.55c.392 0 .71.304.71.679v18.746c-.02.922-.818 1.675-1.789 1.675-.985 0-1.789-.768-1.789-1.708 0-.805.598-1.506 1.421-1.67z" stroke="transparent"/><path d="M10 15.01l7.7-6.6m-5.26.01L15.27 6" stroke-width="1.7" stroke-linecap="round" stroke-linejoin="round" stroke="transparent"/><path d="M12 3a2 2 0 01-2-2h8a2 2 0 01-2 2h-4z" stroke="transparent"/></symbol><symbol id="icon-arrow-right" viewBox="0 0 6 10"><path d="M6 5L.916 10 0 9.099 4.165 5 0 .901.916 0 6 5z"/></symbol><symbol id="icon-schedule" viewBox="0 0 27 24"><path d="M24.2 2.042h-1.694V.702a.705.705 0 00-1.407 0v1.34h-6.892V.702a.705.705 0 00-1.407 0v1.34H5.837V.702a.704.704 0 00-1.406 0v1.34H2.806C1.26 2.042 0 3.339 0 4.882v16.312A2.803 2.803 0 002.806 24h21.388A2.801 2.801 0 0027 21.2V4.884c.007-1.544-1.252-2.841-2.8-2.841zm1.4 19.152c0 .771-.619 1.396-1.392 1.403H2.806c-.773 0-1.4-.625-1.4-1.396V4.883c0-.779.627-1.438 1.4-1.438h1.625v1.017a.704.704 0 001.406 0V3.445H12.8v1.017a.704.704 0 001.407 0V3.445h6.892v1.017a.704.704 0 001.407 0V3.445H24.2c.78 0 1.4.666 1.4 1.438v16.31z"/><path d="M11.74 8h-1.316c-.414 0-.752.36-.752.8 0 .44.338.8.752.8h1.316c.414 0 .752-.36.752-.8 0-.44-.338-.8-.752-.8zM16.576 8H15.26c-.414 0-.753.36-.753.8 0 .44.339.8.753.8h1.316c.414 0 .752-.36.752-.8 0-.44-.33-.8-.752-.8zM21.815 8h-1.317c-.413 0-.752.36-.752.8 0 .44.339.8.753.8h1.316c.414 0 .752-.36.752-.8 0-.44-.338-.8-.752-.8zM11.74 12.8h-1.316c-.414 0-.752.36-.752.8 0 .44.338.8.752.8h1.316c.414 0 .752-.36.752-.8 0-.44-.338-.8-.752-.8zM6.912 12.8H5.588c-.414 0-.752.36-.752.8 0 .44.338.8.752.8h1.316c.414 0 .753-.36.753-.8 0-.44-.331-.8-.745-.8zM16.576 12.8H15.26c-.414 0-.753.36-.753.8 0 .44.339.8.753.8h1.316c.414 0 .752-.36.752-.8 0-.44-.33-.8-.752-.8zM21.815 12.8h-1.317c-.413 0-.752.36-.752.8 0 .44.339.8.753.8h1.316c.414 0 .752-.36.752-.8 0-.44-.338-.8-.752-.8zM11.74 17.6h-1.316c-.414 0-.752.36-.752.8 0 .44.338.8.752.8h1.316c.414 0 .752-.36.752-.8 0-.44-.338-.8-.752-.8zM6.912 17.6H5.588c-.414 0-.752.36-.752.8 0 .44.338.8.752.8h1.316c.414 0 .753-.36.753-.8 0-.44-.331-.8-.745-.8zM16.576 17.6H15.26c-.414 0-.753.36-.753.8 0 .44.339.8.753.8h1.316c.414 0 .752-.36.752-.8 0-.44-.33-.8-.752-.8z"/></symbol><symbol id="icon-docs" viewBox="0 0 18 22"><path d="M11 1H3a2 2 0 00-2 2v16a2 2 0 002 2h12a2 2 0 002-2V7l-6-6zm0 0v6h6M6 11h4m-4 5h6" stroke-width="1.5" stroke-linecap="round" stroke-linejoin="round"/></symbol><symbol id="icon-warning" viewBox="0 0 23 20"><path d="M9.781 1.957L1.27 16.017a1.973 1.973 0 00.722 2.708c.302.176.646.271.997.275h17.024c.351-.004.695-.099.997-.275a2 2 0 00.727-.729 1.973 1.973 0 00-.005-1.979l-8.513-14.06a2 2 0 00-.732-.701 2.027 2.027 0 00-2.705.701zM11.5 6.965v3.978m0 3.977h.01" stroke-width="1.5" stroke-linecap="round" stroke-linejoin="round"/></symbol><symbol id="icon-apple-pay" viewBox="0 0 58 29"><path d="M33.176 19V9.2h4.004c1.157 0 2.072.313 2.744.938.672.625 1.008 1.451 1.008 2.478 0 1.092-.373 1.941-1.12 2.548-.747.597-1.694.896-2.842.896h-1.638V19h-2.156zm2.156-4.858h1.708c.532 0 .947-.14 1.246-.42.308-.28.462-.644.462-1.092 0-.476-.154-.84-.462-1.092-.308-.261-.737-.392-1.288-.392h-1.666v2.996zm8.963 4.998c-.738 0-1.354-.205-1.848-.616-.486-.41-.728-.98-.728-1.708 0-.793.27-1.39.812-1.792.55-.401 1.288-.602 2.212-.602.625 0 1.236.103 1.834.308v-.126c0-.915-.537-1.372-1.61-1.372-.644 0-1.335.135-2.072.406l-.532-1.624a7.169 7.169 0 012.912-.602c1.13 0 1.974.28 2.534.84.541.541.812 1.34.812 2.394V19h-2.058v-.812c-.57.635-1.326.952-2.268.952zm.644-1.47c.495 0 .896-.121 1.204-.364a1.18 1.18 0 00.462-.952v-.378a3.182 3.182 0 00-1.358-.28c-.467 0-.83.093-1.092.28-.252.177-.378.439-.378.784 0 .28.107.504.322.672.215.159.495.238.84.238zm7.032 3.612a3.67 3.67 0 01-1.89-.518l.714-1.54c.326.196.63.294.91.294.336 0 .583-.163.742-.49l-2.94-7.532h2.254l1.708 5.11 1.638-5.11h2.212l-2.884 7.686c-.29.775-.616 1.316-.98 1.624-.364.317-.86.476-1.484.476z" fill="#fff"/><path d="M17.368.032c-1.363.156-3.293 1.348-4.252 2.623a6.893 6.893 0 00-1.108 2.151c-.164.55-.368 1.483-.145 2.047.044.11.128.126.717.13 2.288.015 4.27-1.963 5.026-3.972.261-.695.379-1.339.412-2.255l.02-.588-.087-.086c-.097-.097-.15-.1-.583-.05z"/><path d="M17.058 6.922c-1.282.099-2.545.535-3.734.997-.777.302-.777.302-.931.329-.269.043-.925-.146-2.054-.598-1.354-.541-2.702-.82-4.146-.517-2.274.477-4.018 1.963-5.031 4.004-.369.737-.64 1.458-.841 2.225-1.03 3.932.55 8.656 2.85 11.894.197.276.397.55.597.825.587.8.885 1.165 1.317 1.6.453.459.818.724 1.334.977.583.282.837.345 1.373.342.687 0 1.24-.14 2.292-.578 1.69-.704 3.33-.675 5.012-.007.898.36 1.532.518 2.195.558.965.06 1.896-.365 2.891-1.311 1.016-.973 1.964-2.305 2.922-4.102.357-.672.552-1.4.86-2.084.176-.392-.336-.585-.615-.725-.814-.415-1.615-1.126-2.155-1.926-1.716-2.56-1.279-6.893 1.642-8.485.11-.063.251-.16.312-.22.184-.179.157-.248-.305-.786-1.126-1.31-2.757-2.162-4.476-2.383a6.393 6.393 0 00-1.309-.029z"/></symbol><symbol id="icon-google-pay" viewBox="0 0 58 24"><path d="M33.176 17V7.2h4.004c1.157 0 2.072.313 2.744.938.672.625 1.008 1.451 1.008 2.478 0 1.092-.373 1.941-1.12 2.548-.747.597-1.694.896-2.842.896h-1.638V17h-2.156zm2.156-4.858h1.708c.532 0 .947-.14 1.246-.42.308-.28.462-.644.462-1.092 0-.476-.154-.84-.462-1.092-.308-.261-.737-.392-1.288-.392h-1.666v2.996zm8.963 4.998c-.738 0-1.354-.205-1.848-.616-.486-.41-.728-.98-.728-1.708 0-.793.27-1.39.812-1.792.55-.401 1.288-.602 2.212-.602.625 0 1.236.103 1.834.308v-.126c0-.915-.537-1.372-1.61-1.372-.644 0-1.335.135-2.072.406l-.532-1.624a7.168 7.168 0 012.912-.602c1.13 0 1.974.28 2.534.84.541.541.812 1.34.812 2.394V17h-2.058v-.812c-.57.635-1.326.952-2.268.952zm.644-1.47c.495 0 .896-.121 1.204-.364a1.18 1.18 0 00.462-.952v-.378a3.182 3.182 0 00-1.358-.28c-.467 0-.83.093-1.092.28-.252.177-.378.439-.378.784 0 .28.107.504.322.672.215.159.495.238.84.238zm7.032 3.612a3.67 3.67 0 01-1.89-.518l.714-1.54c.326.196.63.294.91.294.336 0 .583-.163.742-.49l-2.94-7.532h2.254l1.708 5.11 1.638-5.11h2.212l-2.884 7.686c-.29.775-.616 1.316-.98 1.624-.364.317-.86.476-1.484.476z" fill="#fff"/><path d="M24 12.38c0-.796-.069-1.596-.216-2.38H12v4.512h6.748c-.28 1.455-1.18 2.742-2.497 3.56V21h4.026C22.641 18.96 24 15.946 24 12.38z" fill="#4285F4"/><path d="M11.908 24c3.293 0 6.07-1.096 8.092-2.986l-3.934-3.091c-1.094.754-2.507 1.182-4.153 1.182-3.185 0-5.885-2.178-6.854-5.105H1v3.186C3.072 21.364 7.293 24 11.908 24z" fill="#34A853"/><path d="M5 14.845a7.855 7.855 0 010-4.69V7H1.213a13.077 13.077 0 000 11L5 14.845z" fill="#FBBC04"/><path d="M11.865 4.894a6.547 6.547 0 014.664 1.853L20 3.217A11.579 11.579 0 0011.865.001C7.268 0 3.064 2.636 1 6.815L5.039 10c.96-2.93 3.654-5.106 6.826-5.106z" fill="#EA4335"/></symbol><symbol id="icon-mastercard" viewBox="0 0 36 28"><path d="M6.494 27.654V25.81c0-.698-.433-1.16-1.159-1.16-.363 0-.768.127-1.047.518-.21-.336-.517-.517-.978-.517-.307 0-.615.098-.852.433v-.363h-.642v2.933h.642v-1.62c0-.517.28-.769.698-.769.42 0 .643.28.643.768v1.62h.642v-1.62c0-.516.308-.768.699-.768.433 0 .642.28.642.768v1.62h.712zm9.54-2.947h-1.048v-.894h-.643v.894h-.586v.586h.587v1.355c0 .67.279 1.075 1.005 1.075.28 0 .587-.097.796-.21l-.181-.558a1 1 0 01-.559.154c-.307 0-.433-.182-.433-.489v-1.313h1.048v-.6h.014zm5.46-.07a.864.864 0 00-.768.433v-.363h-.642v2.947h.642v-1.662c0-.49.21-.769.615-.769.125 0 .28.028.405.056l.181-.614c-.125-.028-.307-.028-.433-.028zm-8.254.307c-.307-.21-.74-.307-1.2-.307-.741 0-1.23.363-1.23.95 0 .488.363.768 1.006.852l.307.027c.335.056.517.154.517.308 0 .21-.252.363-.67.363-.42 0-.769-.154-.978-.307l-.308.488c.336.252.796.363 1.257.363.852 0 1.355-.405 1.355-.95 0-.516-.405-.795-1.005-.893l-.308-.028c-.28-.028-.489-.098-.489-.28 0-.209.21-.335.559-.335.363 0 .74.154.922.252l.265-.503zm17.11-.307a.864.864 0 00-.769.433v-.363h-.642v2.947h.642v-1.662c0-.49.21-.769.615-.769.125 0 .279.028.405.056l.181-.614c-.125-.028-.307-.028-.433-.028zm-8.213 1.536c0 .894.614 1.536 1.564 1.536.433 0 .74-.097 1.048-.335l-.308-.516c-.251.181-.488.279-.768.279-.517 0-.894-.363-.894-.95 0-.559.363-.922.894-.95.28 0 .517.098.768.28L24.75 25c-.308-.252-.615-.335-1.048-.335-.95-.028-1.564.628-1.564 1.508zm5.95 0v-1.466h-.643v.363c-.21-.28-.517-.433-.922-.433-.824 0-1.466.642-1.466 1.536s.642 1.536 1.466 1.536c.433 0 .74-.153.922-.433v.364h.643v-1.467zm-2.36 0c0-.517.334-.95.893-.95.517 0 .894.405.894.95 0 .517-.363.95-.894.95-.559-.028-.894-.42-.894-.95zm-7.696-1.536c-.852 0-1.467.614-1.467 1.536s.615 1.536 1.509 1.536c.433 0 .852-.125 1.2-.405l-.306-.46c-.252.181-.56.307-.852.307-.405 0-.797-.182-.894-.698h2.178V26.2c.014-.95-.544-1.564-1.368-1.564zm0 .558c.405 0 .67.252.74.699h-1.536c.056-.391.335-.698.796-.698zm15.977.978v-2.64h-.642v1.537c-.21-.28-.517-.433-.922-.433-.824 0-1.466.642-1.466 1.536s.642 1.536 1.466 1.536c.433 0 .74-.153.922-.433v.364h.642v-1.467zm-2.374 0c0-.517.335-.95.894-.95.517 0 .894.405.894.95 0 .517-.363.95-.894.95-.545-.028-.894-.42-.894-.95zm-21.522 0v-1.466h-.643v.363c-.21-.28-.517-.433-.922-.433-.824 0-1.466.642-1.466 1.536s.642 1.536 1.466 1.536c.433 0 .74-.153.922-.433v.364h.643v-1.467zm-2.389 0c0-.517.336-.95.894-.95.517 0 .894.405.894.95 0 .517-.363.95-.894.95-.558-.028-.894-.42-.894-.95z" fill="#fff"/><path d="M22.696 2.36h-9.665v17.36h9.665V2.36z" fill="#FF5F00"/><path d="M13.645 11.034c0-3.52 1.662-6.649 4.204-8.674A10.928 10.928 0 0011.034 0 11.021 11.021 0 000 11.034a11.021 11.021 0 0017.835 8.673 11.03 11.03 0 01-4.19-8.673z" fill="#EB001B"/><path d="M35.712 11.034a11.021 11.021 0 01-17.835 8.673 11 11 0 004.204-8.673c0-3.52-1.662-6.662-4.204-8.674A10.918 10.918 0 0124.68 0c6.103 0 11.033 4.958 11.033 11.034z" fill="#F79E1B"/></symbol><symbol id="icon-visa" viewBox="0 0 66 20"><path d="M23.523 19L26.99 0h5.533l-3.468 19h-5.532zM48.523.815C47.47.407 45.818 0 43.715 0c-5.296 0-9.014 2.63-9.014 6.37-.038 2.778 2.666 4.334 4.695 5.26 2.065.963 2.779 1.555 2.779 2.407 0 1.296-1.652 1.889-3.192 1.889-2.141 0-3.268-.296-5.033-1l-.676-.296-.752 4.333c1.24.555 3.569 1 5.972 1.037 5.634 0 9.277-2.593 9.315-6.593.037-2.185-1.39-3.888-4.47-5.259-1.878-.889-3.004-1.481-3.004-2.407 0-.815.976-1.667 3.042-1.667 1.765-.037 3.005.333 3.981.74l.488.223.677-4.222zM61.275 0h-4.098c-1.266 0-2.235.328-2.794 1.568L46.523 19h5.55s.895-2.334 1.118-2.845h6.78c.15.657.634 2.845.634 2.845h4.917L61.275 0zm-6.52 12.253c.448-1.094 2.124-5.324 2.124-5.324-.037.036.447-1.094.708-1.823l.373 1.64s1.006 4.56 1.23 5.507h-4.434zM19.807 0l-5.26 12.983-.568-2.626c-.984-3.063-4.05-6.382-7.457-8.023L11.33 19h5.715l8.479-19h-5.716z" fill="#005098"/><path d="M9.202 0H.598L.522.426c6.726 1.666 11.16 5.732 13 10.574l-1.878-9.296C11.306.426 10.366.04 9.202 0z" fill="#F7A600"/></symbol><symbol id="icon-phone" viewBox="0 0 18 30"><path d="M12.75 2.5h-3a.75.75 0 100 1.5h3a.75.75 0 100-1.5z"/><path d="M15 0H3C1.346 0 0 1.346 0 3v24c0 1.654 1.346 3 3 3h12c1.654 0 3-1.346 3-3V3c0-1.654-1.346-3-3-3zm1.5 27a1.5 1.5 0 01-1.5 1.5H3A1.5 1.5 0 011.5 27V3A1.5 1.5 0 013 1.5h12A1.5 1.5 0 0116.5 3v24z"/><path d="M9 27.5a1.5 1.5 0 100-3 1.5 1.5 0 000 3zM7.25 4a.75.75 0 100-1.5.75.75 0 000 1.5z"/></symbol><symbol id="icon-facebook" viewBox="0 0 13 24"><path d="M.387 12.784H3.02v10.829c0 .213.175.387.387.387h4.462a.388.388 0 00.387-.387v-10.78h3.029a.395.395 0 00.387-.34l.455-3.987a.378.378 0 00-.097-.3.402.402 0 00-.29-.125H8.255V5.574c0-.755.406-1.132 1.21-1.132h2.274a.388.388 0 00.387-.387V.387A.388.388 0 0011.739 0H8.448C7.906 0 6.01.106 4.52 1.48 2.865 3.01 3.097 4.83 3.145 5.149v2.923H.387A.388.388 0 000 8.458v3.939c0 .213.174.387.387.387z"/></symbol><symbol id="icon-telegram" viewBox="0 0 28 24"><path d="M6.622 13.904l3.359 8.49 4.372-4.42L21.846 24l5.279-24-27 11.376 6.497 2.528zM19.41 6.885l-8.264 7.627-1.028 3.925-1.904-4.81L19.41 6.885z"/></symbol><symbol id="icon-instagram" viewBox="0 0 24 24"><path d="M11.991 7.947a4.043 4.043 0 00-4.044 4.044c0 2.235 1.81 4.062 4.044 4.062a4.043 4.043 0 004.045-4.044 4.036 4.036 0 00-4.045-4.062z"/><path d="M17.366 0H6.616A6.616 6.616 0 000 6.616v10.75a6.616 6.616 0 006.616 6.616h10.75a6.616 6.616 0 006.616-6.616V6.616A6.616 6.616 0 0017.366 0zM11.99 18.182a6.177 6.177 0 01-6.173-6.173 6.177 6.177 0 016.173-6.173 6.177 6.177 0 016.173 6.173c.018 3.406-2.75 6.173-6.173 6.173zM19.548 6.67a1.563 1.563 0 01-2.2 0 1.563 1.563 0 010-2.2 1.563 1.563 0 012.2 0c.284.284.46.692.46 1.1a1.671 1.671 0 01-.46 1.1z"/></symbol><symbol id="icon-viber" viewBox="0 0 23 24"><path d="M6.118 24a.973.973 0 01-.978-.973c0-.432-.04-1.253-.077-1.977-.02-.424-.04-.81-.051-1.113-1.49-.53-2.66-1.423-3.479-2.659-.726-1.095-1.167-2.37-1.348-3.896-.33-2.785-.22-5.243.34-7.513.602-2.444 2.106-4.115 4.47-4.966C6.73.28 8.596 0 11.045 0a48.4 48.4 0 011.914.043c1.505.06 2.746.24 3.904.566 1.39.392 2.838.88 3.918 2.137.68.79 1.166 1.762 1.487 2.97.526 1.978.657 4.159.413 6.863-.099 1.09-.23 2.248-.663 3.377-.822 2.144-2.44 3.534-4.806 4.13a25.362 25.362 0 01-7.096.736 1.922 1.922 0 00-.043.045.963.963 0 01-.046.048c-.994.948-2.48 2.188-3.04 2.655l-.213.178a.982.982 0 01-.657.252zm4.928-22.055c-2.212 0-3.873.243-5.386.788-1.734.624-2.792 1.801-3.235 3.599-.503 2.04-.6 4.272-.297 6.822.144 1.219.484 2.218 1.038 3.053.624.941 1.51 1.585 2.708 1.967.894.285 1.083.887 1.084 1.341 0 .255.029.83.06 1.439l.001.037a45.844 45.844 0 001.63-1.457c.205-.224.659-.688 1.449-.66.316.012.634.018.946.018a23.33 23.33 0 005.689-.693c1.76-.443 2.86-1.376 3.457-2.936.344-.898.453-1.864.543-2.858.226-2.506.116-4.416-.356-6.193-.244-.918-.598-1.639-1.083-2.203-.725-.845-1.816-1.205-2.963-1.529-1.006-.283-2.102-.44-3.45-.493a46.435 46.435 0 00-1.835-.042z"/><path d="M16.491 14.537c-.085.754-.501 1.175-.917 1.578-.469.454-1.027.724-1.696.458a19.561 19.561 0 01-1.51-.684 14.219 14.219 0 01-4.086-3.078c-1.39-1.499-2.478-3.19-3.117-5.144-.168-.511-.08-.967.325-1.317a9.489 9.489 0 011.185-.886.77.77 0 01.941.074c.765.678 1.39 1.47 1.796 2.41.137.32.107.656-.207.903-.154.12-.299.253-.45.377-.415.342-.48.58-.313 1.086.378 1.15 1.19 1.947 2.17 2.59.332.216.718.356 1.092.497.319.12.585-.012.79-.27.107-.136.21-.273.32-.406.313-.378.862-.503 1.27-.231.718.477 1.424.975 2.105 1.502.171.132.231.407.302.54zM17.52 11.291a.488.488 0 01-.489-.486c0-3.37-2.756-6.11-6.144-6.11a.488.488 0 01-.49-.487c0-.269.22-.486.49-.486 3.927 0 7.122 3.177 7.122 7.083a.488.488 0 01-.489.486z"/><path d="M15.711 11.292a.488.488 0 01-.49-.487c0-2.377-1.944-4.311-4.334-4.311a.488.488 0 01-.49-.487c0-.268.22-.486.49-.486 2.93 0 5.313 2.37 5.313 5.284a.488.488 0 01-.489.487z"/><path d="M13.902 11.292a.488.488 0 01-.49-.487 2.522 2.522 0 00-2.525-2.512.488.488 0 01-.49-.486c0-.269.22-.487.49-.487 1.932 0 3.504 1.564 3.504 3.485a.488.488 0 01-.489.487z"/></symbol><symbol id="icon-32x32" viewBox="0 0 90 22"><path fill-rule="evenodd" clip-rule="evenodd" d="M15.882 15.868v2.475h5.776v1.234h-5.776v.619h6.353v-2.472H16.46v-1.237h5.775v-.619h-6.353zM38.47 9.522H22.794V7.141H38.47V0h-18v2.381h15.678V4.76H20.47v7.14h18V9.523zM69.53 11.9V0h-18v2.381h15.677V4.76H51.53v2.38h15.678v2.381H51.53V11.9h18z"/><path d="M24 15.868h-.706v4.328H24v-4.328z"/><path fill-rule="evenodd" clip-rule="evenodd" d="M5.776 15.905H0v4.284h6.353v-6.124h-.577v1.84zM.577 19.583h5.199v-3.065H.577v3.065zM18.353 11.9V0h-18v2.381h15.678V4.76H.353v2.38h15.678v2.381H.353V11.9h18zM7.765 15.868v4.32h7.058v-.608H8.352v-1.237h6.471v-2.475H7.765zm.587 1.856h5.881v-1.237H8.352v1.237zM72 0v2.381h15.678V4.76H72v7.14h18V9.523H74.322V7.141H90V0H72zM25.412 15.868v4.292h5.775v1.226h-5.775V22h6.353v-6.132h-6.353zm.577 3.68h5.198v-3.066H25.99v3.067z"/><path d="M82.235 15.868h-.706v4.328h.706v-4.328z"/><path fill-rule="evenodd" clip-rule="evenodd" d="M83.647 20.188H90v-4.32h-6.353v4.32zm.577-.616h5.199v-3.106h-5.199v3.106zM72.469 19.577h-5.882v-3.709H66v4.328h7.059v-4.328h-.59v3.71zM79.893 15.905h-5.776v4.284h6.353v-6.124h-.577v1.84zm-5.198 3.678h5.198v-3.065h-5.198v3.065zM59.165 14.065h-.577v6.131h6.353v-.61h-5.776v-3.068h5.776v-.613h-5.776v-1.84zM32.824 15.868v4.328h.577v-3.71h5.198v3.71h.578v-4.328h-6.353zM46.94 2.886l-1.764 2.042-1.765-2.042h-1.764l2.647 3.064-2.647 3.067h1.764l1.765-2.044 1.765 2.044h1.764L46.058 5.95l2.647-3.064h-1.764zM50.118 15.868v2.475h6.469v1.234h-6.47v.619h7.06v-2.472h-6.472v-1.237h6.471v-.619h-7.058z"/></symbol><symbol id="icon-arrow-up" viewBox="0 0 16 16"><path d="M12 10L8 6l-4 4" stroke-linecap="round" stroke-linejoin="round" fill="transparent"/></symbol><symbol id="icon-home" viewBox="0 0 576 512"><path d="M541 229.16l-232.85-190a32.16 32.16 0 00-40.38 0L35 229.16a8 8 0 00-1.16 11.24l10.1 12.41a8 8 0 0011.2 1.19L96 220.62v243a16 16 0 0016 16h128a16 16 0 0016-16v-128l64 .3V464a16 16 0 0016 16l128-.33a16 16 0 0016-16V220.62L520.86 254a8 8 0 0011.25-1.16l10.1-12.41a8 8 0 00-1.21-11.27zm-93.11 218.59h.1l-96 .3V319.88a16.05 16.05 0 00-15.95-16l-96-.27a16 16 0 00-16.05 16v128.14H128V194.51L288 63.94l160 130.57z"/></symbol><symbol id="icon-notify" viewBox="0 0 20 20"><path d="M19 13a2 2 0 01-2 2H5l-4 4V3a2 2 0 012-2h14a2 2 0 012 2v10z" stroke-width="2" stroke-linecap="round" stroke-linejoin="round" fill="none"/></symbol></svg>