<svg viewBox="0 0 36 44">
  <path d="M26.0522 0.0475531C24.0067 0.281676 21.1119 2.06998 19.6745 3.98281C18.9468 4.95118 18.3568 6.04857 18.0115 7.20922C17.7663 8.03314 17.4592 9.43389 17.7949 10.2792C17.8602 10.4436 17.9859 10.4685 18.8704 10.4735C22.302 10.4969 25.2737 7.53002 26.4091 4.51581C26.8011 3.47471 26.977 2.50833 27.0272 1.13348L27.0574 0.251788L26.9267 0.122273C26.781 -0.0221863 26.7006 -0.0271673 26.0522 0.0475531Z" fill="black"/>
  <path d="M25.5877 11.0307C23.6633 11.178 21.7692 11.8296 19.986 12.5189C18.8201 12.9702 18.8201 12.9702 18.5889 13.0099C18.1868 13.0744 17.2018 12.7917 15.5086 12.1173C13.4782 11.3089 11.4549 10.8928 9.28879 11.3456C5.87884 12.0582 3.26245 14.2765 1.74268 17.3244C1.18985 18.4253 0.782766 19.5015 0.481223 20.647C-1.06268 26.5187 1.30745 33.5741 4.7571 38.4083C5.05211 38.8219 5.35215 39.2316 5.65269 39.6407C6.53219 40.8359 6.97947 41.3814 7.62779 42.031C8.30626 42.7154 8.85407 43.1121 9.62803 43.489C10.5025 43.9106 10.8845 44.0048 11.6886 43.9998C12.7188 43.9998 13.5481 43.7915 15.1257 43.1369C17.6606 42.0856 20.1207 42.1287 22.6446 43.127C23.9915 43.6626 24.9414 43.9006 25.9365 43.9601C27.3839 44.0494 28.781 43.4146 30.2737 42.0013C31.7965 40.5482 33.2187 38.5596 34.6561 35.8762C35.1918 34.8734 35.4838 33.7849 35.9457 32.7643C36.2105 32.1791 35.4426 31.89 35.023 31.6812C33.8017 31.0613 32.6006 30.0001 31.7914 28.8049C29.2173 24.9833 29.8731 18.5121 34.254 16.1342C34.4199 16.04 34.631 15.8961 34.7214 15.8069C34.9978 15.5391 34.9576 15.4349 34.2641 14.6316C32.5749 12.6747 30.1289 11.4041 27.5507 11.0733C26.8954 10.989 26.2395 10.9811 25.5877 11.0307Z" fill="black"/>
</svg>
