<svg viewBox="0 0 32 28">
  <path d="M29.588 10.3324L27.3438 2.85156C26.832 1.14551 25.292 0 23.5117 0H8.48828C6.70801 0 5.16796 1.14551 4.65624 2.85156L2.41198 10.3324C0.994866 10.9482 0 12.3585 0 14V22C0 23.1045 0.895508 24 2 24H2.00012L2 25.9999C2 27.1045 2.89539 28 4 28H6.00012C7.10461 28 8.00012 27.1045 8.00012 26L7.99926 24H24L23.9999 25.9999C23.9999 27.1045 24.8953 28 25.9999 28H28C29.1046 28 30 27.1045 30 26V24.0001L29.9993 24H30C31.1045 24 32 23.1045 32 22V14C32 12.3585 31.0051 10.9482 29.588 10.3324L29.588 10.3324ZM8.48822 4H23.5117L25.3117 10H6.68817L8.48822 4H8.48822ZM7.99994 19C6.89532 19 5.99994 18.1045 5.99994 17C5.99994 15.8954 6.89532 15 7.99994 15C9.10455 15 9.99994 15.8954 9.99994 17C9.99994 18.1045 9.10455 19 7.99994 19ZM23.9999 19C22.8953 19 21.9999 18.1045 21.9999 17C21.9999 15.8954 22.8953 15 23.9999 15C25.1045 15 25.9999 15.8954 25.9999 17C25.9999 18.1045 25.1045 19 23.9999 19Z" fill="var(--svg-image-color-empty, #bc191d)" />
</svg>
