<svg viewBox="0 0 36 36">
  <path d="M0 14.625V28.125C0 29.367 1.01025 30.375 2.25 30.375H33.75C34.992 30.375 36 29.367 36 28.125V14.625H0ZM12.375 23.625H5.625C5.004 23.625 4.5 23.121 4.5 22.5C4.5 21.879 5.004 21.375 5.625 21.375H12.375C12.996 21.375 13.5 21.879 13.5 22.5C13.5 23.121 12.996 23.625 12.375 23.625ZM28.125 25.875C27.2565 25.875 26.4735 25.5375 25.875 24.9998C25.2765 25.5375 24.4935 25.875 23.625 25.875C21.762 25.875 20.25 24.363 20.25 22.5C20.25 20.637 21.762 19.125 23.625 19.125C24.4935 19.125 25.2765 19.4625 25.875 20.0002C26.4735 19.4625 27.2565 19.125 28.125 19.125C29.988 19.125 31.5 20.637 31.5 22.5C31.5 24.363 29.988 25.875 28.125 25.875Z" />
  <path d="M33.75 5.625H2.25C1.01025 5.625 0 6.63525 0 7.875V10.125H36V7.875C36 6.63525 34.992 5.625 33.75 5.625Z" />
</svg>
