<svg viewBox="0 0 36 36">
  <path d="M28.2138 1.95388C28.0629 2.12998 27.8448 2.23061 27.61 2.23061C27.3752 2.23061 27.1488 2.12998 26.9895 1.95388L25.2033 0L23.4172 1.94549C23.4004 1.96226 23.3836 1.97904 23.3668 1.99581C23.0314 2.30608 22.4947 2.28931 22.1845 1.94549L20.3983 0L18.6121 1.94549C18.5954 1.96226 18.5786 1.97904 18.5618 1.99581C18.2264 2.30608 17.6897 2.28931 17.3794 1.94549L15.5933 0L13.8071 1.94549C13.7903 1.96226 13.7735 1.97904 13.7568 1.99581C13.4213 2.30608 12.8847 2.28931 12.5744 1.94549L10.7882 0L9.00206 1.95388C8.84273 2.12998 8.61632 2.23061 8.38151 2.23061C8.14671 2.23061 7.92868 2.12998 7.77774 1.95388L6.84692 0.922432V35.086L7.77774 34.0461C7.92868 33.87 8.14671 33.7694 8.38151 33.7694C8.61632 33.7694 8.84273 33.87 9.00206 34.0461L10.7882 36L12.5828 34.0545C12.5995 34.0377 12.6163 34.021 12.6331 34.0042C12.9685 33.6939 13.5052 33.7107 13.8155 34.0545L15.6016 36L17.3878 34.0545C17.4046 34.0377 17.4213 34.021 17.4381 34.0042C17.7735 33.6939 18.3102 33.7107 18.6205 34.0545L20.4067 36L22.1928 34.0545C22.2096 34.0377 22.2264 34.021 22.2432 34.0042C22.5786 33.6939 23.1153 33.7107 23.4255 34.0545L25.2117 36L26.9979 34.0461C27.1572 33.87 27.3836 33.7694 27.6184 33.7694C27.8532 33.7694 28.0712 33.87 28.2222 34.0461L29.153 35.0776V0.914046L28.2138 1.95388ZM17.153 6.73375V6.20545C17.153 5.74424 17.5304 5.36688 17.9916 5.36688C18.4528 5.36688 18.8302 5.74424 18.8302 6.20545V6.73375C19.9622 7.09434 20.7253 8.15094 20.7253 9.33333C20.7253 9.79455 20.348 10.1719 19.8868 10.1719C19.4255 10.1719 19.0482 9.79455 19.0482 9.33333C19.0482 9.32495 19.0482 9.32495 19.0482 9.32495C19.0482 8.73795 18.5702 8.25996 17.9916 8.26834C17.413 8.27673 16.9434 8.73795 16.9434 9.32495C16.9434 9.91195 17.413 10.3816 18 10.3816C19.1824 10.3816 20.239 11.1447 20.5995 12.2767C21.0608 13.7107 20.2725 15.2537 18.8385 15.7149V16.2516C18.8385 16.7128 18.4612 17.0901 18 17.0901C17.5387 17.0901 17.1614 16.7128 17.1614 16.2516V15.7149C16.0293 15.3459 15.2662 14.2977 15.2662 13.1153C15.2662 12.6541 15.6436 12.2767 16.1048 12.2767C16.566 12.2767 16.9434 12.6541 16.9434 13.1153C16.9434 13.7023 17.4213 14.1719 18 14.1719C18.0084 14.1719 18.0084 14.1719 18.0084 14.1803C18.5954 14.1719 19.065 13.7023 19.0566 13.1153C19.0482 12.5283 18.5702 12.0587 17.9916 12.0671C16.8092 12.0671 15.7526 11.2956 15.392 10.1719C14.9308 8.73795 15.719 7.19497 17.153 6.73375ZM14.327 21.6939H21.6729C22.1341 21.6939 22.5115 22.0713 22.5115 22.5325C22.5115 22.9937 22.1341 23.3711 21.6729 23.3711H14.327C13.8658 23.3711 13.4884 22.9937 13.4884 22.5325C13.4884 22.0713 13.8658 21.6939 14.327 21.6939ZM25.1698 30.3312H10.8302C10.3689 30.3312 9.99158 29.9539 9.99158 29.4927C9.99158 29.0314 10.3689 28.6541 10.8302 28.6541H25.1698C25.631 28.6541 26.0084 29.0314 26.0084 29.4927C26.0084 29.9539 25.631 30.3312 25.1698 30.3312ZM25.1698 26.8092H10.8302C10.3689 26.8092 9.99158 26.4319 9.99158 25.9707C9.99158 25.5094 10.3689 25.1321 10.8302 25.1321H25.1698C25.631 25.1321 26.0084 25.5094 26.0084 25.9707C26.0084 26.4319 25.631 26.8092 25.1698 26.8092Z" fill="var(--svg-image-color-empty, #bc191d)" />
</svg>
