<svg viewBox="0 0 36 33">
  <path d="M36 26.6188C36 28.7246 36 30.7666 36 32.9043C35.7233 32.9202 35.4628 32.9681 35.2024 32.9681C28.1217 32.9681 21.041 32.9681 13.9604 33C13.2116 33 13 32.7926 13 32.0588C13.0326 26.3476 13.0163 20.6364 13 14.9093C13 14.3031 13.0977 14 13.8301 14C21.0248 14.0319 28.2031 14.016 35.3977 14.0319C35.5605 14.0319 35.7233 14.0638 35.9512 14.0798C35.9512 14.7498 35.9512 15.4198 35.9512 16.1696C35.6582 16.1856 35.3652 16.2175 35.0722 16.2175C33.5747 16.2175 32.0934 16.2015 30.5959 16.2334C27.6822 16.2972 25.4034 18.5147 25.3708 21.2905C25.3383 24.178 27.4869 26.4433 30.4331 26.555C31.9795 26.6188 33.5258 26.5709 35.0722 26.5709C35.3977 26.5709 35.6745 26.6029 36 26.6188Z" />
  <path d="M11.1869 20C7.38337 20 3.70767 20 0 20C0 13.3557 0 6.76011 0 0.0672408C0.287664 0.0510353 0.575327 0.0186243 0.84701 0.0186243C2.36524 0.0186243 3.88346 0.0510353 5.40169 0.00241881C6.16879 -0.0299922 6.34458 0.261707 6.3286 0.974749C6.28066 2.62771 6.3286 4.26446 6.31262 5.91742C6.29664 6.46841 6.45645 6.84114 6.96785 7.06801C7.20757 7.16525 7.44729 7.3111 7.65505 7.47315C8.45412 8.10517 9.22122 8.25102 10.0842 7.55418C10.26 7.40833 10.7714 7.45695 10.9951 7.619C11.7143 8.12137 12.2896 8.07276 13.0887 7.65141C14.3033 7.0194 14.8466 6.27395 14.6868 4.83166C14.527 3.47039 14.6708 2.07672 14.6389 0.699255C14.6229 0.164474 14.7987 0.00241881 15.3261 0.00241881C17.0041 0.0348298 18.6822 0.0348298 20.3602 0.0186243C20.8556 0.0186243 20.9995 0.21309 20.9995 0.68305C20.9835 2.70874 20.9675 4.73442 20.9995 6.76011C21.0154 7.35971 20.6798 7.45695 20.2323 7.57039C17.5315 8.26722 14.8307 8.99647 12.1138 9.64469C11.3787 9.82295 11.1709 10.1309 11.1709 10.8925C11.2189 13.615 11.1869 16.3538 11.1869 19.0763C11.1869 19.368 11.1869 19.6597 11.1869 20ZM8.94954 15.7055C9.26916 13.6961 9.26916 13.6961 7.47926 13.6799C7.19159 13.6799 6.90393 13.6799 6.60028 13.6799C5.8172 13.6799 5.03412 13.6799 4.18711 13.6799C4.18711 14.3119 4.15514 14.798 4.20309 15.268C4.21907 15.43 4.41084 15.6893 4.53869 15.6893C6.02496 15.7217 7.49524 15.7055 8.94954 15.7055ZM6.20075 10.5198C6.20075 9.87157 5.73729 9.3854 5.19393 9.41781C4.6186 9.46643 4.26701 9.80674 4.23505 10.4063C4.20309 10.9573 4.69851 11.4435 5.25785 11.4111C5.83318 11.3787 6.15281 11.0384 6.20075 10.5198Z" />
  <path d="M33.9975 6C33.9975 7.61644 34.0134 9.09942 33.9656 10.5676C33.9656 10.7159 33.552 10.9531 33.3293 10.968C32.0566 11.0125 30.7839 10.9976 29.5112 10.9976C24.5953 10.9976 19.6636 10.9976 14.7477 10.9828C14.5091 10.9828 14.2705 10.968 14.0477 10.9531C14.0318 10.8938 14.0159 10.8345 14 10.7604C20.6181 9.1884 27.2362 7.61644 33.9975 6Z" />
  <path d="M36 23.9572C33.7543 23.9572 31.6107 24.0791 29.4841 23.9115C28.055 23.8048 26.9832 22.3574 27.0002 21.0167C27.0002 19.6912 28.038 18.2895 29.433 18.1524C31.4746 17.9695 33.5501 18.0152 35.6257 18C35.7618 18 36 18.2438 36 18.3809C36 20.2549 36 22.1137 36 23.9572ZM30.3007 21.9613C30.9812 21.9461 31.5256 21.4738 31.4746 20.9862C31.4065 20.4377 31.0322 20.1178 30.4028 20.1025C29.7903 20.0873 29.3139 20.5291 29.365 21.0624C29.416 21.6261 29.7563 21.9308 30.3007 21.9613Z" />
  <path d="M11.9844 2.97635C11.9844 3.69922 11.9992 4.43889 11.9844 5.16176C11.9696 5.95186 11.6007 6.23765 11.0547 5.78376C10.3169 5.16176 9.69706 5.16176 8.95921 5.78376C8.42795 6.23765 8.02951 5.93505 8.01476 5.16176C8 3.68241 8.01476 2.18624 8 0.706894C8 0.219381 8.14757 -0.0159703 8.59028 0.00084054C9.51997 0.0176513 10.4644 0.0344621 11.3941 0.0176513C11.8368 0.000840541 12.0139 0.185759 11.9992 0.706894C11.9549 1.46338 11.9844 2.21987 11.9844 2.97635Z" />
</svg>
