<svg viewBox="0 0 32 36">
  <path d="M31.9622 34.6672L29.116 24.2336C29.052 23.9989 28.909 23.7936 28.7113 23.6525C24.1996 20.4332 25.6786 21.4885 21.8217 18.7366C23.2857 17.2292 24.1296 15.1914 24.1296 13.0583C24.1296 8.8058 24.1578 8.57306 24.0334 7.79723C23.9874 3.34561 20.6201 0 16.1636 0H15.8363C11.38 0 8.01264 3.34561 7.96667 7.7973C7.84225 8.57313 7.87046 8.80566 7.87046 13.0584C7.87046 15.1914 8.71439 17.2292 10.1785 18.7367C5.29762 22.2191 8.14955 20.1842 3.28878 23.6526C3.09103 23.7937 2.94801 23.999 2.88401 24.2336L0.0377691 34.6673C-0.145178 35.338 0.359593 36 1.05314 36H14.9474V24.8543L16.0001 24.1613L17.0527 24.8543V36H30.947C31.6409 36 32.1451 35.3374 31.9622 34.6672ZM15.3126 3.41733H16.6874C17.2688 3.41733 17.7401 3.88955 17.7401 4.47202C17.7401 5.05448 17.2688 5.5267 16.6874 5.5267H15.3126C14.7313 5.5267 14.26 5.05448 14.26 4.47202C14.26 3.88955 14.7313 3.41733 15.3126 3.41733ZM14.9475 22.3303L12.6321 23.8546L9.54344 21.7793L11.9085 20.0918C12.8752 20.6568 13.9194 20.9947 14.9475 21.1274V22.3303ZM16.0001 19.0856C12.6566 19.0856 9.97572 16.3669 9.97572 13.0584C9.97565 12.3031 9.97481 11.678 9.97411 11.1546L10.54 11.9824C10.7362 12.2695 11.0611 12.441 11.4084 12.441H20.5916C20.9389 12.441 21.2638 12.2695 21.4601 11.9824L22.026 11.1546C22.0253 11.6779 22.0244 12.3031 22.0244 13.0584C22.0244 16.3372 19.3733 19.0856 16.0001 19.0856ZM17.0526 22.3303V21.1273C18.1354 20.9878 19.1714 20.6296 20.0916 20.0917L22.4566 21.7792L19.368 23.8546L17.0526 22.3303Z" fill="var(--svg-image-color-empty, #bc191d)" />
  <path fill-rule="evenodd" clip-rule="evenodd" d="M25.5571 28.0698C25.5746 28.0604 25.6105 28.0791 25.6372 28.1146C25.6372 28.1146 25.6372 28.1146 26.8937 29.3561C26.9645 29.428 26.9645 29.5446 26.8937 29.5988C26.8937 29.5988 26.8937 29.5988 25.6372 30.858C25.6105 30.8944 25.5838 30.9028 25.5571 30.8944C25.5396 30.8851 25.5212 30.8496 25.5212 30.8048V28.151C25.5304 28.1052 25.5387 28.0791 25.5571 28.0698Z" fill="none"/>
  <path fill-rule="evenodd" clip-rule="evenodd" d="M23.4097 26H23.499L23.5883 26.0364C23.5883 26.0364 23.5883 26.0364 24.8806 27.3414C24.934 27.4133 24.9165 27.4674 24.8273 27.4674C24.8273 27.4674 24.8273 27.4674 24.2925 27.4674C24.2032 27.4674 24.1231 27.5393 24.1231 27.6382C24.1231 27.6382 24.1231 27.6382 24.1231 28.6006C24.1231 28.6902 24.0522 28.7714 23.9362 28.7714C23.9362 28.7714 23.9362 28.7714 22.9918 28.7714C22.9026 28.7714 22.8225 28.6996 22.8225 28.6006C22.8225 28.6006 22.8225 28.6006 22.8225 27.6382C22.8225 27.5486 22.7516 27.4674 22.6531 27.4674H22.0824C21.9931 27.4674 21.9664 27.4133 22.029 27.3414C22.029 27.3414 22.029 27.3414 23.3297 26.0364C23.3204 26.0364 23.4097 26 23.4097 26Z" fill="white"/>
  <path fill-rule="evenodd" clip-rule="evenodd" d="M21.3773 28.0426C21.404 28.0519 21.4132 28.0874 21.4132 28.1322V30.8402C21.4132 30.885 21.3957 30.912 21.3773 30.9214C21.3506 30.9307 21.3239 30.9214 21.288 30.8943C21.288 30.8943 21.288 30.8943 20.0141 29.5893C19.9432 29.5352 19.9432 29.4185 20.0141 29.3466C20.0141 29.3466 20.0141 29.3466 21.288 28.0687C21.3239 28.0426 21.3598 28.0333 21.3773 28.0426Z" fill="none"/>
  <path fill-rule="evenodd" clip-rule="evenodd" d="M22.9908 30.1748C22.9908 30.1748 22.9908 30.1748 23.9352 30.1748C24.0512 30.1748 24.1221 30.2467 24.1221 30.3456C24.1221 30.3456 24.1221 30.3456 24.1221 31.3715C24.1221 31.4798 24.193 31.5601 24.2915 31.5601H24.7904C24.8796 31.5601 24.9238 31.6142 24.8437 31.6683C24.8437 31.6683 24.8437 31.6683 23.5873 32.9462C23.5514 32.9826 23.5072 33.0004 23.4538 33.0004C23.4097 33.0004 23.3646 32.9826 23.3204 32.9462C23.3204 32.9462 23.3204 32.9462 22.0639 31.6683C21.9931 31.6142 22.028 31.5601 22.1173 31.5601C22.1173 31.5601 22.1173 31.5601 22.6521 31.5601C22.7414 31.5601 22.8215 31.4882 22.8215 31.3715C22.8215 31.3715 22.8215 31.3715 22.8215 30.3456C22.8215 30.2467 22.9016 30.1748 22.9908 30.1748Z" fill="none"/>
</svg>
