<svg viewBox="0 0 32 36">
  <path d="M31.9622 34.6672L29.116 24.2336C29.052 23.9989 28.909 23.7936 28.7113 23.6525C24.1996 20.4332 25.6786 21.4885 21.8217 18.7366C23.2857 17.2292 24.1296 15.1914 24.1296 13.0583C24.1296 8.8058 24.1578 8.57306 24.0334 7.79723C23.9874 3.34561 20.6201 0 16.1636 0H15.8363C11.38 0 8.01264 3.34561 7.96667 7.7973C7.84225 8.57313 7.87046 8.80566 7.87046 13.0584C7.87046 15.1914 8.71439 17.2292 10.1785 18.7367C5.29762 22.2191 8.14955 20.1842 3.28878 23.6526C3.09103 23.7937 2.94801 23.999 2.88401 24.2336L0.0377691 34.6673C-0.145178 35.338 0.359593 36 1.05314 36H14.9474V24.8543L16.0001 24.1613L17.0527 24.8543V36H30.947C31.6409 36 32.1451 35.3374 31.9622 34.6672ZM15.3126 3.41733H16.6874C17.2688 3.41733 17.7401 3.88955 17.7401 4.47202C17.7401 5.05448 17.2688 5.5267 16.6874 5.5267H15.3126C14.7313 5.5267 14.26 5.05448 14.26 4.47202C14.26 3.88955 14.7313 3.41733 15.3126 3.41733ZM14.9475 22.3303L12.6321 23.8546L9.54344 21.7793L11.9085 20.0918C12.8752 20.6568 13.9194 20.9947 14.9475 21.1274V22.3303ZM16.0001 19.0856C12.6566 19.0856 9.97572 16.3669 9.97572 13.0584C9.97565 12.3031 9.97481 11.678 9.97411 11.1546L10.54 11.9824C10.7362 12.2695 11.0611 12.441 11.4084 12.441H20.5916C20.9389 12.441 21.2638 12.2695 21.4601 11.9824L22.026 11.1546C22.0253 11.6779 22.0244 12.3031 22.0244 13.0584C22.0244 16.3372 19.3733 19.0856 16.0001 19.0856ZM17.0526 22.3303V21.1273C18.1354 20.9878 19.1714 20.6296 20.0916 20.0917L22.4566 21.7792L19.368 23.8546L17.0526 22.3303Z" />
</svg>
