<svg viewBox="0 0 36 36">
  <path d="M11.5061 12.7646C5.16157 12.7646 0 17.9262 0 24.2707C0 30.6152 5.16157 35.7768 11.5061 35.7768C17.8506 35.7768 23.0122 30.6152 23.0122 24.2707C23.0122 17.9262 17.8505 12.7646 11.5061 12.7646ZM11.5061 23.216C13.276 23.216 14.7159 24.656 14.7159 26.4259C14.7159 27.8264 13.814 29.0196 12.5608 29.4569V30.1252C12.5608 30.7077 12.0885 31.1799 11.5061 31.1799C10.9236 31.1799 10.4514 30.7077 10.4514 30.1252V29.6358H9.35086C8.76839 29.6358 8.29617 29.1636 8.29617 28.5811C8.29617 27.9986 8.76839 27.5264 9.35086 27.5264H11.5061C12.1129 27.5264 12.6065 27.0327 12.6065 26.4259C12.6065 25.8191 12.1129 25.3254 11.5061 25.3254C9.73617 25.3254 8.29617 23.8855 8.29617 22.1156C8.29617 20.7151 9.19814 19.522 10.4514 19.0846V18.4163C10.4514 17.8338 10.9236 17.3616 11.5061 17.3616C12.0885 17.3616 12.5608 17.8338 12.5608 18.4163V18.9057H13.6612C14.2437 18.9057 14.7159 19.378 14.7159 19.9604C14.7159 20.5429 14.2437 21.0151 13.6612 21.0151H11.5061C10.8993 21.0151 10.4055 21.5088 10.4055 22.1156C10.4055 22.7224 10.8992 23.216 11.5061 23.216Z" />
  <path d="M28.2283 8.5847H24.0478C22.3242 8.5847 20.9219 7.18246 20.9219 5.45882C20.9219 2.57207 18.5734 0.223633 15.6867 0.223633C12.7999 0.223633 10.4514 2.57207 10.4514 5.45882V8.5847H8.02957C7.56066 8.5847 7.14806 8.89429 7.01693 9.34457L6.33813 11.6756C7.93254 11.0191 9.67756 10.6558 11.5061 10.6558C13.3346 10.6558 15.0796 11.019 16.674 11.6756L15.9952 9.34457C15.8641 8.89436 15.4515 8.5847 14.9826 8.5847H12.5607V5.45882C12.5607 3.73525 13.963 2.33301 15.6866 2.33301C17.4102 2.33301 18.8125 3.73525 18.8125 5.45882C18.8125 8.34557 21.161 10.6941 24.0477 10.6941H28.2282C28.8107 10.6941 29.2829 10.2219 29.2829 9.63939C29.2829 9.05692 28.8108 8.5847 28.2283 8.5847Z" />
  <path d="M34.9453 8.58496H32.855C32.2725 8.58496 31.8003 9.05718 31.8003 9.63965C31.8003 10.2221 32.2725 10.6943 32.855 10.6943H34.9453C35.5278 10.6943 36 10.2221 36 9.63965C36 9.05718 35.5278 8.58496 34.9453 8.58496Z" />
  <path d="M31.5 7.42235C31.7699 7.42235 32.0398 7.31935 32.2457 7.1134L33.7237 5.63536C34.1356 5.22354 34.1356 4.55572 33.7237 4.14383C33.3119 3.73201 32.6441 3.73201 32.2322 4.14383L30.7542 5.62186C30.3423 6.03368 30.3423 6.70151 30.7542 7.1134C30.9601 7.31935 31.23 7.42235 31.5 7.42235Z" />
  <path d="M28.2283 1.86816C27.6458 1.86816 27.1736 2.34038 27.1736 2.92285V5.01317C27.1736 5.59564 27.6458 6.06786 28.2283 6.06786C28.8107 6.06786 29.283 5.59564 29.283 5.01317V2.92285C29.283 2.34038 28.8107 1.86816 28.2283 1.86816Z" />
  <path d="M24.2109 7.11346C24.4168 7.31947 24.6867 7.42241 24.9566 7.42241C25.2265 7.42241 25.4965 7.3194 25.7023 7.11346C26.1142 6.70164 26.1142 6.03388 25.7023 5.62192L24.2243 4.14388C23.8125 3.73192 23.1446 3.73206 22.7327 4.14388C22.3209 4.5557 22.3209 5.22346 22.7327 5.63542L24.2109 7.11346Z" />
  <path d="M24.2108 12.1654L22.7327 13.6434C22.3209 14.0552 22.3209 14.723 22.7327 15.1349C22.9387 15.3409 23.2086 15.4439 23.4785 15.4439C23.7483 15.4439 24.0183 15.3409 24.2242 15.1349L25.7023 13.6569C26.1142 13.2451 26.1142 12.5773 25.7023 12.1654C25.2905 11.7535 24.6226 11.7535 24.2108 12.1654Z" />
  <path d="M28.2283 13.2119C27.6458 13.2119 27.1736 13.6841 27.1736 14.2666V16.3569C27.1736 16.9394 27.6458 17.4116 28.2283 17.4116C28.8107 17.4116 29.283 16.9394 29.283 16.3569V14.2666C29.283 13.6841 28.8107 13.2119 28.2283 13.2119Z" />
  <path d="M32.2455 12.1654C31.8337 11.7534 31.1659 11.7535 30.754 12.1654C30.3421 12.5773 30.3421 13.245 30.754 13.6569L32.232 15.1349C32.4379 15.3409 32.7079 15.4439 32.9777 15.4439C33.2476 15.4439 33.5176 15.3409 33.7235 15.1349C34.1354 14.723 34.1353 14.0553 33.7235 13.6434L32.2455 12.1654Z" />
</svg>
