<svg viewBox="0 0 27 18">
  <path d="M22.5 11.25a3.379 3.379 0 0 0-3.375 3.375A3.379 3.379 0 0 0 22.5 18a3.379 3.379 0 0 0 3.375-3.375A3.379 3.379 0 0 0 22.5 11.25zm0 4.857a1.484 1.484 0 0 1-1.483-1.482c0-.818.665-1.483 1.483-1.483.817 0 1.482.666 1.482 1.483 0 .817-.665 1.482-1.482 1.482zM17.14 0H.86C.385 0 0 .405 0 .905v13.94c0 .5.385.905.86.905h2.694v-1.81H1.72V1.81h14.56v13.035H18V.905c0-.5-.385-.905-.86-.905z" stroke="transparent" />
  <path d="M19.125 13.5H7.875v2.25h11.25V13.5z" stroke="transparent" />
  <path d="M5.625 11.25a3.379 3.379 0 0 0-3.375 3.375A3.379 3.379 0 0 0 5.625 18 3.379 3.379 0 0 0 9 14.625a3.379 3.379 0 0 0-3.375-3.375zm0 4.857a1.484 1.484 0 0 1-1.482-1.482c0-.818.664-1.483 1.482-1.483s1.482.666 1.482 1.483c0 .817-.665 1.482-1.482 1.482zM26.085 7.875h-9.21v1.73h8.295v4.414H23.86v1.731h2.226c.505 0 .915-.387.915-.865V8.74c0-.478-.41-.865-.915-.865z" stroke="transparent" />
  <path d="M22.647 3.849c-.144-.292-.42-.474-.718-.474h-5.054v1.83h4.569L23.314 9l1.436-.882-2.103-4.27z" />
</svg>
