<svg viewBox="0 0 36 36">
  <path d="M36 18.5712C36 17.3765 35.8967 16.1753 35.6764 15H18V21.7679H28.1224C27.7024 23.9507 26.3527 25.8816 24.3764 27.1086V31.5H30.4155C33.9617 28.4389 36 23.9184 36 18.5712Z" fill="var(--svg-image-color-empty, #4285F4)" />
  <path d="M17.8626 36C22.801 36 26.9657 34.3568 30 31.5205L24.0995 26.8841C22.4579 28.0159 20.3385 28.6568 17.8693 28.6568C13.0924 28.6568 9.04214 25.3909 7.58888 21H1.5V25.7795C4.60836 32.0455 10.9394 36 17.8626 36Z" fill="var(--svg-image-color-empty, #34A853)"/>
  <path d="M7.5 22.2674C6.78362 19.9855 6.78362 17.5145 7.5 15.2326V10.5H1.81923C-0.60641 15.6917 -0.60641 21.8083 1.81923 27L7.5 22.2674Z" fill="var(--svg-image-color-empty, #FBBC04)"/>
  <path d="M17.7972 7.34048C20.3972 7.2996 22.9102 8.29452 24.7932 10.1208L30 4.82593C26.703 1.67762 22.3272 -0.0532664 17.7972 0.00124977C10.9017 0.00124977 4.59593 3.95367 1.5 10.223L7.55784 15C8.99859 10.6046 13.0394 7.34048 17.7972 7.34048Z" fill="var(--svg-image-color-empty, #EA4335)"/>
</svg>
