<svg viewBox="0 0 81 36">
  <path d="M63.6219 4.93164L57.4609 7.29208V10.5822L61.6366 8.97999C62.8344 8.52505 63.6219 7.37779 63.6219 6.09867V4.93164Z" fill="var(--svg-image-color-empty, #304ffe)" />
  <path d="M57.6524 27.9563H62.5627C62.6752 27.9563 62.7679 27.864 62.7679 27.7519V11.3079C62.7679 11.1958 62.6752 11.1035 62.5627 11.1035H57.6524C57.5399 11.1035 57.4473 11.1958 57.4473 11.3079V27.7519C57.4473 27.864 57.5399 27.9563 57.6524 27.9563Z" fill="var(--svg-image-color-empty, #304ffe)" />
  <path d="M51.0221 21.1976C51.0221 20.7624 51.0221 17.9273 51.0155 15.4679H54.7743C54.8868 15.4679 54.9794 15.3756 54.9794 15.2635V11.3075C54.9794 11.1954 54.8868 11.1031 54.7743 11.1031H51.0221C51.0221 11.1031 51.0221 8.45256 51.0221 7.97783C51.0221 7.86575 50.9294 7.77344 50.8169 7.77344H45.8272C45.7147 7.77344 45.6221 7.86575 45.6221 7.97783C45.6287 9.24377 45.6221 16.2064 45.6221 21.8108C45.6221 27.9163 51.2338 27.9559 53.2125 27.9559H54.8338C54.9463 27.9559 55.039 27.8635 55.039 27.7515V24.0855C55.039 23.9734 54.9463 23.8811 54.8338 23.8811C53.0802 23.8482 51.0221 23.3998 51.0221 21.1976Z" fill="var(--svg-image-color-empty, #304ffe)" />
  <path d="M4.11641 25.7143C4.11641 26.7956 3.53405 28.3648 0.271553 28.3912C0.159053 28.3912 0.0664062 28.4835 0.0664062 28.5956V32.2615C0.0664062 32.3736 0.159053 32.4659 0.271553 32.4659H1.89288C3.87155 32.4659 9.48332 32.3934 9.48332 26.2879C9.48332 20.6439 9.4767 12.6725 9.48332 11.3011C9.48332 11.189 9.39067 11.0967 9.27817 11.0967H4.32155C4.20905 11.0967 4.11641 11.189 4.11641 11.3011C4.10979 12.9956 4.11641 24.6857 4.11641 25.7143Z" fill="var(--svg-image-color-empty, #304ffe)" />
  <path d="M21.6864 21.8178C21.6931 23.2222 20.846 24.0266 19.357 24.0266C17.8681 24.0266 17.0342 23.2222 17.0342 21.8112C17.0342 20.8024 17.0409 12.6991 17.0342 11.3079C17.0342 11.1958 16.9416 11.1035 16.8291 11.1035H11.9122C11.7997 11.1035 11.707 11.1958 11.707 11.3079C11.7136 12.3167 11.707 17.4662 11.707 22.3716C11.707 28.5629 17.4776 28.5826 19.357 28.5826C21.2364 28.5826 27.007 28.5826 27.007 22.3716C27.007 17.4662 27.007 11.3079 27.007 11.3079C27.007 11.1958 26.9144 11.1035 26.8019 11.1035H21.8916C21.7791 11.1035 21.6864 11.1958 21.6864 11.3079V21.8178Z" fill="var(--svg-image-color-empty, #304ffe)" />
  <path d="M70.961 17.2482C70.9544 15.8438 71.8014 15.0394 73.2904 15.0394C74.7793 15.0394 75.6131 15.8438 75.6131 17.2548C75.6131 18.2636 75.6065 26.3669 75.6131 27.7581C75.6131 27.8702 75.7058 27.9625 75.8183 27.9625H80.7286C80.8411 27.9625 80.9337 27.8702 80.9337 27.7581C80.9271 26.7493 80.9337 21.5999 80.9337 16.6944C80.9337 10.5032 75.1631 10.4834 73.2837 10.4834C71.4043 10.4834 65.6338 10.4834 65.6338 16.6944C65.6338 21.5999 65.6338 27.7581 65.6338 27.7581C65.6338 27.8702 65.7264 27.9625 65.8389 27.9625H70.7492C70.8617 27.9625 70.9543 27.8702 70.9543 27.7581L70.961 17.2482Z" fill="var(--svg-image-color-empty, #304ffe)" />
  <path d="M39.9243 18.1645C39.7919 18.1315 36.6684 17.5777 36.5228 17.5513C35.1199 17.2941 34.2066 16.8524 34.2066 15.9557C34.2066 15.3623 34.6633 14.3733 36.5096 14.3733C38.5147 14.3733 38.7662 15.5799 38.786 16.1535C38.7927 16.2656 38.8787 16.3513 38.9912 16.3513H43.286C43.3985 16.3513 43.4978 16.259 43.4912 16.1403C43.425 14.1425 42.3728 10.4766 36.1059 10.4766C31.3478 10.4766 28.9721 12.8436 28.9721 16.1996C28.9721 18.7513 30.6596 20.1161 32.903 20.6568C34.4846 21.0392 38.7596 21.0788 38.7596 23.0106C38.7596 23.604 38.3029 24.5865 36.4566 24.5865C34.3853 24.5865 33.9353 23.3073 33.8691 22.7535C33.8559 22.648 33.7699 22.5755 33.664 22.5755H29.0317C28.9125 22.5755 28.8199 22.6678 28.8265 22.7865C28.8927 24.4084 30.0508 28.6282 36.3574 28.6282C41.3537 28.6282 43.8353 26.3601 43.8353 22.9051C43.8618 20.3601 42.1809 18.6788 39.9243 18.1645Z" fill="var(--svg-image-color-empty, #304ffe)" />
  <path d="M65.422 0.0458984L57.4609 3.05249V6.3426L63.4234 4.09425C64.6279 3.63931 65.422 2.49205 65.422 1.20634V0.0458984Z" fill="var(--svg-image-color-empty, #304ffe)" />
</svg>
