<svg viewBox="0 0 488.2 133.4">
  <path d="M142.8,131V62.5c0-19.5-10.4-28.7-27.9-28.7c-14.5,0-27.1,8.6-32.6,17.3C78.8,40.3,69.9,33.8,56,33.8
    c-14.5,0-27.1,9-31,14.7V36.2H0V131h25V67.2C28.7,61.9,36,56,44.6,56c10.2,0,14.1,6.3,14.1,15.1V131h25.1V67
    c3.5-5.1,10.8-11,19.6-11c10.2,0,14.1,6.3,14.1,15.1V131H142.8z M211.4,133.4c-31.2,0-50.1-22.8-50.1-49.9
    c0-26.9,18.9-49.7,50.1-49.7c31.4,0,50.3,22.8,50.3,49.7C261.7,110.6,242.8,133.4,211.4,133.4z M211.4,111.2
    c15.5,0,24.4-12.8,24.4-27.7c0-14.7-8.8-27.5-24.4-27.5s-24.2,12.8-24.2,27.5C187.2,98.4,195.9,111.2,211.4,111.2z M369.2,131V64
    c0-18.5-10-30.3-30.8-30.3c-15.5,0-27.1,7.5-33.2,14.7V36.2h-25V131h25V67.2C309.3,61.5,317,56,326.8,56c10.6,0,17.5,4.5,17.5,17.7
    V131H369.2z M437.9,133.4c-31.2,0-50.1-22.8-50.1-49.9c0-26.9,18.9-49.7,50.1-49.7c31.4,0,50.3,22.8,50.3,49.7
    C488.2,110.6,469.4,133.4,437.9,133.4z M437.9,111.2c15.5,0,24.4-12.8,24.4-27.7c0-14.7-8.8-27.5-24.4-27.5s-24.2,12.8-24.2,27.5
    C413.8,98.4,422.4,111.2,437.9,111.2z" fill="var(--svg-image-color-empty, black)"/>
</svg>
