<svg viewBox="0 0 36 36">
  <path fill-rule="evenodd" clip-rule="evenodd" d="M28.8373 10.6431C28.9274 10.5951 29.1124 10.6911 29.25 10.8736C29.25 10.8736 29.25 10.8736 35.7243 17.2584C36.0895 17.6281 36.0895 18.2282 35.7243 18.5066C35.7243 18.5066 35.7243 18.5066 29.25 24.9827C29.1124 25.1699 28.9749 25.2131 28.8373 25.1699C28.7472 25.1219 28.6523 24.9395 28.6523 24.709V11.0608C28.6998 10.8256 28.7425 10.6911 28.8373 10.6431Z" fill="var(--svg-image-color-empty, #bc191d)" />
  <path fill-rule="evenodd" clip-rule="evenodd" d="M17.7731 0H18.2331L18.6932 0.187225C18.6932 0.187225 18.6932 0.187225 25.3525 6.89852C25.6276 7.26817 25.5375 7.54661 25.0774 7.54661C25.0774 7.54661 25.0774 7.54661 22.3217 7.54661C21.8616 7.54661 21.449 7.91626 21.449 8.42512C21.449 8.42512 21.449 8.42512 21.449 13.3746C21.449 13.8354 21.0837 14.2531 20.4861 14.2531C20.4861 14.2531 20.4861 14.2531 15.6197 14.2531C15.1596 14.2531 14.747 13.8835 14.747 13.3746C14.747 13.3746 14.747 13.3746 14.747 8.42512C14.747 7.96426 14.3818 7.54661 13.8743 7.54661H10.9335C10.4735 7.54661 10.3359 7.26817 10.6584 6.89852C10.6584 6.89852 10.6584 6.89852 17.3604 0.187225C17.313 0.187225 17.7731 0 17.7731 0Z" fill="var(--svg-image-color-empty, #bc191d)" />
  <path fill-rule="evenodd" clip-rule="evenodd" d="M7.2994 10.5035C7.43695 10.5515 7.48438 10.7339 7.48438 10.9644V24.891C7.48438 25.1215 7.39426 25.2607 7.2994 25.3087C7.16185 25.3567 7.0243 25.3087 6.83932 25.1695C6.83932 25.1695 6.83932 25.1695 0.27489 18.4582C-0.0903278 18.1797 -0.0903278 17.5796 0.27489 17.21C0.27489 17.21 0.27489 17.21 6.83932 10.6379C7.0243 10.5035 7.20928 10.4555 7.2994 10.5035Z" fill="var(--svg-image-color-empty, #bc191d)" />
  <path fill-rule="evenodd" clip-rule="evenodd" d="M15.6137 21.4688C15.6137 21.4688 15.6137 21.4688 20.4801 21.4688C21.0777 21.4688 21.4429 21.8384 21.4429 22.3473C21.4429 22.3473 21.4429 22.3473 21.4429 27.6232C21.4429 28.18 21.8082 28.5929 22.3157 28.5929H24.8864C25.3465 28.5929 25.5742 28.8713 25.1615 29.1498C25.1615 29.1498 25.1615 29.1498 18.6872 35.7219C18.5022 35.9091 18.2746 36.0003 17.9995 36.0003C17.7718 36.0003 17.5394 35.9091 17.3117 35.7219C17.3117 35.7219 17.3117 35.7219 10.8374 29.1498C10.4722 28.8713 10.6524 28.5929 11.1125 28.5929C11.1125 28.5929 11.1125 28.5929 13.8682 28.5929C14.3283 28.5929 14.741 28.2233 14.741 27.6232C14.741 27.6232 14.741 27.6232 14.741 22.3473C14.741 21.8384 15.1536 21.4688 15.6137 21.4688Z" fill="var(--svg-image-color-empty, #bc191d)" />
</svg>
