<svg viewBox="0 0 22 21">
  <path d="M21.157 4.475h-4.594V.861c0-.474-.38-.861-.843-.861H.843A.854.854 0 0 0 0 .86v16.697C0 19.455 1.513 21 3.372 21h15.256C20.487 21 22 19.455 22 17.557V5.337c0-.474-.38-.862-.843-.862zM14.89 17.86a3.474 3.474 0 0 0 .443 1.424H3.372c-.932 0-1.686-.77-1.686-1.721V1.722h13.191v9.931c0 6.072 0 6.072.013 6.206zm3.738 1.42h-.379c-.931 0-1.686-.77-1.686-1.722V6.197h3.751v11.36c0 .951-.754 1.722-1.686 1.722z" fill="none"/>
  <path d="M13.167 3H3.833C3.375 3 3 3.45 3 4s.375 1 .833 1h9.334c.458 0 .833-.45.833-1s-.375-1-.833-1zM13.167 6H3.833C3.375 6 3 6.45 3 7s.375 1 .833 1h9.334c.458 0 .833-.45.833-1s-.375-1-.833-1z" fill="none" />
  <rect x="3" y="10" width="11" height="7" rx="1" stroke-width="4" fill="none" />
</svg>
