<svg viewBox="0 0 26 36">
  <path d="M24.3427 20.6727L12.046 17.9541C8.38117 17.1573 6.11474 13.595 6.93451 10.0327C7.75429 6.47035 11.4192 4.26735 15.084 5.06418C18.7489 5.86101 21.0154 9.42332 20.1956 12.9388C19.7616 14.7199 18.6525 16.173 17.2058 17.0635C17.1576 17.1104 17.1576 17.1573 17.1576 17.2041C17.1576 17.2979 17.2058 17.3448 17.3023 17.3448L22.7513 18.5634C22.896 18.6103 22.9925 18.5634 23.0889 18.4228C24.5838 16.5011 25.5 14.0637 25.5 11.4388C25.4518 5.39229 20.5331 0.376933 14.2643 0.00195302C14.216 0.00195302 13.8785 0.00195302 13.7338 0.00195302C11.0334 -0.0449194 8.23651 0.751912 5.77718 2.39245C-0.347017 6.5641 -1.8419 14.8136 2.44986 20.7664L13.3963 35.9063C13.4445 35.9531 13.5409 36 13.5892 36C13.6856 36 13.7338 35.9531 13.782 35.9063L24.4873 21.0477C24.5356 21.0008 24.5356 20.9539 24.5356 20.9071C24.5356 20.8133 24.4873 20.7196 24.3427 20.6727Z" />
</svg>
