<svg viewBox="0 0 50 50">
  <path d="M2.42 5.645a1.613 1.613 0 010-3.226h1.612a1.613 1.613 0 010 3.226H2.42z" fill="#78B9EB" fill-opacity=".3"/>
  <path d="M43.548 44.355a3.226 3.226 0 11-6.451 0 3.226 3.226 0 016.451 0zM19.355 44.355a3.226 3.226 0 11-6.452 0 3.226 3.226 0 016.452 0zM41.935 16.935c0 6.681-5.416 12.097-12.096 12.097-6.681 0-12.097-5.416-12.097-12.097 0-6.68 5.416-12.096 12.097-12.096 6.68 0 12.096 5.416 12.096 12.096z" fill="#BC191D" fill-opacity=".3"/>
  <path d="M12.903 38.71h29.363a2.41 2.41 0 002.359-1.875l4.548-19.718a.806.806 0 00-.786-.988h-5.686c-.41-6.803-6.048-12.11-12.863-12.11-6.816 0-12.452 5.307-12.863 12.11h-4.072a2.42 2.42 0 00-2.42 2.42V36.29a2.42 2.42 0 002.42 2.42zm-.806-20.162c0-.445.36-.806.806-.806h4.073c.411 6.803 6.048 12.11 12.864 12.11 6.815 0 12.452-5.307 12.863-12.11h4.672l-4.322 18.73a.807.807 0 01-.787.625H12.903a.806.806 0 01-.806-.807V18.548zM29.839 5.645c6.235 0 11.29 5.055 11.29 11.29 0 6.236-5.055 11.29-11.29 11.29-6.236 0-11.29-5.054-11.29-11.29.006-6.232 5.057-11.283 11.29-11.29z" fill="#BC191D"/>
  <path d="M49.194 43.548h-4.92a4.032 4.032 0 00-7.903 0h-16.29a4.025 4.025 0 00-7.855-.154 7.225 7.225 0 01-5.774-7.104V4.032a2.42 2.42 0 00-2.42-2.42H2.42a2.42 2.42 0 000 4.84h1.613a2.39 2.39 0 00.807-.149V36.29a8.828 8.828 0 007.325 8.73 4.025 4.025 0 007.917.141h16.29a4.032 4.032 0 007.903 0h4.92a.807.807 0 000-1.613zM4.032 4.838H2.42a.806.806 0 010-1.612h1.613a.806.806 0 010 1.613zM16.13 46.775a2.42 2.42 0 110-4.839 2.42 2.42 0 010 4.84zm24.194 0a2.42 2.42 0 110-4.839 2.42 2.42 0 010 4.84z" fill="#BC191D"/>
  <path d="M29.834 26.864a.807.807 0 00.806-.806V17.74h8.318a.807.807 0 000-1.613H30.64V7.81a.806.806 0 00-1.613 0v8.317H20.71a.807.807 0 000 1.613h8.317v8.318c0 .445.362.806.807.806z" fill="#BC191D"/>
</svg>
