<svg viewBox="0 0 50 50">
  <path d="M5.833 21.667v-8.215L25 6.182l19.166 7.27v8.215H5.834zM8.333 46.666v-10h3.334V40H15v-3.334h3.333v10h-10zM8.333 34.167v-10h3.334V27.5H15v-3.333h3.333v10h-10zM20.833 46.666v-10h3.334V40H27.5v-3.334h3.333v10h-10z" fill-opacity=".3" fill="#BC191D"/>
  <path d="M49.462 9.22L25.294.054a.824.824 0 00-.59 0L.538 9.22A.833.833 0 000 10v39.166c0 .46.373.833.833.833h48.334c.46 0 .833-.373.833-.833V9.999a.833.833 0 00-.538-.779zm-6.129 39.112H6.667V22.5h36.666v25.833zm0-34.306v6.806H6.667v-6.806L25 7.07l18.333 6.955zm5 34.306H45V13.451a.834.834 0 00-.538-.78l-19.167-7.27a.824.824 0 00-.59 0l-19.167 7.27a.834.834 0 00-.538.78v34.881H1.667V10.574L25 1.724l23.333 8.85v37.758z" fill="#BC191D"/>
  <path d="M22.5 11.667h5.833v1.666H22.5v-1.666zM22.5 15h5.833v1.667H22.5V15zM8.333 47.5h10c.46 0 .834-.373.834-.834v-10a.833.833 0 00-.834-.833h-10a.833.833 0 00-.833.834v10c0 .46.373.833.833.833zm4.167-10h1.667v1.666H12.5V37.5zm-3.333 0h1.666V40c0 .46.373.833.834.833H15c.46 0 .833-.373.833-.833v-2.5H17.5v8.333H9.167V37.5z" fill="#BC191D"/>
  <path d="M10.833 43.333h5V45h-5v-1.667zM8.333 35h10c.46 0 .834-.373.834-.833v-10a.833.833 0 00-.834-.834h-10a.833.833 0 00-.833.834v10c0 .46.373.833.833.833zM12.5 25h1.667v1.667H12.5V25zm-3.333 0h1.666v2.5c0 .46.373.833.834.833H15c.46 0 .833-.372.833-.833V25H17.5v8.333H9.167V25z" fill="#BC191D"/>
  <path d="M10.833 30.833h5V32.5h-5v-1.667zM20.833 47.5h10c.46 0 .834-.373.834-.834v-10a.833.833 0 00-.834-.833h-10a.833.833 0 00-.833.834v10c0 .46.373.833.833.833zM25 37.5h1.667v1.666H25V37.5zm-3.333 0h1.666V40c0 .46.373.833.834.833H27.5c.46 0 .833-.373.833-.833v-2.5H30v8.333h-8.333V37.5z" fill="#BC191D"/>
  <path d="M23.333 43.333h5V45h-5v-1.667z" fill="#BC191D"/>
</svg>
