<svg viewBox="0 0 50 50">
  <path d="M14.5161 48.3871L18.5484 43.5483H32.258L35.4839 48.3871H14.5161Z" fill="#BC191D" fill-opacity="0.3"/>
  <path d="M44.3548 0.806396H5.64516C2.52882 0.80994 0.00354397 3.33522 0 6.45156C0.00826927 12.8992 5.07261 18.2073 11.5128 18.5184C12.5169 24.1415 16.8977 28.5553 22.5129 29.6016L21.0524 42.7419H18.5484C18.3094 42.7419 18.0822 42.8478 17.929 43.0313L13.8967 47.87C13.6959 48.1106 13.6526 48.4453 13.7853 48.7288C13.918 49.0124 14.2031 49.1935 14.5161 49.1935H35.4839C35.7812 49.1935 36.0548 49.0297 36.195 48.7674C36.3352 48.5052 36.3199 48.187 36.1549 47.9393L32.9291 43.1006C32.7794 42.8765 32.5278 42.7419 32.2581 42.7419H28.9515L27.4871 29.6016C33.1023 28.5553 37.4831 24.1415 38.4872 18.5184C44.9274 18.2073 49.9917 12.8992 50 6.45156C49.9965 3.33522 47.4712 0.80994 44.3548 0.806396V0.806396ZM11.2903 16.129V16.9047C5.8322 16.4767 1.6196 11.9262 1.6129 6.45156C1.61566 4.22555 3.41915 2.42206 5.64516 2.4193H11.2903V16.129ZM37.0968 16.129C37.0968 22.8098 31.6808 28.2257 25 28.2257C18.3192 28.2257 12.9032 22.8098 12.9032 16.129V2.4193H37.0968V16.129ZM22.6752 42.7419L24.1128 29.8387H25.8872L27.3209 42.7419H22.6752ZM16.2377 47.5806L18.9256 44.3548H31.8288L33.9789 47.5806H16.2377ZM38.7097 16.9047V2.4193H44.3548C46.5808 2.42206 48.3843 4.22555 48.3871 6.45156C48.3804 11.9262 44.1678 16.4767 38.7097 16.9047Z" fill="#BC191D"/>
  <circle cx="25" cy="14.2857" r="4.71428" fill="#BC191D" fill-opacity="0.3" stroke="#BC191D" stroke-width="2"/>
</svg>
