<svg viewBox="0 0 50 50">
  <path d="M17.742 37.097v-7.258a7.258 7.258 0 1114.516 0v7.258H17.742zM29.839 16.936a4.839 4.839 0 11-9.678 0 4.839 4.839 0 019.678 0z" fill="#BC191D" fill-opacity=".3"/>
  <path d="M27.264 22.103a5.646 5.646 0 10-4.528 0 8.074 8.074 0 00-5.8 7.736v7.258c0 .445.36.806.806.806h14.516a.807.807 0 00.806-.806v-7.258a8.074 8.074 0 00-5.8-7.736zm4.188 14.187H18.548V29.84a6.451 6.451 0 1112.904 0v6.451zM25 12.903a4.032 4.032 0 110 8.065 4.032 4.032 0 010-8.065z" fill="#BC191D"/>
  <path d="M49.194 24.194h-2.44C46.32 12.81 37.19 3.68 25.807 3.245V.806a.807.807 0 00-1.613 0v2.44C12.81 3.68 3.68 12.81 3.245 24.194H.806a.807.807 0 000 1.613h2.44C3.68 37.19 12.81 46.319 24.194 46.754v2.44a.807.807 0 001.613 0v-2.44c11.383-.435 20.512-9.564 20.947-20.947h2.44a.807.807 0 000-1.613zm-6.452 0a.807.807 0 000 1.613h2.4C44.707 36.3 36.3 44.707 25.805 45.14v-2.4a.807.807 0 00-1.613 0v2.4C13.7 44.708 5.293 36.301 4.86 25.807h2.4a.807.807 0 000-1.613h-2.4C5.292 13.7 13.699 5.291 24.194 4.858v2.4a.807.807 0 001.613 0v-2.4c10.493.433 18.901 8.84 19.334 19.335h-2.4zM2.42 8.065a.806.806 0 00.806-.807V3.226h4.032a.806.806 0 000-1.613H2.42a.806.806 0 00-.806.806v4.84c0 .444.361.806.806.806zM42.742 3.226h4.032v4.032a.806.806 0 001.613 0V2.42a.807.807 0 00-.806-.806h-4.84a.806.806 0 000 1.613zM7.258 46.774H3.226v-4.032a.807.807 0 00-1.613 0v4.839c0 .445.361.806.806.806h4.84a.806.806 0 000-1.613zM47.58 41.935a.807.807 0 00-.806.807v4.032h-4.032a.807.807 0 000 1.613h4.839a.807.807 0 00.806-.806v-4.84a.807.807 0 00-.806-.806z" fill="#BC191D"/>
</svg>
